/* XPM */
static char * map_xpm[] = {
"186 98 4 1",
" 	c None",
".	c #A289A289A289",
"X	c #FFFFFFFFFFFF",
"o	c #00000000FFFF",
"                                                         ........................................                                                                                         ",
"                                                        ..........................................                                                                                        ",
"                                                        ..                                      ..                                                                                        ",
"                                                        ..                                      ..                                                                                        ",
"                                                        ..                                      ..                                                                                        ",
"                                                        ..                                      ..                                                                                        ",
"                                                        ..               X                      ..                                                                                        ",
"                                                        ..       XXX         X                  ..                                                                                        ",
"                                                        .. oooo   X X X XX  XX  XXX X           ..                                                                                        ",
"                                                        ..  oo    XX  XX X X X X X XXX          ..                                                                                        ",
"                                                        ..  oo    X X X  X X X  X  X            ..                                                                                        ",
"                                                        ..  oo   XXX  X  X  XX X X  X           ..                                                                                        ",
"                                                        ..  oo                  X               ..                                                                                        ",
"                                                        ..  oo                                  ..                                                                                        ",
"                                                        ..  oo                                  ..                                                                                        ",
"                                                        ..  oo                                  ..                                                                                        ",
"                                 ...........................oo...........................................................................                                                 ",
"                                ............................oo............................................................................                                                ",
"                                ..                          oo                                                                          ..                                                ",
"                                ..                          oo                                                                          ..                                                ",
"                                ..                          oo                                                                          ..                                                ",
"                                ..                          oo                                                                          ..                                                ",
"                                ..                          oo                                                                          ..                                                ",
"                                ..                          oo        XXXX        X                                                     ..                                                ",
"                                ..                          oo         X  X  X   X  X  XX  XX  X                                        ..                                                ",
"                                ..                          oo         X  X XXX XXXXXX X X X  XXX                                       ..                                                ",
"                                ..       oooo              oooo        X  X X    X X   X X  X X                                         ..                                                ",
"                                ..        oo                oo        XXXX   X   X  X  X X XX  X                                        ..                                                ",
"                                ..        oo                oo                                                                          ..                                                ",
"                                ..        oo                oo                                                                          ..                                                ",
"                                ..        oo                oo                                                                          ..                                                ",
"                                ..        oo                oo                                                                          ..                                                ",
" .........................................oo................oo........................................................................................................................... ",
"..........................................oo................oo............................................................................................................................",
"..                                        oo    ..      ..  oo                                                                                                                          ..",
"..                                        oo    ..      ..  oo                                                                                                                          ..",
"..                                        oo    ..      ..  oo                                                                                                                          ..",
"..                                        oo    ..      ..  oo                                                                                                                          ..",
"..                                        oo    ..      ..  oo                                                                                                                          ..",
"..    XXX      X              X           oo    ..      ..  oo           X      X             X                                                                                         ..",
"..     X X  X  XX X  XX  X X XX           oo    ..      ..  oo          X X  XX XX X X X  XX  XX  X X                                                                                   ..",
"..     XX  X X X   X X X X X  X          oooo   ..      ..  oo          XXX  X  X  XX X X X X X X X X                                                                      oooo         ..",
"..     X X X X X  XX X X X X  X           oo    ..      .. oooo         X X   X X  X  X X X X X X X X                                                                       oo          ..",
"..    XXX   X   X XX X X  X  XXX          oo    ..      ..             XX XX XX  X X   X  XX  X X  X   X                                                                    oo          ..",
"..                        X               oo    ..      ..                                X        X                                                                        oo          ..",
"..                       X                oo    ..      ..                                X       X                                                                         oo          ..",
"..                                        oo    ..      ..                                                                                                                  oo          ..",
"..                                        oo    ..      ..                                                                                                                  oo          ..",
"..........................................oo......      ....................................................................................................................oo............",
" .........................................oo......       ...................................................................................................................oo........... ",
"                ..                        oo    ..                                                                                              ..                          oo  ..        ",
"                ..                        oo    ..                                                                                              ..                          oo  ..        ",
"                ..                        oo    ..                                                                                              ..                          oo  ..        ",
"                ..                        oo    ..                                                                                              ..                          oo  ..        ",
"                ..                        oo    ..                                                                                         X    ..                          oo  ..        ",
"                ..  XXX      X  XX        oo    ..                                                                                          X   ..                 X        oo  ..        ",
"                ..   X X  X  XX   X       oo    ..                                                                                        XXXX  ..                XX        oo  ..        ",
"                ..   XX  X X X   X       oooo   ..                                                                                  XXXXXX  X   ..         oooo    X       oooo ..        ",
"                ..   X X X X X  X         oo    ..                                                                            XXXXXX       X    ..          oo     X            ..        ",
"                ..  XXX   X   X XXX       oo    ..                                                                      XXXXXX                  ..          oo    XXX           ..        ",
"                ..                        oo    ..                                                                XXXXXX                        ..          oo                  ..        ",
"                ..                        oo    ..                                                            XXXX                              ..          oo                  ..        ",
"                ..                        oo    ..                                                                                              ..          oo                  ..        ",
"                ..                        oo    ..                       X      X                                                               ..          oo                  ..        ",
"         .................................oo......                      X X  XX XX X X X  XX   X  XX X  X X                      ...........................oo....................        ",
"        ..................................oo......                      XXX  X  X  XX X X X X X X X X X X X                     ............................oo...................         ",
"        ..                                oo    ..                      X X   X X  X  X X X X X X X X X X X                     ..                          oo  ..                        ",
"        ..                                oo    ..                     XX XX XX  X X   X  X X  X  X X X  X                      ..                          oo  ..                        ",
"        ..                                oo    ..                                                       X                      ..                          oo  ..                        ",
"        ..                                oo    ..                                                      X      XXX              ..                          oo  ..                        ",
"        ..                                oo    ..                                                                XXXX      X   ..                          oo  ..                        ",
"        ..    XXX      X  XX              oo    ..                                                                    XXXXX  X  ..   XX                     oo  ..                        ",
"        ..     X X  X  XX   X             oo    ..                                                                         XXXX ..     X                    oo  ..                        ",
"        ..     XX  X X X   X              oo    ..                                                                           X  ..    X    oooo            oooo ..                        ",
"        ..     X X X X X    X            oooo   ..                                                                          X   ..   X      oo                  ..                        ",
"        ..    XXX   X   X XX              oo    ..                                                                              ..   XXX    oo                  ..                        ",
"        ..                                oo    ..                                                                              ..          oo                  ..                        ",
"        ..                                oo    ..                                                                              ..          oo                  ..                        ",
"        ..                                oo    ..                                                                              ..          oo                  ..                        ",
"        ..                                oo    ..                                                                              ..          oo                  ..                        ",
"        ..................................oo......               ...........................................................................oo....................                        ",
"         .................................oo......              ............................................................................oo...................                         ",
"                ..                        oo    ..              ..                                                                          oo  ..                                        ",
"                ..                        oo    ..              ..                                                                          oo  ..                                        ",
"                ..                        oo    ..              ..                                                                          oo  ..                                        ",
"                ..                        oo    ..              ..                                                                          oo  ..                                        ",
"                ..                        oo    ..              ..                 X                X                                       oo  ..                                        ",
"                ..   XXX      X    X      oo    ..              ..    XXXX                                                                  oo  ..                                        ",
"                ..    X X  X  XX  XX      oo    ..              ..     X   XX   XXXX XX   X   X  X XX XX   XXX                              oo  ..                                        ",
"                ..    XX  X X X  X X     oooo   ..              ..     XX  X X X X X X X XXX XXX XX X X X X X                               oo  ..                                        ",
"                ..    X X X X X  XXXX           ..              ..     X   X X  X  X X X X   X   X  X X X  X                               oooo ..                                        ",
"                ..   XXX   X   X   X            ..              ..    XXXX X X X X X X X  X   X  X  X X X X X                                   ..                                        ",
"                ..                              ..              ..              X                          X                                    ..                                        ",
"                ..                              ..              ..                                                                              ..                                        ",
"                ..                              ..              ..                                                                              ..                                        ",
"                ..                              ..              ..                                                                              ..                                        ",
"                ..................................              ..................................................................................                                        ",
"                 ................................                ................................................................................                                         "};
