/* XPM */
static char * map_xpm[] = {
"191 46 4 1",
" 	c None",
".	c #A2A2A2",
"+	c #FFFFFF",
"@	c #0000FF",
"            ....................................................................................                                                                                               ",
"           ......................................................................................                                                                                              ",
"           ..                                                                                  ..                                                                                              ",
"           ..          +                                                                       ..                                                                                              ",
"           ..  +++         +         +                                                         ..                                                                                              ",
"           ..   + + + ++  ++  +++ + + +                                                        ..                                                                                              ",
"           ..   ++  ++ + + + + + +++ ++                                                        ..                                                                                              ",
"           ..   + + +  + + +  +  +  +                                                          ..                                                                                              ",
"           ..  +++  +  +  ++ + +  + +++                                                        ..                                                                                              ",
"           ..                 +                           @@@                                  ..                                                                                              ",
"           ..                                              @                                   ..                                                                                              ",
"            ...............................................@....................................                                                                                               ",
"           ................................................@.....................................                                                                                              ",
"           ..                                              @                                   ..                                                                                              ",
"           ..          +                                   @                                   ..                                                                                              ",
"           ..  +++         +                               @                                   ..                                                                                              ",
"           ..   + + + ++  ++  +++ +                        @                                   ..                                                                                              ",
"           ..   ++  ++ + + + + + +++                       @                                   ..                                                                                              ",
"           ..   + + +  + + +  +  +                         @                                   ..                                                                                              ",
"           ..  +++  +  +  ++ + +  +                       @@@                                  ..                                                                                              ",
"           ..                 +                                                         @@@    ..                                                                                              ",
"           ..                                                                            @     ..                                                                                              ",
" ........................................................................................@.................................................................................................... ",
".........................................................................................@.....................................................................................................",
"..                                                                                       @                                                                                                   ..",
"..                                                 +  +                                  @                                                                                                   ..",
"..                                                 ++ +     +  +                         @                                                                                                   ..",
"..                                                 + ++ + + ++ +    +  + +  ++   +       @                                                                                                   ..",
"..                                                 +  + + + +  ++  + + + + +    + +      @                                                                                                   ..",
"..                                                 +  + + + +  + + + + + +  ++  +++      @                                                                                                   ..",
"..                                            @@@  +  +  ++ ++ + +  +   ++    + +       @@@                                                             @@@     @@@                          ..",
"..                                             @                            ++   +                                                                       @       @                           ..",
"..                                             @                                                                                                         @       @                           ..",
"...............................................@.........................................................................................................@.......@.............................",
" ..............................................@.........................................................................................................@.......@............................ ",
"                     ..                        @     ..                                                                                            ..    @       @                 ..          ",
"                     ..                        @     ..                                                                                            ..    @       @                 ..          ",
"                     ..  +++            +      @     ..                                                                                            ..    @    ++++                 ..          ",
"                     .. +   + + + +  + +++     @     ..                                                                                            ..    @     + @ ++   +++        ..          ",
"                     .. +   + + +  + ++ +      @     ..                                                                                            ..    @     ++  + + + +         ..          ",
"                     .. +   + + + ++ +  +      @     ..                                                                                            ..    @     + @ + +  +          ..          ",
"                     ..  +++   ++ ++ +   +  + @@@    ..                                                                                            ..   @@@   ++++ + + + +  +      ..          ",
"                     ..   +                          ..                                                                                            ..           @@@     +          ..          ",
"                     ..    +                         ..                                                                                            ..                              ..          ",
"                     ..................................                                                                                            ..................................          ",
"                      .................................                                                                                             ................................           "};
