/* XPM */
static char * x_xpm[] = {
"8 80 2 1",
"       c None",
"x      c #FFFFFFFFFFFF",

"        ",
"  xxxxx ",
" x    xx",
" x   xxx",
" x   xxx",
" x   xxx",
"  xxxxx ",
"        ",

"        ",
"     xx ",
"     xx ",
"     xx ",
"     xxx",
"     xxx",
"     xxx",
"        ",

"        ",
" xxxxxxx",
"      xx",
" xxxxxxx",
" xxx    ",
" xxx    ",
" xxxxxxx",
"        ",

"        ",
" xxxxxxx",
"      xx",
" xxxxxxx",
"     xxx",
"     xxx",
" xxxxxxx",
"        ",

"        ",
" xx   xx",
" xx   xx",
" xxxxxxx",
"     xxx",
"     xxx",
"     xxx",
"        ",

"        ",
" xxxxxxx",
" xx     ",
" xxxxxxx",
"     xxx",
"     xxx",
" xxxxxxx",
"        ",

"        ",
" xxxxxxx",
" xx     ",
" xxxxxxx",
" xxx  xx",
" xxx  xx",
" xxxxxxx",
"        ",

"        ",
" xxxxxxx",
"      xx",
"      xx",
"     xxx",
"     xxx",
"     xxx",
"        ",

"        ",
" xxxxxxx",
" x    xx",
" xxxxxxx",
" x   xxx",
" x   xxx",
" xxxxxxx",
"        ",

"        ",
" xxxxxxx",
" x    xx",
" xxxxxxx",
"     xxx",
"     xxx",
" xxxxxxx",
"        "};
