/* XPM */
static char * digits2_xpm[] = {
"16 160 2 1",
" 	c None",
".	c #FFFFFF",


"   .....        ",
"  .......       ",
" ...   ...      ",
" ..     ..      ",
" ..     ..      ",
" ..     ..      ",
" ..     ..      ",
" ..     ..      ",
" ..     ..      ",
" ..     ..      ",
" ...   ...      ",
"  .......       ",
"   .....        ",
"                ",
"                ",
"                ",


"    ...         ",
"   ....         ",
"     ..         ",
"     ..         ",
"     ..         ",
"     ..         ",
"     ..         ",
"     ..         ",
"     ..         ",
"     ..         ",
"     ..         ",
"     ..         ",
"     ..         ",
"                ",
"                ",
"                ",


"    ....        ",
"   ......       ",
"  ...  ...      ",
"  ..    ..      ",
"  ..    ..      ",
"  ...  ...      ",
"   .  ...       ",
"     ...        ",
"    ...         ",
"   ...          ",
"  ...           ",
" .........      ",
" .........      ",
"                ",
"                ",
"                ",


" ........       ",
" .........      ",
"       ..       ",
"      ..        ",
"     ..         ",
"    ..          ",
"   ......       ",
"   .......      ",
"        ..      ",
"        ..      ",
"        ..      ",
" .........      ",
" ........       ",
"                ",
"                ",
"                ",


"      ..        ",
"     ...        ",
"    ...         ",
"   ... .        ",
"  ... ..        ",
" ...  ..        ",
"...   ..        ",
"..    ..        ",
"..    ..        ",
"..........      ",
" .........      ",
"      ..        ",
"      ..        ",
"                ",
"                ",
"                ",


"  .......       ",
"  .......       ",
"  ..            ",
"  ..            ",
"  ..            ",
"  ......        ",
"  .......       ",
"       ..       ",
"       ..       ",
"       ..       ",
"       ..       ",
" ........       ",
" .......        ",
"                ",
"                ",
"                ",

"    ..          ",
"   ...          ",
"   ..           ",
"  ...           ",
"  ..  .         ",
" ... ...        ",
" ..   ...       ",
"...    ...      ",
"..      ..      ",
"...     ..      ",
" ..    ...      ",
" ........       ",
"  ......        ",
"                ",
"                ",
"                ",


" .........      ",
" .........      ",
"       ...      ",
"       ...      ",
"      ...       ",
"      ...       ",
"     ...        ",
"     ...        ",
"    ...         ",
"    ...         ",
"   ...          ",
"   ...          ",
"  ...           ",
"                ",
"                ",
"                ",


"   ....         ",
"  ......        ",
" ...  ...       ",
" ..    ..       ",
" ...  ...       ",
"  ......        ",
" ........       ",
"...    ...      ",
"..      ..      ",
"..      ..      ",
"...    ...      ",
" ........       ",
"  ......        ",
"                ",
"                ",
"                ",


"  ......        ",
" ........       ",
"...    ..       ",
"..     ...      ",
"..      ..      ",
"...    ...      ",
" ...   ..       ",
"  ... ...       ",
"   .  ..        ",
"     ...        ",
"     ..         ",
"    ...         ",
"    ..          ",
"                ",
"                ",
"                "};
