/* XPM */
static char * flr_con_r_cyan_xpm[] = {
"32 32 18 1",
" 	c #00007DF77DF7",
".	c #000069A669A6",
"X	c #000051445144",
"o	c #6DB66DB69E79",
"O	c #6DB66DB6CF3C",
"+	c #D75CD75CD75C",
"@	c #9E799E79FFFF",
"#	c #C71BC71BC71B",
"$	c #79E779E779E7",
"%	c #8E388E388E38",
"&	c #9E799E796DB6",
"*	c #A699A699A699",
"=	c #FFFFFFFFFFFF",
"-	c #9E79CF3C6DB6",
";	c #9E79FFFF3CF3",
":	c #B6DAB6DAB6DA",
">	c #9E79CF3C9E79",
",	c #BEFBBEFBBEFB",
"   ..XXXXXXXXXXXXXXXXXXXXXX..   ",
"   ..XXXXXXXXXXXXXXXXXXXXXX..   ",
"   ..XXXXXXXXXXXXXXXXXXXXXX..   ",
"                 XXXXXXXXXX..   ",
" oOOOO++++++++++ XXXXXXXXXX..   ",
" O@@@@+#$%&&&%*+ XXXXXXXXXX..   ",
"  O@=@+#%-;;;-:+ XXXXXXXXXX..   ",
"  O@@@+#&;;;;;>+ ...XXXXXXX..   ",
"  O@=@+#&;;;;;>+ ...XXXXXXX..   ",
"   O@@+#&;;;;;>+ ...XXXXXXX..   ",
"   O@@+#%-;;;-:+ XXXXXXXXXX..   ",
"   O@@+#%*>->*:+ XXXXXXXXXX..   ",
"    O@+#%*>->*:+ XXXXXXXXXX..   ",
"    O@+#%-;;;-:+ XXXXXXXXXX..   ",
"    O@+#&;;;;;>+ ......XXXX..   ",
"     @+#&;;;;;>+ ......XXXX..   ",
"    O@+#&;;;;;>+ ......XXXX..   ",
"    O@+#%-;;;-:+ XXXXXXXXXX..   ",
"    O@+#%*>->*:+ XXXXXXXXXX..   ",
"   O@@+#%*>->*:+ XXXXXXXXXX..   ",
"   O@@+#%-;;;-:+ XXXXXXXXXX..   ",
"   O@@+#&;;;;;>+ ...XXXXXXX..   ",
"  O@=@+#&;;;;;>+ ...XXXXXXX..   ",
"  O@@@+#&;;;;;>+ ...XXXXXXX..   ",
"  O@=@+#%-;;;-:+ XXXXXXXXXX..   ",
" O@@@@+#%*>->*:+ XXXXXXXXXX..   ",
" oOOOO+#*:::::,+ XXXXXXXXXX..   ",
"      ++++++++++ XXXXXXXXXX..   ",
"                 XXXXXXXXXX..   ",
"   ..XXXXXXXXXXXXXXXXXXXXXX..   ",
"   ..XXXXXXXXXXXXXXXXXXXXXX..   ",
"   ..XXXXXXXXXXXXXXXXXXXXXX..   "};
