/* XPM */
static char * flr_store1_cyan_xpm[] = {
"32 32 9 1",
" 	c #00007DF77DF7",
".	c #FFFFFFFF3CF3",
"X	c #CF3CCF3C3CF3",
"o	c #6DB66DB63CF3",
"O	c #CF3CCF3C0C30",
"+	c #6DB66DB60C30",
"@	c #9E799E790C30",
"#	c #CF3C9E796DB6",
"$	c #9E799E793CF3",
"                                ",
"                                ",
"   ..........X    ..........X   ",
"   .........Xo    .........O+   ",
"   ..OOOOOOO@+    ..OOOOOOO@+   ",
"   ..OOOOOOO@+    ..OOOOOOO@+   ",
"   ..OOOOOOO@+    ..OOOOOOO@+   ",
"   ..OO##OOO@+    ..OO##OOO@+   ",
"   ..O####OO@+    ..O####OO@+   ",
"   ..O####OO@+    ..O####OO@+   ",
"   ..OO##OOO@+    ..OO##OOO@+   ",
"   ..OOOOOOO@+    ..OOOOOOO@+   ",
"   ..OOOOOOO@+    ..OOOOOOO@+   ",
"   ..OOOOOOO@+    ..OOOOOOO@+   ",
"   ..OOOOOOO@+    ..OOOOOOO@+   ",
"   ..OOOOOOO@+    ..OOOOOOO@+   ",
"   ..OOOOOOO@+    ..OOOOOOO@+   ",
"   ..OOOOOOO@+    ..OOOOOOO@+   ",
"   ..OOOOOOO@+    ..OOOOOOO@+   ",
"   ..OO##OOO@+    ..OO##OOO@+   ",
"   ..O####OO@+    ..O####OO@+   ",
"   ..O####OO@+    ..O####OO@+   ",
"   ..OO##OOO@+    ..OO##OOO@+   ",
"   ..OOOOOOO@+    ..OOOOOOO@+   ",
"   ..OOOOOOO@+    ..OOOOOOO@+   ",
"   ..OOOOOOO@+    ..OOOOOOO@+   ",
"   ..OOOOOOO@+    ..OOOOOOO@+   ",
"   ..OOOOOOO@+    ..OOOOOOO@+   ",
"   .X@@@@@@@@+    .O@@@@@@@@+   ",
"   $o+++++++++    $++++++++++   ",
"                                ",
"                                "};
