/* XPM */
static char * flr_con_b_cyan_xpm[] = {
"32 32 18 1",
" 	c #00007DF77DF7",
".	c #6DB66DB69E79",
"X	c #6DB66DB6CF3C",
"o	c #9E799E79FFFF",
"O	c #000069A669A6",
"+	c #FFFFFFFFFFFF",
"@	c #000051445144",
"#	c #D75CD75CD75C",
"$	c #C71BC71BC71B",
"%	c #A699A699A699",
"&	c #8E388E388E38",
"*	c #9E799E796DB6",
"=	c #79E779E779E7",
"-	c #B6DAB6DAB6DA",
";	c #9E79CF3C6DB6",
":	c #9E79FFFF3CF3",
">	c #9E79CF3C9E79",
",	c #BEFBBEFBBEFB",
"                                ",
"     .X                   X.    ",
"     XoXXX             XXXoX    ",
"OOO  XooooXXX       XXXooooX OOO",
"OOO  Xo+o+oooXXX XXXooo+o+oX OOO",
"@@@  XoooooooooooooooooooooX @@@",
"@@@ ######################## @@@",
"@@@ #$$$$$$$$$$$$$$$$$$$$$$# @@@",
"@@@ #%&&***&&&&***&&&&***&=# @@@",
"@@@ #-%;:::;%%;:::;%%;:::;&# @@@",
"@@@ #->:::::>>:::::>>:::::*# @@@",
"@@@ #-;:::::;;:::::;;:::::*# @@@",
"@@@ #->:::::>>:::::>>:::::*# @@@",
"@@@ #-%;:::;%%;:::;%%;:::;&# @@@",
"@@@ #,-->>>---->>>---->>>-%# @@@",
"@@@ ######################## @@@",
"@@@                          @@@",
"@@@@@@@@OOO@@@@OOO@@@@OOO@@@@@@@",
"@@@@@@@@OOO@@@@OOO@@@@OOO@@@@@@@",
"@@@@@@@@OOO@@@@OOO@@@@OOO@@@@@@@",
"@@@@@@@@@@@@@@@OOO@@@@@@@@@@@@@@",
"@@@@@@@@@@@@@@@OOO@@@@@@@@@@@@@@",
"@@@@@@@@@@@@@@@OOO@@@@@@@@@@@@@@",
"@@@@@@@@@@@@@@@@@@@@@@@@@@@@@@@@",
"@@@@@@@@@@@@@@@@@@@@@@@@@@@@@@@@",
"@@@@@@@@@@@@@@@@@@@@@@@@@@@@@@@@",
"@@@@@@@@@@@@@@@@@@@@@@@@@@@@@@@@",
"OOOOOOOOOOOOOOOOOOOOOOOOOOOOOOOO",
"OOOOOOOOOOOOOOOOOOOOOOOOOOOOOOOO",
"                                ",
"                                ",
"                                "};
