/* XPM */
static char * ntitle_xpm[] = {
"128 32 3 1",
" 	c None",
".	c #34AAFF",
"+	c #FFFF82",
"..... .   .   .....     ....  .....                                                                                             ",
".   .  . .        .     .   . .   .                                                                                             ",
".   .  . .        .     .   . .   .                                                                                             ",
".   .   .         .     .   . .   .                                                                                             ",
".....   .         . ... .   . .   .                                                                                             ",
".    .  .         . .   .   . .   .                                                                                             ",
".    .  .         . ... .   . .   .                                                                                             ",
".    .  .         .   . .   . .   .                                                                                             ",
"......  .      .... ... .   . .....                                                                                             ",
"                                                                                                                                ",
"                                                                                                                                ",
"+       +  +            +           +     +       +                     +                                                       ",
"++      +               +           +     +       +                     +                                                       ",
"+ +     +               +           +     +       +                     +                                                       ",
"+  +    +               +           +     +       +                     +                                                       ",
"+   +   +  +    +++++++ +++++++   +++++   +       +   +++++++ +   +   + +     +                                                 ",
"+    +  + ++   +      + +      +    +     +       +  +      + +   +   + +    +                                                  ",
"+     + +  +  +       + +       +   +     +++++++++ +       + +   +   + +   +                                                   ",
"+      ++  +  +       + +       +   +     +       + +       + +   +   + +  +                                                    ",
"+       +  +  +       + +       +   +     +       + +       + +   +   + ++++                                                    ",
"+       +  +  +       + +       +   +     +       + +       + +   +   + +   +                                                   ",
"+       +  +  +       + +       +   +     +       + +       + +   +   + +    +                                                  ",
"+       +  +   +      + +       +   +     +       +  +     ++  + + + +  +     +                                                 ",
"+       + +++   +++++++ +       +    ++++ +       +   +++++ +   +   +   +      +                                                ",
"                      +                                                                                                         ",
"                      +                                                                                                         ",
"                     +                                                                                                          ",
"               ++++++                                                                                                           ",
"                                                                                                                                ",
"                                                                                                                                ",
"                                                                                                                                ",
"                                                                                                                                "};
