/* XPM */
static char * ship_complete_xpm[] = {
"256 64 2 1",
" 	c None",
".	c #FFFF00",
"                ....                                                      ....                                                                                                                                                                                  ",
"              .......                                                    .....                                              ..                                        .                                                                                         ",
"            ....   ...      .                                          ....  ..                                            ....                                       ..                                                                                        ",
"           ...      ..     ..                                         ...    ..                                           .. ..                                      ..                                                                                         ",
"          ...      ..     ...                                        ...     ..                                          ..  .                                      ...                                                                                         ",
"         ...       ..     ..                                        ...      .                                          ..  ..                                      ..                                                                                          ",
"        ...       ..     ...                                       ...      ..                                         ..   .               .                      ...                                                                                          ",
"        ..       ..      ..           .                            ..      ..                                          ..  ..               ..                     ..                                                                                           ",
"       ...     ...      ..           ...                          ..       ..                                         ..  ..               ..                     ...                                                                                           ",
"       ..    ....       ..          ...                          ...      ..                                          .   ..              ..                      ..                                                                                            ",
"       ..   ....       ..            .                          ...     ....                                         ..  ..               .. ...                 ...                                                                                            ",
"       ..   ..         ..                                       ..      ...                                         ..  ..               .......                 ..                                                                                             ",
"       ..             ..                .                      ...      .                                .          ..  .             .......                   ...                                                                                             ",
"       ...           ...               ..                     ...                                       ..         ..  .             .....                      ..                                                                                              ",
"        ..           ..   ..       .   ..                     ..                 ...      .             ..         .. ..     ...       ..         ...          ...                                                                                              ",
"        ...          .   ...      .   .. ...                 ...               ......    ..  ..   ...  .. ...     .. ..     .....      ..        .....        ...                                                                                               ",
"         ..         .. .....     ..   .......                ..               ...  ..    .. ... ....   .......    ....     ..  .      ..        ..  .         ..                                                                                                ",
"          ..        .......     ..   ...   ..               ...               ..   .    .. ... ....   ...   ..   ....     ..  ..      ..       ..  ..        ...                                                                                                ",
"          ..       .... ..      ..   ..   ...               ...          ..  ..   ..   .. .........   ..   ...   ...     ..  ..      ..       ..  ..         ..                                                                                                 ",
"  ...      ..      ...  ..   . ..   ..    ..                ..           .  ...  ...   ........ ..   ..    ..   ..    . ..  ..       ..     ...  ..         ..                                                                                                  ",
" ....      ..     ...  ..   .  ..   ..   ...               ...          ..  ..   ..   .... ... ..    ..   ...   ..   .  .. ..    .. ...    . .. ..    ..   ...                                                                                                  ",
" ..        ...    ..   ..  .. ..   ..    ..                ...         ..   ..   ..   ... ...  ..   ..    ..    ..  .. ....     ..  ..    ......     ..    ..                                                                                                   ",
"...        ...    ..  ..  ..  ..   ..   ...                ...        ..   ..   ..    ..  ... ..    ..   ...   ..  ..  ..      ..   ..   .. ..      ..     ..                                                                                                   ",
"..         ..    ..   .. ..  ..   ..   ...                 ...       ..    ..   ..   ... ...  ..   ..   ...    .. ..   ...   ...    ..  ..  ...   ...                                                                                                           ",
"...       ...    ..   .....  ..   ..  ...                  ...      ..     ... ..    ..  ..   ..   ..  ...     ....    ........     .....   ........                                                                                                            ",
" ...    ....    ..    ...    ..  .......                    ...    ..      .....     ..  ..   ..  .......      ...      .....        ...     .....       ..                                                                                                     ",
" ..........      .          ..   .. ..                      ........        ...     ..   .    ... .. ..                                                 ...                                                                                                     ",
"   ......                   ..  ..                           .....                   .         ....                                                     ...                                                                                                     ",
"                                ..                                                               ..                                                     ..                                                                                                      ",
"                               ..                                                               ..                                                                                                                                                              ",
"                               ..                                                               ..                                                                                                                                                              ",
"                              ...                                                              ...                                                                                                                                                              ",
"                              ..                                                               ..                                                                                                                                                               ",
"                              ..                                                               ..                                                                                                                                                               ",
"                             ..                                                               ..                                                                                                                                                                ",
"                             ..                                                               ..                                                                                                                                                                ",
"                             .                                                                .                                                                                                                                                                 ",
"                            ..                                                               ..                                                                                                                                                                 ",
"                             .                                                                .                                                                                                                                                                 ",
"                                                                                                                                                                                                                                                                ",
"                                                                                                                                                                                                                                                                ",
"                                                                                                                                                                                                                                                                ",
"                                                                                                                                                                                                                                                                ",
"                                                                                                                                                                                                                                                                ",
"                                                                                                                                                                                                                                                                ",
"                                                                                                                                                                                                                                                                ",
"                                                                                                                                                                                                                                                                ",
"                                                                                                                                                                                                                                                                ",
"                                                                                                                                                                                                                                                                ",
"                                                                                                                                                                                                                                                                ",
"                                                                                                                                                                                                                                                                ",
"                                                                                                                                                                                                                                                                ",
"                                                                                                                                                                                                                                                                ",
"                                                                                                                                                                                                                                                                ",
"                                                                                                                                                                                                                                                                ",
"                                                                                                                                                                                                                                                                ",
"                                                                                                                                                                                                                                                                ",
"                                                                                                                                                                                                                                                                ",
"                                                                                                                                                                                                                                                                ",
"                                                                                                                                                                                                                                                                ",
"                                                                                                                                                                                                                                                                ",
"                                                                                                                                                                                                                                                                ",
"                                                                                                                                                                                                                                                                ",
"                                                                                                                                                                                                                                                                "};
