/* XPM */
static char * flr_crosses_cyan_xpm[] = {
"32 32 5 1",
" 	c #00007DF77DF7",
".	c #9E799E799E79",
"X	c #8E388E388E38",
"o	c #861786178617",
"O	c #69A669A669A6",
"                                ",
"                                ",
"                                ",
"              ...X              ",
"              .ooO              ",
"              .ooO              ",
"              .ooO              ",
"              .ooO              ",
"              .ooO              ",
"              .ooO              ",
"              XOOO              ",
"                                ",
"                                ",
"                                ",
"   .......X          .......X   ",
"   .ooooooO          .ooooooO   ",
"   .ooooooO          .ooooooO   ",
"   XOOOOOOO          XOOOOOOO   ",
"                                ",
"                                ",
"                                ",
"              ...X              ",
"              .ooO              ",
"              .ooO              ",
"              .ooO              ",
"              .ooO              ",
"              .ooO              ",
"              .ooO              ",
"              XOOO              ",
"                                ",
"                                ",
"                                "};
