/* XPM */
static char * flr_pattern3_cyan_xpm[] = {
"32 32 2 1",
" 	c #00007DF77DF7",
".	c #0000A000B000",
"                                ",
"                                ",
"                                ",
"                                ",
"          ...      ...          ",
"            .      .            ",
"                                ",
"                                ",
"                                ",
"                                ",
"                                ",
"    .                      .    ",
"    ..  ..            ..  ..    ",
"                                ",
"                                ",
"                                ",
"                                ",
"                                ",
"                                ",
"    ..  ..            ..  ..    ",
"    .                      .    ",
"                                ",
"                                ",
"                                ",
"                                ",
"                                ",
"            .       .           ",
"          ...       ...         ",
"                                ",
"                                ",
"                                ",
"                                "};
