/* XPM */
static char * floor_xpm[] = {
"32 32 2 1",
" 	c #000092489248",
".	c #00007DF77DF7",
"                                ",
"                                ",
"  ............    ............  ",
"  .............  .............  ",
"  .............  .............  ",
"  .............  .............  ",
"  .............  .............  ",
"  .............  .............  ",
"  .............  .............  ",
"  .............  .............  ",
"  ...........      ...........  ",
"  ..........  ....  ..........  ",
"  .........  ......  .........  ",
"  ........  ........  ........  ",
"   ....... .......... .......   ",
"           ..........           ",
"           ..........           ",
"   ....... .......... .......   ",
"  ........  ........  ........  ",
"  .........  ......  .........  ",
"  ..........  ....  ..........  ",
"  ...........      ...........  ",
"  .............  .............  ",
"  .............  .............  ",
"  .............  .............  ",
"  .............  .............  ",
"  .............  .............  ",
"  .............  .............  ",
"  .............  .............  ",
"  ............    ............  ",
"                                ",
"                                "};
