/* XPM */
static char * doorsv_xpm[] = {
"32 288 7 1",
" 	c #00007DF77DF7",
".	c #000069A669A6",
"X	c #000051445144",
"o	c #79E779E779E7",
"O	c #965896589658",
"+	c #A699A699A699",
"@	c #596559655965",
"   ..XXXXXXXXXXXXXXXXXXXXXX..   ",
"   ..XXXXXXXXXXXXXXXXXXXXXX..   ",
"   ..........................   ",
"   ..........................   ",
"    ........................    ",
"        oooOOOOOOOOOOooo        ",
"        oooOOOOOOOOOOooo        ",
"        oooOOOOOOOOOOooo        ",
"        oooOOOOOOOOOOooo        ",
"        oooOOOOOOOOOOooo        ",
"        oooOOOOOOOOOOooo        ",
"        oooOOOOOOOOOOooo        ",
"        oooOOOOOOOOOOooo        ",
"        oooOOOOOOOOOOooo        ",
"        oooooooooooooooo        ",
"        +@+@+@+@+@+@+@+@        ",
"        @+@+@+@+@+@+@+@+        ",
"        oooooooooooooooo        ",
"        oooOOOOOOOOOOooo        ",
"        oooOOOOOOOOOOooo        ",
"        oooOOOOOOOOOOooo        ",
"        oooOOOOOOOOOOooo        ",
"        oooOOOOOOOOOOooo        ",
"        oooOOOOOOOOOOooo        ",
"        oooOOOOOOOOOOooo        ",
"        oooOOOOOOOOOOooo        ",
"        oooOOOOOOOOOOooo        ",
"    ........................    ",
"   ..........................   ",
"   ..........................   ",
"   ..XXXXXXXXXXXXXXXXXXXXXX..   ",
"   ..XXXXXXXXXXXXXXXXXXXXXX..   ",
"   ..XXXXXXXXXXXXXXXXXXXXXX..   ",
"   ..XXXXXXXXXXXXXXXXXXXXXX..   ",
"   ..........................   ",
"   ..........................   ",
"    ........................    ",
"        oooOOOOOOOOOOooo        ",
"        oooOOOOOOOOOOooo        ",
"        oooOOOOOOOOOOooo        ",
"        oooOOOOOOOOOOooo        ",
"        oooOOOOOOOOOOooo        ",
"        oooOOOOOOOOOOooo        ",
"        oooOOOOOOOOOOooo        ",
"        oooOOOOOOOOOOooo        ",
"        +@+OOOOOOOOOO@+@        ",
"           oooooooooo           ",
"           @+@+@+@+@+           ",
"           +@+@+@+@+@           ",
"           oooooooooo           ",
"        @+@OOOOOOOOOO+@+        ",
"        oooOOOOOOOOOOooo        ",
"        oooOOOOOOOOOOooo        ",
"        oooOOOOOOOOOOooo        ",
"        oooOOOOOOOOOOooo        ",
"        oooOOOOOOOOOOooo        ",
"        oooOOOOOOOOOOooo        ",
"        oooOOOOOOOOOOooo        ",
"        oooOOOOOOOOOOooo        ",
"    ........................    ",
"   ..........................   ",
"   ..........................   ",
"   ..XXXXXXXXXXXXXXXXXXXXXX..   ",
"   ..XXXXXXXXXXXXXXXXXXXXXX..   ",
"   ..XXXXXXXXXXXXXXXXXXXXXX..   ",
"   ..XXXXXXXXXXXXXXXXXXXXXX..   ",
"   ..........................   ",
"   ..........................   ",
"    ........................    ",
"        oooOOOOOOOOOOooo        ",
"        oooOOOOOOOOOOooo        ",
"        oooOOOOOOOOOOooo        ",
"        oooOOOOOOOOOOooo        ",
"        oooOOOOOOOOOOooo        ",
"        oooOOOOOOOOOOooo        ",
"        +@+OOOOOOOOOO@+@        ",
"           OOOOOOOOOO           ",
"           OOOOOOOOOO           ",
"           oooooooooo           ",
"           @+@+@+@+@+           ",
"           +@+@+@+@+@           ",
"           oooooooooo           ",
"           OOOOOOOOOO           ",
"           OOOOOOOOOO           ",
"        @+@OOOOOOOOOO+@+        ",
"        oooOOOOOOOOOOooo        ",
"        oooOOOOOOOOOOooo        ",
"        oooOOOOOOOOOOooo        ",
"        oooOOOOOOOOOOooo        ",
"        oooOOOOOOOOOOooo        ",
"        oooOOOOOOOOOOooo        ",
"    ........................    ",
"   ..........................   ",
"   ..........................   ",
"   ..XXXXXXXXXXXXXXXXXXXXXX..   ",
"   ..XXXXXXXXXXXXXXXXXXXXXX..   ",
"   ..XXXXXXXXXXXXXXXXXXXXXX..   ",
"   ..XXXXXXXXXXXXXXXXXXXXXX..   ",
"   ..........................   ",
"   ..........................   ",
"    ........................    ",
"        oooOOOOOOOOOOooo        ",
"        oooOOOOOOOOOOooo        ",
"        oooOOOOOOOOOOooo        ",
"        oooOOOOOOOOOOooo        ",
"        +@+OOOOOOOOOO@+@        ",
"           OOOOOOOOOO           ",
"           OOOOOOOOOO           ",
"           OOOOOOOOOO           ",
"           OOOOOOOOOO           ",
"           oooooooooo           ",
"           @+@+@+@+@+           ",
"           +@+@+@+@+@           ",
"           oooooooooo           ",
"           OOOOOOOOOO           ",
"           OOOOOOOOOO           ",
"           OOOOOOOOOO           ",
"           OOOOOOOOOO           ",
"        @+@OOOOOOOOOO+@+        ",
"        oooOOOOOOOOOOooo        ",
"        oooOOOOOOOOOOooo        ",
"        oooOOOOOOOOOOooo        ",
"        oooOOOOOOOOOOooo        ",
"    ........................    ",
"   ..........................   ",
"   ..........................   ",
"   ..XXXXXXXXXXXXXXXXXXXXXX..   ",
"   ..XXXXXXXXXXXXXXXXXXXXXX..   ",
"   ..XXXXXXXXXXXXXXXXXXXXXX..   ",
"   ..XXXXXXXXXXXXXXXXXXXXXX..   ",
"   ..........................   ",
"   ..........................   ",
"    ........................    ",
"        oooOOOOOOOOOOooo        ",
"        oooOOOOOOOOOOooo        ",
"        +@+OOOOOOOOOO@+@        ",
"           OOOOOOOOOO           ",
"           OOOOOOOOOO           ",
"           OOOOOOOOOO           ",
"           OOOOOOOOOO           ",
"           oooooooooo           ",
"           @+@+@+@+@+           ",
"                                ",
"                                ",
"                                ",
"                                ",
"           +@+@+@+@+@           ",
"           oooooooooo           ",
"           OOOOOOOOOO           ",
"           OOOOOOOOOO           ",
"           OOOOOOOOOO           ",
"           OOOOOOOOOO           ",
"        @+@OOOOOOOOOO+@+        ",
"        oooOOOOOOOOOOooo        ",
"        oooOOOOOOOOOOooo        ",
"    ........................    ",
"   ..........................   ",
"   ..........................   ",
"   ..XXXXXXXXXXXXXXXXXXXXXX..   ",
"   ..XXXXXXXXXXXXXXXXXXXXXX..   ",
"   ..XXXXXXXXXXXXXXXXXXXXXX..   ",
"   ..XXXXXXXXXXXXXXXXXXXXXX..   ",
"   ..........................   ",
"   ..........................   ",
"    ........................    ",
"        +@+OOOOOOOOOO@+@        ",
"           OOOOOOOOOO           ",
"           OOOOOOOOOO           ",
"           OOOOOOOOOO           ",
"           OOOOOOOOOO           ",
"           oooooooooo           ",
"           @+@+@+@+@+           ",
"                                ",
"                                ",
"                                ",
"                                ",
"                                ",
"                                ",
"                                ",
"                                ",
"           +@+@+@+@+@           ",
"           oooooooooo           ",
"           OOOOOOOOOO           ",
"           OOOOOOOOOO           ",
"           OOOOOOOOOO           ",
"           OOOOOOOOOO           ",
"        @+@OOOOOOOOOO+@+        ",
"    ........................    ",
"   ..........................   ",
"   ..........................   ",
"   ..XXXXXXXXXXXXXXXXXXXXXX..   ",
"   ..XXXXXXXXXXXXXXXXXXXXXX..   ",
"   ..XXXXXXXXXXXXXXXXXXXXXX..   ",
"   ..XXXXXXXXXXXXXXXXXXXXXX..   ",
"   ..........................   ",
"   ..........................   ",
"    ........................    ",
"        +@+OOOOOOOOOO@+@        ",
"           OOOOOOOOOO           ",
"           OOOOOOOOOO           ",
"           oooooooooo           ",
"           @+@+@+@+@+           ",
"                                ",
"                                ",
"                                ",
"                                ",
"                                ",
"                                ",
"                                ",
"                                ",
"                                ",
"                                ",
"                                ",
"                                ",
"           +@+@+@+@+@           ",
"           oooooooooo           ",
"           OOOOOOOOOO           ",
"           OOOOOOOOOO           ",
"        @+@OOOOOOOOOO+@+        ",
"    ........................    ",
"   ..........................   ",
"   ..........................   ",
"   ..XXXXXXXXXXXXXXXXXXXXXX..   ",
"   ..XXXXXXXXXXXXXXXXXXXXXX..   ",
"   ..XXXXXXXXXXXXXXXXXXXXXX..   ",
"   ..........................   ",
"   ..........................   ",
"    ........................    ",
"        +@+OOOOOOOOOO@+@        ",
"           oooooooooo           ",
"           @+@+@+@+@+           ",
"                                ",
"                                ",
"                                ",
"                                ",
"                                ",
"                                ",
"                                ",
"                                ",
"                                ",
"                                ",
"                                ",
"                                ",
"                                ",
"                                ",
"                                ",
"                                ",
"                                ",
"           +@+@+@+@+@           ",
"           oooooooooo           ",
"        @+@OOOOOOOOOO+@+        ",
"    ........................    ",
"   ..........................   ",
"   ..........................   ",
"   ..XXXXXXXXXXXXXXXXXXXXXX..   ",
"   ..XXXXXXXXXXXXXXXXXXXXXX..   ",
"   ..XXXXXXXXXXXXXXXXXXXXXX..   ",
"   ..XXXXXXXXXXXXXXXXXXXXXX..   ",
"   ..........................   ",
"   ..........................   ",
"    ........................    ",
"                                ",
"                                ",
"                                ",
"                                ",
"                                ",
"                                ",
"                                ",
"                                ",
"                                ",
"                                ",
"                                ",
"                                ",
"                                ",
"                                ",
"                                ",
"                                ",
"                                ",
"                                ",
"                                ",
"                                ",
"                                ",
"                                ",
"    ........................    ",
"   ..........................   ",
"   ..........................   ",
"   ..XXXXXXXXXXXXXXXXXXXXXX..   ",
"   ..XXXXXXXXXXXXXXXXXXXXXX..   "};
