/* XPM */
static char * Untitled_xpm[] = {
"15 15 2 1",
" 	c None",
".	c #9E9EFF",
"               ",
"               ",
"               ",
"               ",
"               ",
"               ",
"    .......    ",
"    .......    ",
"    .......    ",
"               ",
"               ",
"               ",
"               ",
"               ",
"               "};
