/* XPM */
static char * neg_xpm[] = {
"44 17 4 1",
" 	c None",
".	c #E0E0E0",
"+	c #FFFFFF",
"@	c #0000FF",
" .......................................... ",
"............................................",
"..                    +       +           ..",
"..                 +       +              ..",
".. ++   +   +++ +  ++ + +  ++ + ++   +++  ..",
".. + + +++ + + + + +  +  + +  + + + + +   ..",
".. + + +    +  + + +  + ++ +  + + +  +    ..",
".. + +  +  + +  +   + + ++  + + + + + +   ..",
"..          +                        +    ..",
"..                                        ..",
"..                                        ..",
"..@@@@@@@@@@@@@@@@@@@@@@@@@@@@@@@@@@@@@@@@..",
"..@@@@@@@@@@@@@@@@@@@@@@@@@@@@@@@@@@@@@@@@..",
"..@@@@@@@@@@@@@@@@@@@@@@@@@@@@@@@@@@@@@@@@..",
"..                                        ..",
"............................................",
" .......................................... "};
