/* XPM */
static char * map_xpm[] = {
"130 34 4 1",
" 	c None",
".	c #A289A289A289",
"X	c #FFFFFFFFFFFF",
"o	c #00000000FFFF",
"        ..........................................                                                                                ",
"        ..........................................                                                                                ",
"        ..                                      ..                                                                                ",
"        ..                                      ..                                                                                ",
"        ..                                      ..                                                                                ",
"        ..            X                         ..                                                                                ",
"        ..    XXX         X                     ..                                                                                ",
"        ..     X X X XX  XX  XXX X        oooo  ..                                                                                ",
"        ..     XX  XX X X X X X XXX        oo   ..                                                                                ",
"        ..     X X X  X X X  X  X          oo   ..                                                                                ",
"        ..    XXX  X  X  XX X X  X         oo   ..                                                                                ",
"        ..                   X             oo   ..                                                                                ",
"        ..                                 oo   ..                                                                                ",
"        ..                                 oo   ..                                                                                ",
"        ..                                 oo   ..                                                                                ",
"        ..                                 oo   ..                                                                                ",
"...........................................oo.....................................................................................",
"...........................................oo.....................................................................................",
"..                                         oo                                                                                   ..",
"..                                         oo                                                                                   ..",
"..                                         oo                                                                                   ..",
"..                                         oo                                                                                   ..",
"..                                         oo                            XX  XX    X  X                                         ..",
"..                                         oo                             X  X X X X  X                                         ..",
"..                                        oooo                            XXXX X X X  X                                         ..",
"..                                                                        X  X X X X  X                                         ..",
"..                                                                       XX  XX XX X  X                                         ..",
"..                                                                                                                              ..",
"..                                                                                                                              ..",
"..                                                                                                                              ..",
"..                                                                                                                              ..",
"..                                                                                                                              ..",
"..................................................................................................................................",
".................................................................................................................................."};
