/* XPM */
static char * nhawk_xpm[] = {
"203 30 8 1",
" 	c #000071C60000",
".	c #0000AEBA0000",
"X	c None",
"o	c #0000FFFF0000",
"O	c #0000C71B0000",
"+	c #0000DF7D0000",
"@	c #00008E380000",
"#	c #000051440000",
" ........ XXXXXXXXXX ... XXX ... XXXXXXXXXXXXXXXXXXXXXXXXXX ... XXXXXXXXXXXXXXXXXXXXXX ... XXXXXXXXXXXXX ... XXXXXXXXXXXXXXXXXXXXXXXXXXXXXXXXXXXXXXXXXXXXXXXXXXXXXXXXXXXXXXXXXXXXXXXXXXX ... XXXXXXXXXXXXXX",
".ooooooooOXXXXXXXXXX.ooo.XXX.ooo.XXXXXXXXXXXXXXXXXXXXXXXXXX.ooo.XXXXXXXXXXXXXXXXXXXXXX.ooo.XXXXXXXXXXXXX.ooo.XXXXXXXXXXXXXXXXXXXXXXXXXXXXXXXXXXXXXXXXXXXXXXXXXXXXXXXXXXXXXXXXXXXXXXXXXXX.ooo.XXXXXXXXXXXXXX",
".oooooooo+@XXXXXXXXX.ooo.XXX.ooo.XXXXXXXXXXXXXXXXXXXXXXXXXX.ooo.XXXXXXXXXXXXXXXXXXXXXX.ooo.XXXXXXXXXXXXX.ooo.XXXXXXXXXXXXXXXXXXXXXXXXXXXXXXXXXXXXXXXXXXXXXXXXXXXXXXXXXXXXXXXXXXXXXXXXXXX.ooo.XXXXXXXXXXXXXX",
".ooo+++oooOXXXXXXXXX.ooo.XXX.ooo.XXXXXXXXXXXXXXXXXXXXXXXXXX.ooo.XXXXXXXXXXXXXXXXXXXXXX.ooo.XXXXXXXXXXXXX.ooo.XXXXXXXXXXXXXXXXXXXXXXXXXXXXXXXXXXXXXXXXXXXXXXXXXXXXXXXXXXXXXXXXXXXXXXXXXXX.ooo.XXXXXXXXXXXXXX",
".oooOXOooo+@XXXXXXXX.ooo.XXX ... XXXXXXXXXXXXXXXXXXXXXXXXXX.ooo.XXXXXXXXXXXXXXXXXXXXXX.ooo.XXXXXXXXXXXXX.ooo.XXXXXXXXXXXXXXXXXXXXXXXXXXXXXXXXXXXXXXXXXXXXXXXXXXXXXXXXXXXXXXXXXXXXXXXXXXX.ooo.XXXXXXXXXXXXXX",
".ooo.X@+oooOXXXXXXXX.ooo.XXXXXXXXXXXXXXXXXXXXXXXXXXXXXXXXXX.ooo.XXXXXXXXXXXXXXXXXXXXXXOoooOXXXXXXXXXXXXX.ooo.XXXXXXXXXXXXXXXXXXXXXXXXXXXXXXXXXXXXXXXXXXXXXXXXXXXXXXXXXXXXXXXXXXXXXXXXXXX.ooo.XXXXXXXXXXXXXX",
".ooo.XXOooo+@XXXXXXX.ooo.XXXXXXXXXXXXX@..........@X@... XXX.oooOX@..........@XXXXX ..O+ooo+O........ XXX.oooOX@..........@XXXXXXX@..............@XXXXX ... XXXXXXX ..... XXXXXXX ... XXX.ooo.XXXXXX@...@#XX",
".ooo.XX@+oooOXXXXXXX.ooo.XXX ... XXXX.+oooooooooo+++ooo.XXX.ooo+++oooooooooo+.XXXX.ooooooooooooooooo.XXX.ooo+++oooooooooo+.XXXXX.+oooooooooooooo+.XXXX.ooo.XXXXXXX.ooooo.XXXXXXX.ooo.XXX.ooo.XXXXX.+oo+.XXX",
".ooo.XXXOooo+@XXXXXX.ooo.XXX.ooo.XXX@+ooooooooooooooooo.XXX.ooooooooooooooooo+@XXX.ooooooooooooooooo.XXX.ooooooooooooooooo+@XXX@+oooooooooooooooo+@XXX@+ooOXXXXXXXOoooooOXXXXXXXOoo+@XXX.ooo.XXXX.+oo+.XXXX",
".ooo.XXX@+oooOXXXXXX.ooo.XXX.ooo.XXX.oooo+O......O+oooo.XXX.oooo+O......O+oooo.XXX ..O+ooo+O........ XXX.oooo+O......O+oooo.XXX.oooo+O......O+oooo.XXXXOoo+@XXXXX@+ooooo+@XXXXX@+ooOXXXX.ooo.XXX.+oo+.XXXXX",
".ooo.XXXXOooo+@XXXXX.ooo.XXX.ooo.XXX.ooo+.XXXXXXXX.+ooo.XXX.ooo+.XXXXXXXX.+ooo.XXXXXXXOoooOXXXXXXXXXXXXX.ooo+.XXXXXXXX.+ooo.XXX.ooo+.XXXXXXXX.+ooo.XXXX.ooo.XXXXX.ooooooo.XXXXX.ooo.XXXX.ooo.XX.+oo+.XXXXXX",
".ooo.XXXX@+oooOXXXXX.ooo.XXX.ooo.XXX.oooOXXXXXXXXXXOooo.XXX.oooOXXXXXXXXXXOooo.XXXXXXX.ooo.XXXXXXXXXXXXX.oooOXXXXXXXXXXOooo.XXX ...@XXXXXXXXXXOooo.XXXX@+ooOXXXXXOoo+++ooOXXXXXOoo+@XXXX.oooOX.+oo+.XXXXXXX",
".ooo.XXXXXOooo+@XXXX.ooo.XXX.ooo.XXX.ooo.XXXXXXXXXX.ooo.XXX.ooo.XXXXXXXXXX.ooo.XXXXXXX.ooo.XXXXXXXXXXXXX.ooo.XXXXXXXXXX.ooo.XXXXXXXXXXXXXXXXXXOooo.XXXXXOoo+@XXX@+ooOXOoo+@XXX@+ooOXXXXX.ooo+++oo+.XXXXXXXX",
".ooo.XXXXX@+oooOXXXX.ooo.XXX.ooo.XXX.ooo.XXXXXXXXXX.ooo.XXX.ooo.XXXXXXXXXX.ooo.XXXXXXX.ooo.XXXXXXXXXXXXX.ooo.XXXXXXXXXX.ooo.XXXXX@...........O+ooo.XXXXX.ooo.XXX.ooo.X.ooo.XXX.ooo.XXXXX.ooooooooOXXXXXXXXX",
".ooo.XXXXXXOooo+@XXX.ooo.XXX.ooo.XXX.ooo.XXXXXXXXXX.ooo.XXX.ooo.XXXXXXXXXX.ooo.XXXXXXX.ooo.XXXXXXXXXXXXX.ooo.XXXXXXXXXX.ooo.XXXX.+oooooooooooooooo.XXXXX@+ooOXXXOoo+@X@+ooOXXXOoo+@XXXXX.ooooooooOXXXXXXXXX",
".ooo.XXXXXX@+oooOXXX.ooo.XXX.ooo.XXX.ooo.XXXXXXXXXX.ooo.XXX.ooo.XXXXXXXXXX.ooo.XXXXXXX.ooo.XXXXXXXXXXXXX.ooo.XXXXXXXXXX.ooo.XXX@+ooooooooooooooooo.XXXXXXOoo+@X@+ooOXXXOoo+@X@+ooOXXXXXX.ooo+++oo+.XXXXXXXX",
".ooo.XXXXXXXOooo+@XX.ooo.XXX.ooo.XXX.ooo.XXXXXXXXXX.ooo.XXX.ooo.XXXXXXXXXX.ooo.XXXXXXX.ooo.XXXXXXXXXXXXX.ooo.XXXXXXXXXX.ooo.XXX.oooo+O......O+oooo.XXXXXX.ooo.X.ooo.XXX.ooo.X.ooo.XXXXXX.oooOX.+oo+.XXXXXXX",
".ooo.XXXXXXX@+oooOXX.ooo.XXX.ooo.XXX.ooo.XXXXXXXXXX.ooo.XXX.ooo.XXXXXXXXXX.ooo.XXXXXXX.ooo.XXXXXXXXXXXXX.ooo.XXXXXXXXXX.ooo.XXX.ooo+.XXXXXXXX.+ooo.XXXXXX@+ooOXOoo+@XXX@+ooOXOoo+@XXXXXX.ooo.XX.+oo+.XXXXXX",
".ooo.XXXXXXXXOooo+@X.ooo.XXX.ooo.XXX.oooOXXXXXXXXXXOooo.XXX.ooo.XXXXXXXXXX.ooo.XXXXXXX.oooOXXXXX@... XXX.ooo.XXXXXXXXXX.ooo.XXX.ooo+XXXXXXXXXX+ooo.XXXXXXXOoo+++ooOXXXXXOoo+++ooOXXXXXXX.ooo.XXX.+oo+.XXXXX",
".ooo.XXXXXXXX@+oooOXOooo.XXX.ooo.XXX.ooo+.XXXXXXXX.+ooo.XXX.ooo.XXXXXXXXXX.ooo.XXXXXXX.ooo+.XXX.+ooo.XXX.ooo.XXXXXXXXXX.ooo.XXX.ooo+.XXXXXXXX.+ooo.XXXXXXX.ooooooo.XXXXX.ooooooo.XXXXXXX.ooo.XXXX.+oo+.XXXX",
".ooo.XXXXXXXXXOooo+++ooo.XXX.ooo.XXX.oooo+O......O+oooo.XXX.ooo.XXXXXXXXXX.ooo.XXXXXXX.oooo+O.O+oooo.XXX.ooo.XXXXXXXXXX.ooo.XXX.oooo+O......O+oooo.XXXXXXX@+ooooo+@XXXXX@+ooooo+@XXXXXXX.ooo.XXXXX.+oo+.XXX",
".ooo.XXXXXXXXX@+oooooooo.XXX.ooo.XXX@+ooooooooooooooooo.XXX.ooo.XXXXXXXXXX.ooo.XXXXXXX@+ooooooooooo+@XXX.ooo.XXXXXXXXXX.ooo.XXX@+ooooooooooooooooo.XXXXXXXXOoooooOXXXXXXXOoooooOXXXXXXXX.ooo.XXXXXX.+oo+.XX",
".ooo.XXXXXXXXXXOoooooooo.XXX.ooo.XXXX.+oooooooooo+++ooo.XXX.ooo.XXXXXXXXXX.ooo.XXXXXXXX.+ooooooooo+.XXXX.ooo.XXXXXXXXXX.ooo.XXXX.+oooooooooo+++ooo.XXXXXXXX.ooooo.XXXXXXX.ooooo.XXXXXXXX.ooo.XXXXXXX.+oo+.X",
" ... XXXXXXXXXX ........ XXX ... XXXXX@..........@XOooo.XXX ... XXXXXXXXXX ... XXXXXXXXX@.........@XXXXX ... XXXXXXXXXX ... XXXXX@..........@X@... XXXXXXXX ..... XXXXXXX ..... XXXXXXXX ... XXXXXXXX@...@#",
"XXXXXXXXXXXXXXXXXXXXXXXXXXXXXXXXXXXXXXXXXXXXXXXXXXXOooo.XXXXXXXXXXXXXXXXXXXXXXXXXXXXXXXXXXXXXXXXXXXXXXXXXXXXXXXXXXXXXXXXXXXXXXXXXXXXXXXXXXXXXXXXXXXXXXXXXXXXXXXXXXXXXXXXXXXXXXXXXXXXXXXXXXXXXXXXXXXXXXXXXXX",
"XXXXXXXXXXXXXXXXXXXXXXXXXXXXXXXXXXXX ...@XXXXXXXXX.+ooo.XXXXXXXXXXXXXXXXXXXXXXXXXXXXXXXXXXXXXXXXXXXXXXXXXXXXXXXXXXXXXXXXXXXXXXXXXXXXXXXXXXXXXXXXXXXXXXXXXXXXXXXXXXXXXXXXXXXXXXXXXXXXXXXXXXXXXXXXXXXXXXXXXXX",
"XXXXXXXXXXXXXXXXXXXXXXXXXXXXXXXXXXXX.ooo+O.......O+oooo.XXXXXXXXXXXXXXXXXXXXXXXXXXXXXXXXXXXXXXXXXXXXXXXXXXXXXXXXXXXXXXXXXXXXXXXXXXXXXXXXXXXXXXXXXXXXXXXXXXXXXXXXXXXXXXXXXXXXXXXXXXXXXXXXXXXXXXXXXXXXXXXXXXX",
"XXXXXXXXXXXXXXXXXXXXXXXXXXXXXXXXXXXX@+oooooooooooooooo+@XXXXXXXXXXXXXXXXXXXXXXXXXXXXXXXXXXXXXXXXXXXXXXXXXXXXXXXXXXXXXXXXXXXXXXXXXXXXXXXXXXXXXXXXXXXXXXXXXXXXXXXXXXXXXXXXXXXXXXXXXXXXXXXXXXXXXXXXXXXXXXXXXXX",
"XXXXXXXXXXXXXXXXXXXXXXXXXXXXXXXXXXXXX.+oooooooooooooo+.XXXXXXXXXXXXXXXXXXXXXXXXXXXXXXXXXXXXXXXXXXXXXXXXXXXXXXXXXXXXXXXXXXXXXXXXXXXXXXXXXXXXXXXXXXXXXXXXXXXXXXXXXXXXXXXXXXXXXXXXXXXXXXXXXXXXXXXXXXXXXXXXXXXX",
"XXXXXXXXXXXXXXXXXXXXXXXXXXXXXXXXXXXXXX@..............@XXXXXXXXXXXXXXXXXXXXXXXXXXXXXXXXXXXXXXXXXXXXXXXXXXXXXXXXXXXXXXXXXXXXXXXXXXXXXXXXXXXXXXXXXXXXXXXXXXXXXXXXXXXXXXXXXXXXXXXXXXXXXXXXXXXXXXXXXXXXXXXXXXXXX"};
