/* XPM */
static char * s_xpm[] = {
"40 280 4 1",
" 	c None",
".	c #FFFF0C303CF3",
"X	c #FFFFCF3C0C30",
"o	c #FFFFFFFF0C30",
"                   ..                   ",
"                   ..                   ",
"                  ....                  ",
"                  ....                  ",
"                 ......                 ",
"                 ......                 ",
"                ........                ",
"                ....X...                ",
"               ....XX....               ",
"               ....XXX...               ",
"              ....XXXX....              ",
"              ...XXXoXX...              ",
"             ....XXooXX....             ",
"            .....XXoooXX....            ",
"          ......XXooooXX......          ",
"        .......XXXo..ooXX.......        ",
"      .......XXXXoo..ooXXX........      ",
"    .......XXXXooo.XX.oooXXXX.......    ",
"  .......XXXXoooo..oo..oooXXXX........  ",
".......XXXXoooo..XooooX..ooooXXX........",
".......XXXXXooo..XXooXX..ooooXXXXX......",
"  .......XXXXXooo..oX.ooooXXXXX.......  ",
"    .......XXXXXoo.XXoooXXXXXX......    ",
"      .......XXXXoo..ooXXXX.......      ",
"        .......XXXo.ooXXX.......        ",
"          ......XXooooXX......          ",
"            ....XXXooXXX....            ",
"             ....XXooXX....             ",
"              ...XXoXXX...              ",
"              ....XXXX....              ",
"               ...XXXX...               ",
"               ....XX....               ",
"                ...XX...                ",
"                ........                ",
"                 ......                 ",
"                 ......                 ",
"                  ....                  ",
"                  ....                  ",
"                   ..                   ",
"                   ..                   ",
"                                        ",
"                                        ",
"           .                            ",
"           ..                           ",
"           ....                         ",
"           .....                        ",
"           ......                       ",
"           .........                    ",
"           ...X......                   ",
"          ....XXX.....                  ",
"           ...XXX....... .      .       ",
"          ....XXXXX...................  ",
"          ....XXoXXX..................  ",
"           ..XXooooXX................   ",
"          ....XXoooXXX.X.XXX.........   ",
"           ...XXoooooXXXXXXXXXXXX..     ",
"          ....XXo..oooooooooXX...       ",
"         ....XXooXXX....oooXXX....      ",
"         ....XXXo.oooX..ooXXX...        ",
"        ...XXooo..ooXXoooXX.....        ",
"       .....XXoooXooo.ooXXXX...         ",
"       ...XXoo...XXoXooXXX....          ",
"      .....XXoo.....XXooXX....          ",
"      ...XXoooooooo...oXX....           ",
"     ....XXXXoXoXXooo.ooXX....          ",
"    ....XXXXXXXXXXXXoooXX....           ",
"   ......X.X.X.X.XXXXXooXX....          ",
"   ................XXXoXX...            ",
" ...................XXoXXX...           ",
"      .      . .......XXX...            ",
"                 .....XXX....           ",
"                    ....XX...           ",
"                    .........           ",
"                      .......           ",
"                       .....            ",
"                        ......          ",
"                         ....           ",
"                           ..           ",
"                                        ",
"                                        ",
"                                        ",
"                                        ",
"                                        ",
"                                        ",
"                                        ",
"                                        ",
"                                        ",
"       .                        .       ",
"       ......              ......       ",
"        .......          .......        ",
"        ..........    ..........        ",
"         ......................         ",
"         ...XXXXX......XXXXX...         ",
"        .....XXXXXX....XXXX.....        ",
"          ...XXooXXXXXXXooX...          ",
"         ....XXooooXXooooXXX...         ",
"          ...XXooooooooooXX...          ",
"          ....Xo........oX....          ",
"          .....o..X..X..XXX...          ",
"           ....oo.oooXooX....           ",
"           ....oo.oooXooX....           ",
"          ...XXo..X..X..XXX...          ",
"          ....Xo.......ooX....          ",
"          ...XXooooooooooXX...          ",
"         ....XXoooXXXXoooXX....         ",
"          ...XooXXXXXXXXXXX...          ",
"        .....XXXXXX..XXXXXX.....        ",
"        ....X..............X....        ",
"         ......................         ",
"        ..........    ..........        ",
"        .......          .......        ",
"       ......              ......       ",
"       ....                   ...       ",
"                                        ",
"                                        ",
"                                        ",
"                                        ",
"                                        ",
"                                        ",
"                                        ",
"                                        ",
"                                        ",
"                                        ",
"                                        ",
"                                        ",
"                                        ",
"                                        ",
"                                        ",
"                        ...             ",
"                        ...             ",
"                     .......            ",
"                    .....X.             ",
"                  . ....X...            ",
"       ..............XXXXX..            ",
"        .............XooXX.             ",
"        ....X.XX....XXooXX.             ",
"          ....Xoooooo...XX..            ",
"          ...XXooooo...oX..             ",
"           ...XXo.XooXooX...            ",
"            ...XXoXooo.oXXX...          ",
"            ...XXo.ooXXoXX...           ",
"            ....Xo.XX.o.ooXX...         ",
"              ..XX...oooooXXX..         ",
"              ..XooooXXXXXoXX...        ",
"              .XXooXX....X..X....       ",
"              ..XoXXX............       ",
"             ...XX.....                 ",
"             ..XX....                   ",
"             ...X...                    ",
"              ....                      ",
"             ....                       ",
"             ...                        ",
"                                        ",
"                                        ",
"                                        ",
"                                        ",
"                                        ",
"                                        ",
"                                        ",
"                                        ",
"                                        ",
"                                        ",
"                                        ",
"                                        ",
"                                        ",
"                                        ",
"                                        ",
"                                        ",
"                                        ",
"                                        ",
"                   .                    ",
"                  ..                    ",
"                  ...                   ",
"                 ..X..                  ",
"                ..XX..                  ",
"                ..XoX..                 ",
"              ...XooX...                ",
"            ....XXo.oX....              ",
"          ....XXoo.o.oXX....            ",
"         ....XXoo.XoX.ooXX...           ",
"           ....XXo.XoXXX...             ",
"             ....XooXX...               ",
"               ..XXoX..                 ",
"                ..XXX.                  ",
"                 .XX..                  ",
"                 ..X.                   ",
"                  ...                   ",
"                  ..                    ",
"                   .                    ",
"                                        ",
"                                        ",
"                                        ",
"                                        ",
"                                        ",
"                                        ",
"                                        ",
"                                        ",
"                                        ",
"                                        ",
"                                        ",
"                                        ",
"                                        ",
"                                        ",
"                                        ",
"                                        ",
"                                        ",
"                                        ",
"                                        ",
"                                        ",
"                                        ",
"                                        ",
"                                        ",
"                                        ",
"                                        ",
"                .                       ",
"                ..                      ",
"                .X..                    ",
"                .XX.......              ",
"                .XoX.XX...              ",
"                .XoX.oX..               ",
"               ..ooooXX.                ",
"               .ooo.o..                 ",
"              ..X..XoX.                 ",
"                  ..X..                 ",
"                    ...                 ",
"                     ..                 ",
"                                        ",
"                                        ",
"                                        ",
"                                        ",
"                                        ",
"                                        ",
"                                        ",
"                                        ",
"                                        ",
"                                        ",
"                                        ",
"                                        ",
"                                        ",
"                                        ",
"                                        ",
"                                        ",
"                                        ",
"                                        ",
"                                        ",
"                                        ",
"                                        ",
"                                        ",
"                                        ",
"                                        ",
"                                        ",
"                                        ",
"                                        ",
"                                        ",
"                                        ",
"                                        ",
"                                        ",
"                 ......                 ",
"                 .oXXo.                 ",
"                 .XXXX.                 ",
"                 .XoXX.                 ",
"                 .oXXo.                 ",
"                .X....X.                ",
"                ..    ..                ",
"                                        ",
"                                        ",
"                                        ",
"                                        ",
"                                        ",
"                                        ",
"                                        ",
"                                        ",
"                                        ",
"                                        ",
"                                        ",
"                                        ",
"                                        ",
"                                        ",
"                                        ",
"                                        "};
