/* XPM */
static char * flr_pattern2_cyan_xpm[] = {
"32 32 2 1",
" 	c #00007DF77DF7",
".	c #B000B000B000",
"                                ",
"                                ",
"   ..........................   ",
"  .............  .............  ",
"  .............  .............  ",
"  .............  .............  ",
"  .............  .............  ",
"  .............  .............  ",
"  .............  .............  ",
"  .............  .............  ",
"  ............................  ",
"  ............................  ",
"  ............................  ",
"  ............................  ",
"  ............................  ",
"  .       .....  .....       .  ",
"  .       .....  .....       .  ",
"  ............................  ",
"  ............................  ",
"  ............................  ",
"  ............................  ",
"  ............................  ",
"  .............  .............  ",
"  .............  .............  ",
"  .............  .............  ",
"  .............  .............  ",
"  .............  .............  ",
"  .............  .............  ",
"  .............  .............  ",
"   ..........................   ",
"                                ",
"                                "};
