/* XPM */
static char * paused_xpm[] = {
"128 32 9 1",
" 	c None",
".	c #3C3C0C",
"+	c #6D6D3C",
"@	c #CFCF6D",
"#	c #FFFF6D",
"$	c #CFCF3C",
"%	c #0C0C0C",
"&	c #9E9E3C",
"*	c #181818",
"   .+.   +  .                                                                                                                   ",
" +@###$% #%&#@%                                               .                                                                 ",
" &++###& ######.                                              #+                                                                ",
"    .##@&#.&####.                                 .*          ##@.                                                              ",
"    .###+#  .###@%                                @@          ####+                                                             ",
"    .### #   .###.    %+*       .    .%      .+%  .@    *.    %&###@.                                                           ",
"   %&### #    ###+  .&###@+&  %&#&% +#@.    +###&+@.   +##.     .####++.                                                        ",
"  .$+### #*  %@##+  +&@####+  &###+%###$  %$######&  .$####.   +@#$####.                                                        ",
"%&#+.### #@$$@@##+  %+ *&##.  %$##  +##.  .##.++$@%  +##+##@%  ##$ .@##.                                                        ",
".###@### # %% $##+   +  +##.   $##  +##.  .##. %#.   +##..##+  ##$  +##.                                                        ",
" *$##### #    $##+  %@&.+##.   $##  +##.  .##. &#+   +##.*$+   ##$  +##.                                                        ",
"   $#### #&@@$@##+  &&*&###.   $##  +##.  .###&###@* +##&@.    ##$  +##.                                                        ",
"   *#### #*  *@##+ +#+  +##.   $##  +##.  %&###+@##. +##$%     ##$  +##.                                                        ",
"    &### #    $##+ @#.  +##.   $##  +##.    .#+ .##. +##.      ##$  +##.                                                        ",
"    .### #.   $##+ ##+  +##.   $##  +##.    +&  .##. +##.      ##$  +##.                                                        ",
"  .&#### ###&.$##+ ##@%.###.   $## .@##.   *@++*.##. +##+  *. %##@. +##.                                                        ",
" +###### #######&  ###$#&##$.  &##$@&##@+  &####@##. &###@&$% +#####@##.                                                        ",
"&##$@### ######+   +##@%.##&   +##&%*###. .######$.  &@###&    *+####+%                                                         ",
"&.  .### #*+$#.     &&   &&     &+   +@%  &+..+@+      .@.        &$*                                                           ",
"    .### #   %                                                                                                                  ",
"    .### #                                                                                                                      ",
"    .###$#                                                                                                                      ",
"    %.....                                                                                                                      ",
"                                                                                                                                ",
"                                                                                                                                ",
"                                                                                                                                ",
"                                                                                                                                ",
"                                                                                                                                ",
"                                                                                                                                ",
"                                                                                                                                ",
"                                                                                                                                ",
"                                                                                                                                "};
