/* XPM */
static char * map_xpm[] = {
"226 82 4 1",
" 	c None",
".	c #A000A000A000",
"X	c #FFFFFFFFFFFF",
"o	c #00000000FFFF",
"                                 ................................................                                                ................................................................................                 ",
"                                ..................................................                                              ..................................................................................                ",
"                                ..                                              ..                                              ..                                                                              ..                ",
"                                ..                                              ..                                              ..                                                                              ..                ",
"                                ..                                              ..                                              ..                                                                              ..                ",
"                                ..                                              ..                                              ..                                                                              ..                ",
"                                ..                    X                         ..                                              ..                                                                              ..                ",
"                                ..            XXX         X                     ..                                              ..       XXX            X                                                       ..                ",
"                                ..     oooo    X X X XX  XX  XXX X              ..                                              ..      X   X X X X  X XXX  X  X XXX                           oooo             ..                ",
"                                ..      oo     XX  XX X X X X X XXX             ..                                              ..      X   X X X  X XX X  XXX XX X                             oo              ..                ",
"                                ..      oo     X X X  X X X  X  X               ..                                              ..      X   X X X XX X  X  X   X   X                            oo              ..                ",
"                                ..      oo    XXX  X  X  XX X X  X              ..                                              ..       XXX   XX XX X   X  X  X  XX                            oo              ..                ",
"                                ..      oo                   X                  ..                                              ..        X                                                     oo              ..                ",
"                                ..      oo                                      ..                                              ..         X                                                    oo              ..                ",
"                                ..      oo                                      ..                                              ..                                                              oo              ..                ",
"                                ..      oo                                      ..                                              ..                                                              oo              ..                ",
" .......................................oo......................................................................................................................................................oo............................... ",
"........................................oo......................................................................................................................................................oo................................",
"..                                      oo                                                                                                                                                      oo                              ..",
"..                                      oo                                                                                                                                                      oo                              ..",
"..                                      oo                                                                                                                                                      oo                              ..",
"..                                      oo                                                                                                                                                      oo                              ..",
"..                                      oo                                                                                                                                                      oo                              ..",
"..                                      oo                                 XXX                 X                                                                                                oo                              ..",
"..                                     oooo                               X   X X  X X XXX X  XX                                                                                               oooo                             ..",
"..                                      oo                                X      X XX X X X X  X                                                                                                oo                              ..",
"..                                      oo                                X   X XX X   X  X X  X                                                                                                oo                              ..",
"..                                      oo                                 XXX  XX X  X X  X  XXX                                                                                               oo                              ..",
"..                                      oo                                             X                                                                                                        oo                              ..",
"..                                      oo                                                                                                                                                      oo                              ..",
"..                                      oo                                                                                                                                                      oo                              ..",
"..                                      oo                                                                                                                                                      oo                              ..",
"........................................oo......................................................................................................................................................oo................................",
" .......................................oo......................................................................................................................................................oo................................",
"                ..                      oo                                                                                                                                                      oo                              ..",
"                ..                      oo                                                                                                                                                      oo                              ..",
"                ..                      oo                                                                                                                                                      oo                              ..",
"                ..                      oo                                                                                                                                                      oo                              ..",
"                ..                      oo                                                                                                                                                      oo                              ..",
"                ..                      oo                                  XXX                XX                                                                                               oo                              ..",
"                ..                      oo                                 X   X X  X X XXX X    X                                                     oooo                                     oo                              ..",
"                ..                     oooo                                X      X XX X X X X  X                                                       oo                                     oooo                             ..",
"                ..                                                         X   X XX X   X  X X X                                                        oo                                                                      ..",
"                ..                                                          XXX  XX X  X X  X  XXX                                                      oo                                                                      ..",
"                ..                                                                      X                                                               oo                                                                      ..",
"                ..                                                                                                                                      oo                                                                      ..",
"                ..                                                                                                                                      oo                                                                      ..",
"                ..                                                                                                                                      oo                                                                      ..",
"                ........................................................................................................................................oo........................................................................",
"                 .......................................................................................................................................oo....................................................................... ",
"                                                                ..                                                                                      oo                                      ..                                ",
"                                                                ..                                                                                      oo                                      ..                                ",
"                                                                ..                                                                                      oo                                      ..                                ",
"                                                                ..                                                                                      oo                                      ..                                ",
"                                                                ..                                                                                      oo                                      ..                                ",
"                                                                ..           XXX                XX                                                      oo                                      ..                                ",
"                                                                ..          X   X X  X X XXX X    X                                                     oo                                      ..                                ",
"                                                                ..          X      X XX X X X X  X                                                     oooo                                     ..                                ",
"                                                                ..          X   X XX X   X  X X   X                                                     oo                                      ..                                ",
"                                                                ..           XXX  XX X  X X  X  XX                                                      oo                                      ..                                ",
"                                                                ..                       X                                                              oo                                      ..                                ",
"                                                                ..                                                                                      oo                                      ..                                ",
"                                                                ..                                                                                      oo                                      ..                                ",
"                                                                ..                                                                                      oo                                      ..                                ",
"                                                                ........................................................................................oo........................................                                ",
"                                                                 .......................................................................................oo.......................................                                 ",
"                                                                                                                ..                                      oo                      ..                                                ",
"                                                                                                                ..                                      oo                      ..                                                ",
"                                                                                                                ..                                      oo                      ..                                                ",
"                                                                                                                ..                                      oo                      ..                                                ",
"                                                                                                                ..                   X                  oo  X                   ..                                                ",
"                                                                                                                ..      XXXX                            oo                      ..                                                ",
"                                                                                                                ..       X   XX   XXXX XX   X   X  X X  oo  X XX   XXX          ..                                                ",
"                                                                                                                ..       XX  X X X X X X X XXX XXX XX  oooo X X X X X           ..                                                ",
"                                                                                                                ..       X   X X  X  X X X X   X   X        X X X  X            ..                                                ",
"                                                                                                                ..      XXXX X X X X X X X  X   X  X        X X X X X           ..                                                ",
"                                                                                                                ..                X                                X            ..                                                ",
"                                                                                                                ..                                                              ..                                                ",
"                                                                                                                ..                                                              ..                                                ",
"                                                                                                                ..                                                              ..                                                ",
"                                                                                                                ..................................................................                                                ",
"                                                                                                                .................................................................                                                 "};
