/* XPM */
static char * credit_3_xpm[] = {
"185 18 7 1",
" 	c #000000000000",
".	c #000041030000",
"X	c #000049240000",
"o	c #000059650000",
"O	c #000069A60000",
"+	c #00008E380000",
"@	c #0000FFFF0000",
"     .......                                          .                       ..   .                                            .             ..   .                                     ",
"    .XXXXXXX.                   ..                   .X.                     .XX. .X.   ..                                     .X.           .XX. .X.                   ..               ",
"   .XoooooooX..    .  ......   .XX.   ......        .XoX....  ..   .        .XooX.XoX. .XX.   ......  ......  ......  ......  .XoX.         .XooX.XoX.......  ......   .XX.   ......     ",
"  .XoOOOOOOOoXX.  .X..XXXXXX. .XooX. .XXXXXX.      .XoOoXXXX..XX. .X.      .XoOOoXoOoX.XooX. .XXXXXX..XXXXXX..XXXXXX..XXXXXX..XoOoX.       .XoOOoXoOoXXXXXXX..XXXXXX. .XooX. .XXXXXX.    ",
" .XoO+++++++OooX..XoXXooooooX.XoOOoX.XooooooX.    .XoO+OooooXXooX.XoX.    .XoO++OoO+OoXoOOoX.XooooooXXooooooXXooooooXXooooooXXoO+OoX.     .XoO++OoO+OoooooooXXooooooX.XoOOoX.XooooooX.   ",
".XoO+@@@@@@@+OOoXXoOooOOOOOOoXoO++OoXoOOOOOOoX.  .XoO+@+OOOOooOOoXoOoX.  .XoO+@@+O+@+OoO++OoXoOOOOOOooOOOOOOooOOOOOOooOOOOOOooO+@+OoX.   .XoO+@@+O+@+OOOOOOOooOOOOOOoXoO++OoXoOOOOOOoX.  ",
".XoO+@++@++@+O+OooO+OO++++++OoO+@@+OoO++++++OoX. .XoO+@+++++OO++OoO+OoX. .XoO+@@+O+@+OO+@@+OoO++++++OO++++++OO++++++OO++++++OO++@++OoX.  .XoO+@@+O+@+O++++++OO++++++OoO+@@+OoO++++++OoX. ",
".XoO+@++@++@++@+OO+@++@@@@@@+OoO++OoO+@@@@@@+OoX..XoO+@@@@@@++@@+O+@+OoX..XoO+@@+O+@+OoO++OoO+@@@@@@++@@@@@@++@@@@@@++@@@@@@++@@@@@+OoX. .XoO+@@+O+@++@@@@@@++@@@@@@+OoO++OoO+@@@@@@+OoX.",
".XoO+@@+@++@++@+OO+@++@+++++OoO+@+OoO+@++++@+OoX..XoO+@++++@++@@+O+@+OoX. .XoO+@+O+@+OO+@+OoO+@++++@++@++++@++@++++@++@++++@+O++@++OoX.   .XoO+@+O+@++@++++@++@++++@+OO+@+OoO+@+++++OoX. ",
".XoO+@@+@++@++@@+O+@++@@@@@@+OO+@@+OO+@@+OO+OoX. .XoO+@@+O+@++@@+++@+OoX. .XoO+@++@+OoO+@@+OO+@@+O+@++@@+OO+O+@@@@@@++@@+O+@+OO+@@+OoX.   .XoO+@++@+O+@@+O+@++@@+O+@+OO+@@+OO+@@@@@@+OoX.",
".XoO+@@+@++@++@@+++@+O++++@@+OO+@@+OO+@@+++@+OoX..XoO+@@+++@++@@@@@@+OoX. .XoO+@++@+OoO+@@+OO+@@+O+@++@@+++@++@@++++O+@@+O+@+OO+@@+OoX.   .XoO+@++@+O+@@+++@++@@+++@+OO+@@+OoO++++@@+OoX.",
".XoO+@@+@++@++@@@@@@++@@@@@@+OO+@@+OO+@@@@@@+OoX..XoO+@@@@@@+O+++++@+OoX. .XoO+@@@@+OoO+@@+OO+@@+O+@++@@@@@@++@@@@@@++@@+O+@+OO+@@+OoX.   .XoO+@@@@+O+@@@@@@++@@@@@@+OO+@@+OO+@@@@@@+OoX.",
" .XoO++O+OO+OO++++++OO++++++OooO++OooO++++++OoX.  .XoO++++++O+@@@@@@+OoX.  .XoO++++OoXoO++OooO++OoO+OO++++++OO++++++OO++OoO+OooO++OoX.     .XoO++++OoO++++++OO++++++OooO++OooO++++++OoX. ",
"  .XoOOoOooOooOOOOOOooOOOOOOoXXoOOoXXoOOOOOOoX.    .XoOOOOOOoO++++++OoX.    .XoOOOOoX.XoOOoXXoOOoXoOooOOOOOOooOOOOOOooOOoXoOoXXoOOoX.       .XoOOOOoXoOOOOOOooOOOOOOoXXoOOoXXoOOOOOOoX.  ",
"   .XooXoXXoXXooooooXXooooooX..XooX..XooooooX.      .XooooooXoOOOOOOoX.      .XooooX. .XooX..XooX.XoXXooooooXXooooooXXooX.XoX..XooX.         .XooooX.XooooooXXooooooX..XooX..XooooooX.   ",
"    .XX.X..X..XXXXXX..XXXXXX.  .XX.  .XXXXXX.        .XXXXXX.XooooooX.        .XXXX.   .XX.  .XX. .X..XXXXXX..XXXXXX..XX. .X.  .XX.           .XXXX. .XXXXXX..XXXXXX.  .XX.  .XXXXXX.    ",
"     .. .  .  ......  ......    ..    ......          ...... .XXXXXX.          ....     ..    ..   .  ......  ......  ..   .    ..             ....   ......  ......    ..    ......     ",
"                                                              ......                                                                                                                     "};
