/* XPM */
static char * laser_te_xpm[] = {
"15 60 2 1",
" 	c None",
".	c #FFFFFFFF3CF3",
"               ",
"               ",
"               ",
"               ",
"     .....     ",
"  ...........  ",
"...............",
"...............",
"...............",
"  ...........  ",
"     .....     ",
"               ",
"               ",
"               ",
"               ",
"      ...      ",
"      ...      ",
"     .....     ",
"     .....     ",
"     .....     ",
"    .......    ",
"    .......    ",
"    .......    ",
"    .......    ",
"    .......    ",
"     .....     ",
"     .....     ",
"     .....     ",
"      ...      ",
"      ...      ",
"               ",
"  ..           ",
" .....         ",
" .......       ",
"  .......      ",
"  ........     ",
"   ........    ",
"   ........    ",
"    ........   ",
"     .......   ",
"      .......  ",
"        .....  ",
"          ..   ",
"               ",
"               ",
"               ",
"               ",
"          ..   ",
"        .....  ",
"      .......  ",
"     .......   ",
"    ........   ",
"   ........    ",
"   ........    ",
"  ........     ",
"  .......      ",
" .......       ",
" .....         ",
"  ..           ",
"               "};
