/* XPM */
static char * power_xpm[] = {
"32 160 8 1",
" 	c #FFFF9E793CF3",
".	c #00007DF77DF7",
"X	c #FFFFCF3C3CF3",
"o	c #000069A669A6",
"O	c #FFFF3CF3FFFF",
"+	c #CF3C3CF3FFFF",
"@	c #9E793CF3FFFF",
"#	c #0C309E79FFFF",
"            ........XXXXXXXXXXXX",
"         ...oooooooo...XXXXXXXXX",
"       ..oooooooooooooo..XXXXXXX",
"      .oooooooooooooooooo.XXXXXX",
"     .oooooooooooooooooooo.XXXXX",
"    .oooooooooooooooooooooo.XXXX",
"   .oooooooooooooooooooooooo.XXX",
"  .ooooooooooooO+oooo@@@ooooo.XX",
"  .oooooo@#oooo++oooo@#@ooooo.XX",
" .ooooooo@@oooo++oooo@@@oooooo.X",
" .oooooooooooooooooooooooooooo.X",
" .oooooooooooooooooooooooooooo.X",
".oooooooooooooooooooooooooooooo.",
".oooooooooooooooooooooooooooooo.",
".oooooooooooooooooooooooooooooo.",
".oooooooooooooooooooooooooooooo.",
".oooooooooooooooooooooooooooooo.",
".oooooooooooooooooooooooooooooo.",
".oooooooooooooooooooooooooooooo.",
".oooooooooooooooooooo@@oooooooo.",
" .ooooo@@oooooooooooo@#ooooooo. ",
" .ooooo@#oooooooooooo@@ooooooo. ",
" .ooooo@@oooooo++ooooooooooooo. ",
"  .oooooooooooo++oooooooooooo.  ",
"  .oooooooooooo+Ooooooooooooo.  ",
"   .oooooooooooooooooooooooo.   ",
"    .oooooooooooooooooooooo.    ",
"     .oooooooooooooooooooo.     ",
"      .oooooooooooooooooo.      ",
"       ..oooooooooooooo..       ",
"         ...oooooooo...         ",
"            ........            ",
"            ........            ",
"         ...oooooooo...         ",
"       ..oooooooooooooo..       ",
"      .oooooooooooooooooo.      ",
"     .oooooooooooooooooooo.     ",
"    .oooooooooooooooooooooo.    ",
"   .oooooooooooooooooooooooo.   ",
"  .oooooooooooooooooooooooooo.  ",
"  .oooooooo@@oooooooooooooooo.  ",
" .ooooooooo@#oooooooooo@@ooooo. ",
" .ooooooooo@@oooooooooo#@ooooo. ",
" .ooooooooooooooooooooo@@ooooo. ",
".oooooooooooooooo++oooooooooooo.",
".oooooooooooooooo+Ooooooooooooo.",
".oooooooooooooooo++oooooooooooo.",
".oooooooooooooooooooooooooooooo.",
".oooooooooooooooooooooooooooooo.",
".oooooooooooooooooooooooooooooo.",
".ooooooo@#@oooooooooooooooooooo.",
".ooooooo@@@oooooooooooooooooooo.",
" .oooooooooooo+++ooooooooooooo.X",
" .oooooooooooo+O+oo@@ooooooooo.X",
" .ooooooooooooooooo@#ooooooooo.X",
"  .oooooooooooooooo@@oooooooo.XX",
"  .oooooooooooooooooooooooooo.XX",
"   .oooooooooooooooooooooooo.XXX",
"    .oooooooooooooooooooooo.XXXX",
"     .oooooooooooooooooooo.XXXXX",
"      .oooooooooooooooooo.XXXXXX",
"       ..oooooooooooooo..XXXXXXX",
"         ...oooooooo...XXXXXXXXX",
"            ........XXXXXXXXXXXX",
"            ........            ",
"         ...oooooooo...         ",
"       ..oooooooooooooo..       ",
"      .oooooooooooooooooo.      ",
"     .oooooooooooooooooooo.     ",
"    .oooooooooooooooooooooo.    ",
"   .oooooooooooooooooooooooo.   ",
"  .oooooooooooooooooooooooooo.  ",
"  .oooooooooooooooooooooooooo.  ",
" .oooooooooooo@@@ooooooooooooo. ",
" .oooooooooooo@#@ooooooooooooo. ",
" .oooooooooooo@@@ooooooooooooo. ",
".oooooooooooooooooooooooooooooo.",
".ooooooooooooooooooooo@@ooooooo.",
".oooooooooooooooo++ooo#@ooooooo.",
".ooooooooooooo++++Oooo@@ooooooo.",
".oooooo@#ooooo+O+oooooooooooooo.",
".oooooo@@ooooo+++oooooooooooooo.",
".oooooooooooooooooooooooooooooo.",
".oooooooooooooooooooooooooooooo.",
"X.oooooooooooooooooooooooooooo. ",
"X.oooooooooooooooooooooooooooo. ",
"X.oooooooooooooooooooooooooooo. ",
"XX.ooooooooooo@@@oooooooooooo.  ",
"XX.ooooooooooo@#@oooooooooooo.  ",
"XXX.oooooooooo@@@ooooooooooo.   ",
"XXXX.oooooooooooooooooooooo.    ",
"XXXXX.oooooooooooooooooooo.     ",
"XXXXXX.oooooooooooooooooo.      ",
"XXXXXXX..oooooooooooooo..       ",
"XXXXXXXXX...oooooooo...         ",
"XXXXXXXXXXXX........            ",
"XXXXXXXXXXXX........            ",
"XXXXXXXXX...oooooooo...         ",
"XXXXXXX..oooooooooooooo..       ",
"XXXXXX.oooooooooooooooooo.      ",
"XXXXX.oooooooooooooooooooo.     ",
"XXXX.oooooooooooooooooooooo.    ",
"XXX.oooooooooooooooooooooooo.   ",
"XX.oooooooooooooooooooooooooo.  ",
"XX.oooooooooooooooooooooooooo.  ",
"X.oooooooooooooooooooooooooooo. ",
"X.oooooooooooooooo@@oooooooooo. ",
"X.oooooooooo+Ooooo#@oooooooooo. ",
".oooooo@@@oo++oooo@@ooooooooooo.",
".oooooo@#@ooooooooooooooooooooo.",
".oooooo@@@ooooooooooooooooooooo.",
".oooooooooooooooooooooooooooooo.",
".oooooooooooooooooooooooooooooo.",
".ooooooooooooooo+Oooooooooooooo.",
".ooooooooooooooo++ooo@@oooooooo.",
".oooooooooooooooooooo#@oooooooo.",
" .ooooooooooooooooooo@@ooooooo. ",
" .oooooooo@@oooooooooooooooooo. ",
" .oooooooo@#oooooooooooooooooo. ",
"  .ooooooo@@ooooooooooooooooo.  ",
"  .oooooooooooooooooooooooooo.  ",
"   .oooooooooooooooooooooooo.   ",
"    .oooooooooooooooooooooo.    ",
"     .oooooooooooooooooooo.     ",
"      .oooooooooooooooooo.      ",
"       ..oooooooooooooo..       ",
"         ...oooooooo...         ",
"            ........            ",
"            ........            ",
"         ...oooooooo...         ",
"       ..oooooooooooooo..       ",
"      .oooooooooooooooooo.      ",
"     .oooooooooooooooooooo.     ",
"    .oooooooooooooooooooooo.    ",
"   .oooooooooooooooooooooooo.   ",
"  .oooooooooooooooooooooooooo.  ",
"  .oooooooooooooo@@oooooooooo.  ",
" .ooooooooooo++oo@#ooooooooooo. ",
" .oooooooooooO+ooooooooooooooo. ",
" .oooooo@@oooooooooooooooooooo. ",
".ooooooo@#ooooooooooooooooooooo.",
".oooooooooooooooooooooooooooooo.",
".oooooooooooooooooooooooooooooo.",
".oooooooooooooooooooooooooooooo.",
".oooooooooooooooooooooooooooooo.",
".oooooooooooooooooooooooooooooo.",
".oooooooooooooooooooooooooooooo.",
".oooooooooooooooooooooooooooooo.",
" .oooooo@@@ooooo++oooooooooooo. ",
" .oooooo@@#ooooo+Ooo@@oooooooo. ",
" .oooooo@@@ooooo++oo#@oooooooo. ",
"  .oooooooooooooooooooooooooo.  ",
"  .oooooooooooooooooooooooooo.  ",
"   .oooooooooooooooooooooooo.   ",
"    .oooooooooooooooooooooo.    ",
"     .oooooooooooooooooooo.     ",
"      .oooooooooooooooooo.      ",
"       ..oooooooooooooo..       ",
"         ...oooooooo...         ",
"            ........            "};
