/* XPM */
static char * map_xpm[] = {
"191 35 4 1",
" 	c None",
".	c #A289A289A289",
"X	c #FFFFFFFFFFFF",
"o	c #00000000FFFF",
"            ....................................................................................                                                                                               ",
"           ......................................................................................                                                                                              ",
"           ..                                                                                  ..                                                                                              ",
"           ..          X                                                                       ..                                                                                              ",
"           ..  XXX         X                                                                   ..                                                                                              ",
"           ..   X X X XX  XX  XXX X                                                            ..                                                                                              ",
"           ..   XX  XX X X X X X XXX                                                           ..                                                                                              ",
"           ..   X X X  X X X  X  X                                                             ..                                                                                              ",
"           ..  XXX  X  X  XX X X  X                                                            ..                                                                                              ",
"           ..                 X                                                         ooo    ..                                                                                              ",
"           ..                                                                            o     ..                                                                                              ",
" ........................................................................................o.................................................................................................... ",
".........................................................................................o.....................................................................................................",
"..                                                                                       o                                                                                                   ..",
"..                                                                                       o                                                                                                   ..",
"..                                                  XXX                                  o                                                                                                   ..",
"..                                                 X   X X  X X XXX X                    o                                                                                                   ..",
"..                                                 X      X XX X X X X                   o                                                                                                   ..",
"..                                                 X   X XX X   X  X X                   o                                                                                                   ..",
"..                                            ooo   XXX  XX X  X X  X                   ooo                                                             ooo                                  ..",
"..                                             o                X                                                                                        o                                   ..",
"..                                             o                                                                                                         o                                   ..",
"...............................................o.........................................................................................................o.....................................",
" ..............................................o.........................................................................................................o.................................... ",
"                     ..                        o     ..                                                                                            ..    o                         ..          ",
"                     ..                        o     ..                                                                                            ..    o                         ..          ",
"                     ..  XXX            X      o     ..                                                                                            ..    o    XXXX                 ..          ",
"                     .. X   X X X X  X XXX     o     ..                                                                                            ..    o     X   XX   XXX        ..          ",
"                     .. X   X X X  X XX X      o     ..                                                                                            ..    o     XX  X X X X         ..          ",
"                     .. X   X X X XX X  X      o     ..                                                                                            ..    o     X   X X  X          ..          ",
"                     ..  XXX   XX XX X   X  X ooo    ..                                                                                            ..   ooo   XXXX X X X X  X      ..          ",
"                     ..   X                          ..                                                                                            ..                   X          ..          ",
"                     ..    X                         ..                                                                                            ..                              ..          ",
"                     ..................................                                                                                            ..................................          ",
"                      .................................                                                                                             ................................           "};
