/* XPM */
static char * map_xpm[] = {
"202 34 4 1",
" 	c None",
".	c #A289A289A289",
"X	c #FFFFFFFFFFFF",
"o	c #00000000FFFF",
"         ........................................................                                                                                                ........................                 ",
"        ..........................................................                                                                                              ..........................                ",
"        ..                                                      ..                                                                                              ..                      ..                ",
"        ..                                                      ..                                                                                              ..                      ..                ",
"        ..                                                      ..                                                                                              ..                      ..                ",
"        ..           X                                          ..                                                                                              ..                      ..                ",
"        ..   XXX         X                                      ..                                                                                              ..                      ..                ",
"        ..    X X X XX  XX  XXX X                               ..                                                                                              ..  XXXX      X         ..                ",
"        ..    XX  XX X X X X X XXX                         oooo ..                                                                                              ..   X  X  X  X X  oooo ..                ",
"        ..    X X X  X X X  X  X                            oo  ..                                                                                              ..   X  X X   XX    oo  ..                ",
"        ..   XXX  X  X  XX X X  X                           oo  ..                                                                                              ..   X  X X   XX    oo  ..                ",
"        ..                  X                               oo  ..                                                                                              ..  XXXX   X  X X   oo  ..                ",
"        ..                                                  oo  ..                                                                                              ..                  oo  ..                ",
"        ..                                                  oo  ..                                                                                              ..                  oo  ..                ",
"        ..                                                  oo  ..                                                                                              ..                  oo  ..                ",
"        ..                                                  oo  ..                                                                                              ..                  oo  ..                ",
" ...........................................................oo......................................................................................................................oo................... ",
"............................................................oo......................................................................................................................oo....................",
"..                                                          oo                                                                                                                      oo                  ..",
"..                                                          oo                                                                                                                      oo                  ..",
"..                                                          oo                                                                                                                      oo                  ..",
"..                                                          oo                                                                                                                      oo                  ..",
"..          XX  XX    X  X                                  oo                                                                                                                      oo                  ..",
"..           X  X X X X  X                                  oo                                                                                                                      oo                  ..",
"..           XXXX X X X  X                                  oo                                                                                                                      oo                  ..",
"..           X  X X X X  X                                 oooo                                                                                                                    oooo                 ..",
"..          XX  XX XX X  X                                                                                                                                                                              ..",
"..                                                                                                                                                                                                      ..",
"..                                                                                                                                                                                                      ..",
"..                                                                                                                                                                                                      ..",
"..                                                                                                                                                                                                      ..",
"..                                                                                                                                                                                                      ..",
"..........................................................................................................................................................................................................",
" ........................................................................................................................................................................................................ "};
