/* XPM */
static char * j_xpm[] = {
"116 16 9 1",
" 	c None",
".	c #554F6A",
"+	c #AFAEC1",
"@	c #867B8B",
"#	c #D3DBE7",
"$	c #9896A7",
"%	c #C5C5D1",
"&	c #6A6674",
"*	c #E4F0F4",
" %###***##                                                     %#%**       @*##+                   %$##             ",
"  #**%   %%%                                                    *##%%     *%%#$                    ##%$             ",
"  +**%    %#%%                                                  +%%##    +#%##*                     %*%             ",
"  +*%%     #%$                                                  % #%$    # *+%+                     #+@             ",
"  %##%     +#+&                                                 . +*%+   & %*#*                     +##             ",
"  ##%$     **+&                                                 & **#%  %. **%@                     %$+             ",
"  %*%%     %%$#    %$$&+   %%++ $&+$  +@$$      @+$$%           %  %#*  @% $$**     $$$%+      $@$$ ++*      %++$&  ",
"  *#%+     *+#+  +*%   $+   *%%####%%***++@    #%%  %++         +  ##%@ @  $#*%    %*%  %+$   ##%  ##%+    %#+   %+ ",
"  %*##     %%%*  %#    $@$  %%*   #*#   ###   $%#   %*#         %   %##+@  $#*#   ++*   ###  %**    %*#    ++    +*#",
"  **#+     ###+ ##%    +.@  %#%   #*%   #*+   *#%    #%+        +   ***$   %*#@   ##+    #%% *#%    *#%   #%@    ***",
"  %*##     @### $**%%@+@@&  @#*   %**   %**   %*#    %##        %   %**+   .#%$   $%*    %** %**    @$#   %+#%$@+%#*",
"  #%#+     %%+  **%         +#+   #*+   *#%   *#$    ##+        +    #+@   %&@@   #%+    **% *#%    ##+   +++       ",
"  %#++    &.@+  %#*$     +  %*#   %**   #**   %%%   %++         +    $%#   %@&*   %*#   $#*  %**    +##   +%%$     +",
"  #+%@   +@.&    #+&    %   ##+   #%+   *%%   *#@   #+$         $+   ++    *.&+   *#+   *#%   ##%  +#%$    #+@    $ ",
" %#*#++++$.$      &+%%%+   &%%#% %#**% $%##%    %$%%#         &$.@$. $#  +%$@$+$    %#%%$     %**%% #*##%   +$.&&$  ",
"                                                                                                                    "};
