/* XPM */
static char * x_xpm[] = {
"4 60 2 1",
" 	c None",
".	c #FFFFFFFFFFFF",

"....",
".  .",
".  .",
".  .",
".  .",
"....",

"   .",
"   .",
"   .",
"   .",
"   .",
"   .",

"....",
"   .",
"....",
".   ",
".   ",
"....",

"....",
"   .",
"....",
"   .",
"   .",
"....",

".  .",
".  .",
"....",
"   .",
"   .",
"   .",

"....",
".   ",
"....",
"   .",
"   .",
"....",

"....",
".   ",
"....",
".  .",
".  .",
"....",

"....",
"   .",
"   .",
"   .",
"   .",
"   .",

"....",
".  .",
"....",
".  .",
".  .",
"....",

"....",
".  .",
"....",
"   .",
"   .",
"...."};


