/* XPM */
static char * doorsh_xpm[] = {
"32 288 7 1",
" 	c #00007DF77DF7",
".	c #000069A669A6",
"X	c #000051445144",
"o	c #79E779E779E7",
"O	c #596559655965",
"+	c #A699A699A699",
"@	c #965896589658",
"                                ",
"                                ",
"                                ",
"....                        ....",
".....                      .....",
"XX...                      ...XX",
"XX...                      ...XX",
"XX...                      ...XX",
"XX...ooooooooooO+oooooooooo...XX",
"XX...oooooooooo+Ooooooooooo...XX",
"XX...ooooooooooO+oooooooooo...XX",
"XX...@@@@@@@@@o+Oo@@@@@@@@@...XX",
"XX...@@@@@@@@@oO+o@@@@@@@@@...XX",
"XX...@@@@@@@@@o+Oo@@@@@@@@@...XX",
"XX...@@@@@@@@@oO+o@@@@@@@@@...XX",
"XX...@@@@@@@@@o+Oo@@@@@@@@@...XX",
"XX...@@@@@@@@@oO+o@@@@@@@@@...XX",
"XX...@@@@@@@@@o+Oo@@@@@@@@@...XX",
"XX...@@@@@@@@@oO+o@@@@@@@@@...XX",
"XX...@@@@@@@@@o+Oo@@@@@@@@@...XX",
"XX...@@@@@@@@@oO+o@@@@@@@@@...XX",
"XX...oooooooooo+Ooooooooooo...XX",
"XX...ooooooooooO+oooooooooo...XX",
"XX...oooooooooo+Ooooooooooo...XX",
"XX...                      ...XX",
"XX...                      ...XX",
"XX...                      ...XX",
".....                      .....",
"....                        ....",
"                                ",
"                                ",
"                                ",
"                                ",
"                                ",
"                                ",
"....                        ....",
".....                      .....",
"XX...                      ...XX",
"XX...                      ...XX",
"XX...                      ...XX",
"XX...ooooooooO    +oooooooo...XX",
"XX...oooooooo+    Ooooooooo...XX",
"XX...ooooooooO    +oooooooo...XX",
"XX...@@@@@@@@@o+Oo@@@@@@@@@...XX",
"XX...@@@@@@@@@oO+o@@@@@@@@@...XX",
"XX...@@@@@@@@@o+Oo@@@@@@@@@...XX",
"XX...@@@@@@@@@oO+o@@@@@@@@@...XX",
"XX...@@@@@@@@@o+Oo@@@@@@@@@...XX",
"XX...@@@@@@@@@oO+o@@@@@@@@@...XX",
"XX...@@@@@@@@@o+Oo@@@@@@@@@...XX",
"XX...@@@@@@@@@oO+o@@@@@@@@@...XX",
"XX...@@@@@@@@@o+Oo@@@@@@@@@...XX",
"XX...@@@@@@@@@oO+o@@@@@@@@@...XX",
"XX...oooooooo+    Ooooooooo...XX",
"XX...ooooooooO    +oooooooo...XX",
"XX...oooooooo+    Ooooooooo...XX",
"XX...                      ...XX",
"XX...                      ...XX",
"XX...                      ...XX",
".....                      .....",
"....                        ....",
"                                ",
"                                ",
"                                ",
"                                ",
"                                ",
"                                ",
"....                        ....",
".....                      .....",
"XX...                      ...XX",
"XX...                      ...XX",
"XX...                      ...XX",
"XX...ooooooO        +oooooo...XX",
"XX...oooooo+        Ooooooo...XX",
"XX...ooooooO        +oooooo...XX",
"XX...@@@@@@@@@o+Oo@@@@@@@@@...XX",
"XX...@@@@@@@@@oO+o@@@@@@@@@...XX",
"XX...@@@@@@@@@o+Oo@@@@@@@@@...XX",
"XX...@@@@@@@@@oO+o@@@@@@@@@...XX",
"XX...@@@@@@@@@o+Oo@@@@@@@@@...XX",
"XX...@@@@@@@@@oO+o@@@@@@@@@...XX",
"XX...@@@@@@@@@o+Oo@@@@@@@@@...XX",
"XX...@@@@@@@@@oO+o@@@@@@@@@...XX",
"XX...@@@@@@@@@o+Oo@@@@@@@@@...XX",
"XX...@@@@@@@@@oO+o@@@@@@@@@...XX",
"XX...oooooo+        Ooooooo...XX",
"XX...ooooooO        +oooooo...XX",
"XX...oooooo+        Ooooooo...XX",
"XX...                      ...XX",
"XX...                      ...XX",
"XX...                      ...XX",
".....                      .....",
"....                        ....",
"                                ",
"                                ",
"                                ",
"                                ",
"                                ",
"                                ",
"....                        ....",
".....                      .....",
"XX...                      ...XX",
"XX...                      ...XX",
"XX...                      ...XX",
"XX...ooooO            +oooo...XX",
"XX...oooo+            Ooooo...XX",
"XX...ooooO            +oooo...XX",
"XX...@@@@@@@@@o+Oo@@@@@@@@@...XX",
"XX...@@@@@@@@@oO+o@@@@@@@@@...XX",
"XX...@@@@@@@@@o+Oo@@@@@@@@@...XX",
"XX...@@@@@@@@@oO+o@@@@@@@@@...XX",
"XX...@@@@@@@@@o+Oo@@@@@@@@@...XX",
"XX...@@@@@@@@@oO+o@@@@@@@@@...XX",
"XX...@@@@@@@@@o+Oo@@@@@@@@@...XX",
"XX...@@@@@@@@@oO+o@@@@@@@@@...XX",
"XX...@@@@@@@@@o+Oo@@@@@@@@@...XX",
"XX...@@@@@@@@@oO+o@@@@@@@@@...XX",
"XX...oooo+            Ooooo...XX",
"XX...ooooO            +oooo...XX",
"XX...oooo+            Ooooo...XX",
"XX...                      ...XX",
"XX...                      ...XX",
"XX...                      ...XX",
".....                      .....",
"....                        ....",
"                                ",
"                                ",
"                                ",
"                                ",
"                                ",
"                                ",
"....                        ....",
".....                      .....",
"XX...                      ...XX",
"XX...                      ...XX",
"XX...                      ...XX",
"XX...ooO                +oo...XX",
"XX...oo+                Ooo...XX",
"XX...ooO                +oo...XX",
"XX...@@@@@@@o+    Oo@@@@@@@...XX",
"XX...@@@@@@@oO    +o@@@@@@@...XX",
"XX...@@@@@@@o+    Oo@@@@@@@...XX",
"XX...@@@@@@@oO    +o@@@@@@@...XX",
"XX...@@@@@@@o+    Oo@@@@@@@...XX",
"XX...@@@@@@@oO    +o@@@@@@@...XX",
"XX...@@@@@@@o+    Oo@@@@@@@...XX",
"XX...@@@@@@@oO    +o@@@@@@@...XX",
"XX...@@@@@@@o+    Oo@@@@@@@...XX",
"XX...@@@@@@@oO    +o@@@@@@@...XX",
"XX...oo+                Ooo...XX",
"XX...ooO                +oo...XX",
"XX...oo+                Ooo...XX",
"XX...                      ...XX",
"XX...                      ...XX",
"XX...                      ...XX",
".....                      .....",
"....                        ....",
"                                ",
"                                ",
"                                ",
"                                ",
"                                ",
"                                ",
"....                        ....",
".....                      .....",
"XX...                      ...XX",
"XX...                      ...XX",
"XX...                      ...XX",
"XX...O                    +...XX",
"XX...+                    O...XX",
"XX...O                    +...XX",
"XX...@@@@@o+        Oo@@@@@...XX",
"XX...@@@@@oO        +o@@@@@...XX",
"XX...@@@@@o+        Oo@@@@@...XX",
"XX...@@@@@oO        +o@@@@@...XX",
"XX...@@@@@o+        Oo@@@@@...XX",
"XX...@@@@@oO        +o@@@@@...XX",
"XX...@@@@@o+        Oo@@@@@...XX",
"XX...@@@@@oO        +o@@@@@...XX",
"XX...@@@@@o+        Oo@@@@@...XX",
"XX...@@@@@oO        +o@@@@@...XX",
"XX...+                    O...XX",
"XX...O                    +...XX",
"XX...+                    O...XX",
"XX...                      ...XX",
"XX...                      ...XX",
"XX...                      ...XX",
".....                      .....",
"....                        ....",
"                                ",
"                                ",
"                                ",
"                                ",
"                                ",
"                                ",
"....                        ....",
".....                      .....",
"XX...                      ...XX",
"XX...                      ...XX",
"XX...                      ...XX",
"XX...O                    +...XX",
"XX...+                    O...XX",
"XX...O                    +...XX",
"XX...@@@o+            Oo@@@...XX",
"XX...@@@oO            +o@@@...XX",
"XX...@@@o+            Oo@@@...XX",
"XX...@@@oO            +o@@@...XX",
"XX...@@@o+            Oo@@@...XX",
"XX...@@@oO            +o@@@...XX",
"XX...@@@o+            Oo@@@...XX",
"XX...@@@oO            +o@@@...XX",
"XX...@@@o+            Oo@@@...XX",
"XX...@@@oO            +o@@@...XX",
"XX...+                    O...XX",
"XX...O                    +...XX",
"XX...+                    O...XX",
"XX...                      ...XX",
"XX...                      ...XX",
"XX...                      ...XX",
".....                      .....",
"....                        ....",
"                                ",
"                                ",
"                                ",
"                                ",
"                                ",
"                                ",
"....                        ....",
".....                      .....",
"XX...                      ...XX",
"XX...                      ...XX",
"XX...                      ...XX",
"XX...O                    +...XX",
"XX...+                    O...XX",
"XX...O                    +...XX",
"XX...@o+                Oo@...XX",
"XX...@oO                +o@...XX",
"XX...@o+                Oo@...XX",
"XX...@oO                +o@...XX",
"XX...@o+                Oo@...XX",
"XX...@oO                +o@...XX",
"XX...@o+                Oo@...XX",
"XX...@oO                +o@...XX",
"XX...@o+                Oo@...XX",
"XX...@oO                +o@...XX",
"XX...+                    O...XX",
"XX...O                    +...XX",
"XX...+                    O...XX",
"XX...                      ...XX",
"XX...                      ...XX",
"XX...                      ...XX",
".....                      .....",
"....                        ....",
"                                ",
"                                ",
"                                ",
"                                ",
"                                ",
"                                ",
"....                        ....",
".....                      .....",
"XX...                      ...XX",
"XX...                      ...XX",
"XX...                      ...XX",
"XX...                      ...XX",
"XX...                      ...XX",
"XX...                      ...XX",
"XX...                      ...XX",
"XX...                      ...XX",
"XX...                      ...XX",
"XX...                      ...XX",
"XX...                      ...XX",
"XX...                      ...XX",
"XX...                      ...XX",
"XX...                      ...XX",
"XX...                      ...XX",
"XX...                      ...XX",
"XX...                      ...XX",
"XX...                      ...XX",
"XX...                      ...XX",
"XX...                      ...XX",
"XX...                      ...XX",
"XX...                      ...XX",
".....                      .....",
"....                        ....",
"                                ",
"                                ",
"                                "};
