/* XPM */
static char * l_laser_xpm[] = {
"15 60 2 1",
" 	c None",
".	c #9E799E79FFFF",
"               ",
"               ",
"               ",
"               ",
"               ",
"               ",
"    .......    ",
"    .......    ",
"    .......    ",
"               ",
"               ",
"               ",
"               ",
"               ",
"               ",
"               ",
"               ",
"               ",
"               ",
"      ...      ",
"      ...      ",
"      ...      ",
"      ...      ",
"      ...      ",
"      ...      ",
"      ...      ",
"               ",
"               ",
"               ",
"               ",
"               ",
"               ",
"               ",
"               ",
"     ..        ",
"    ....       ",
"    .....      ",
"     .....     ",
"      .....    ",
"       ....    ",
"        ..     ",
"               ",
"               ",
"               ",
"               ",
"               ",
"               ",
"               ",
"               ",
"        ..     ",
"       ....    ",
"      .....    ",
"     .....     ",
"    .....      ",
"    ....       ",
"     ..        ",
"               ",
"               ",
"               ",
"               "};
