/* XPM */
static char * ship_complete_xpm[] = {
"168 39 2 1",
" 	c None",
".	c #FFFFFFFF0000",
"                ....                                                      ....                                                                                          ",
"              .......                                                    .....                                              ..                                        . ",
"            ....   ...      .                                          ....  ..                                            ....                                       ..",
"           ...      ..     ..                                         ...    ..                                           .. ..                                      .. ",
"          ...      ..     ...                                        ...     ..                                          ..  .                                      ... ",
"         ...       ..     ..                                        ...      .                                          ..  ..                                      ..  ",
"        ...       ..     ...                                       ...      ..                                         ..   .               .                      ...  ",
"        ..       ..      ..           .                            ..      ..                                          ..  ..               ..                     ..   ",
"       ...     ...      ..           ...                          ..       ..                                         ..  ..               ..                     ...   ",
"       ..    ....       ..          ...                          ...      ..                                          .   ..              ..                      ..    ",
"       ..   ....       ..            .                          ...     ....                                         ..  ..               .. ...                 ...    ",
"       ..   ..         ..                                       ..      ...                                         ..  ..               .......                 ..     ",
"       ..             ..                .                      ...      .                                .          ..  .             .......                   ...     ",
"       ...           ...               ..                     ...                                       ..         ..  .             .....                      ..      ",
"        ..           ..   ..       .   ..                     ..                 ...      .             ..         .. ..     ...       ..         ...          ...      ",
"        ...          .   ...      .   .. ...                 ...               ......    ..  ..   ...  .. ...     .. ..     .....      ..        .....        ...       ",
"         ..         .. .....     ..   .......                ..               ...  ..    .. ... ....   .......    ....     ..  .      ..        ..  .         ..        ",
"          ..        .......     ..   ...   ..               ...               ..   .    .. ... ....   ...   ..   ....     ..  ..      ..       ..  ..        ...        ",
"          ..       .... ..      ..   ..   ...               ...          ..  ..   ..   .. .........   ..   ...   ...     ..  ..      ..       ..  ..         ..         ",
"  ...      ..      ...  ..   . ..   ..    ..                ..           .  ...  ...   ........ ..   ..    ..   ..    . ..  ..       ..     ...  ..         ..          ",
" ....      ..     ...  ..   .  ..   ..   ...               ...          ..  ..   ..   .... ... ..    ..   ...   ..   .  .. ..    .. ...    . .. ..    ..   ...          ",
" ..        ...    ..   ..  .. ..   ..    ..                ...         ..   ..   ..   ... ...  ..   ..    ..    ..  .. ....     ..  ..    ......     ..    ..           ",
"...        ...    ..  ..  ..  ..   ..   ...                ...        ..   ..   ..    ..  ... ..    ..   ...   ..  ..  ..      ..   ..   .. ..      ..     ..           ",
"..         ..    ..   .. ..  ..   ..   ...                 ...       ..    ..   ..   ... ...  ..   ..   ...    .. ..   ...   ...    ..  ..  ...   ...                   ",
"...       ...    ..   .....  ..   ..  ...                  ...      ..     ... ..    ..  ..   ..   ..  ...     ....    ........     .....   ........                    ",
" ...    ....    ..    ...    ..  .......                    ...    ..      .....     ..  ..   ..  .......      ...      .....        ...     .....       ..             ",
" ..........      .          ..   .. ..                      ........        ...     ..   .    ... .. ..                                                 ...             ",
"   ......                   ..  ..                           .....                   .         ....                                                     ...             ",
"                                ..                                                               ..                                                     ..              ",
"                               ..                                                               ..                                                                      ",
"                               ..                                                               ..                                                                      ",
"                              ...                                                              ...                                                                      ",
"                              ..                                                               ..                                                                       ",
"                              ..                                                               ..                                                                       ",
"                             ..                                                               ..                                                                        ",
"                             ..                                                               ..                                                                        ",
"                             .                                                                .                                                                         ",
"                            ..                                                               ..                                                                         ",
"                             .                                                                .                                                                         "};
