/* XPM */
static char * flr_con_t_cyan_xpm[] = {
"32 32 18 1",
" 	c #00007DF77DF7",
".	c #000069A669A6",
"X	c #000051445144",
"o	c #D75CD75CD75C",
"O	c #A699A699A699",
"+	c #B6DAB6DAB6DA",
"@	c #9E79CF3C9E79",
"#	c #BEFBBEFBBEFB",
"$	c #8E388E388E38",
"%	c #9E79CF3C6DB6",
"&	c #9E79FFFF3CF3",
"*	c #9E799E796DB6",
"=	c #79E779E779E7",
"-	c #C71BC71BC71B",
";	c #6DB66DB6CF3C",
":	c #9E799E79FFFF",
">	c #FFFFFFFFFFFF",
",	c #6DB66DB69E79",
"                                ",
"                                ",
"                                ",
"................................",
"................................",
"XXXXXXXXXXXXXXXXXXXXXXXXXXXXXXXX",
"XXXXXXXXXXXXXXXXXXXXXXXXXXXXXXXX",
"XXXXXXXXXXXXXXXXXXXXXXXXXXXXXXXX",
"XXXXXXXXXXXXXXXXXXXXXXXXXXXXXXXX",
"XXXXXXXXXXXXXX...XXXXXXXXXXXXXXX",
"XXXXXXXXXXXXXX...XXXXXXXXXXXXXXX",
"XXXXXXXXXXXXXX...XXXXXXXXXXXXXXX",
"XXXXXXX...XXXX...XXXX...XXXXXXXX",
"XXXXXXX...XXXX...XXXX...XXXXXXXX",
"XXXXXXX...XXXX...XXXX...XXXXXXXX",
"XXX                          XXX",
"XXX oooooooooooooooooooooooo XXX",
"XXX oO+@@@++++@@@++++@@@++#o XXX",
"XXX o$%&&&%OO%&&&%OO%&&&%O+o XXX",
"XXX o*&&&&&@@&&&&&@@&&&&&@+o XXX",
"XXX o*&&&&&%%&&&&&%%&&&&&%+o XXX",
"XXX o*&&&&&@@&&&&&@@&&&&&@+o XXX",
"XXX o$%&&&%OO%&&&%OO%&&&%O+o XXX",
"XXX o=$***$$$$***$$$$***$$Oo XXX",
"XXX o----------------------o XXX",
"XXX oooooooooooooooooooooooo XXX",
"XXX ;:::::::::::::::::::::;  XXX",
"... ;:>:>:::;;; ;;;:::>:>:;  ...",
"... ;::::;;;       ;;;::::;  ...",
"    ;:;;;             ;;;:;     ",
"    ,;                   ;,     ",
"                                "};
