/* XPM */
static char * floor1_xpm[] = {
"32 32 3 1",
" 	c #00007DF77DF7",
".	c #000092489248",
"X	c #000051445144",
"                                ",
"                                ",
"                                ",
"   ..........................   ",
"   .                        X   ",
"   .                        X   ",
"   .                        X   ",
"   .                        X   ",
"   .                        X   ",
"   .                        X   ",
"   .                        X   ",
"   .                        X   ",
"   .                        X   ",
"   .                        X   ",
"   .                        X   ",
"   .                        X   ",
"   .                        X   ",
"   .                        X   ",
"   .                        X   ",
"   .                        X   ",
"   .                        X   ",
"   .                        X   ",
"   .                        X   ",
"   .                        X   ",
"   .                        X   ",
"   .                        X   ",
"   .                        X   ",
"   .                        X   ",
"   .XXXXXXXXXXXXXXXXXXXXXXXXX   ",
"                                ",
"                                ",
"                                "};
