/* XPM */
static char * flr_con_l_cyan_xpm[] = {
"32 32 18 1",
" 	c #00007DF77DF7",
".	c #000069A669A6",
"X	c #000051445144",
"o	c #D75CD75CD75C",
"O	c #BEFBBEFBBEFB",
"+	c #B6DAB6DAB6DA",
"@	c #A699A699A699",
"#	c #C71BC71BC71B",
"$	c #6DB66DB6CF3C",
"%	c #6DB66DB69E79",
"&	c #9E79CF3C9E79",
"*	c #9E79CF3C6DB6",
"=	c #8E388E388E38",
"-	c #9E799E79FFFF",
";	c #9E79FFFF3CF3",
":	c #FFFFFFFFFFFF",
">	c #9E799E796DB6",
",	c #79E779E779E7",
"   ..XXXXXXXXXXXXXXXXXXXXXX..   ",
"   ..XXXXXXXXXXXXXXXXXXXXXX..   ",
"   ..XXXXXXXXXXXXXXXXXXXXXX..   ",
"   ..XXXXXXXXXX                 ",
"   ..XXXXXXXXXX oooooooooo      ",
"   ..XXXXXXXXXX oO+++++@#o$$$$% ",
"   ..XXXXXXXXXX o+@&*&@=#o----$ ",
"   ..XXXXXXXXXX o+*;;;*=#o-:-$  ",
"   ..XXXXXXX... o&;;;;;>#o---$  ",
"   ..XXXXXXX... o&;;;;;>#o-:-$  ",
"   ..XXXXXXX... o&;;;;;>#o--$   ",
"   ..XXXXXXXXXX o+*;;;*=#o--$   ",
"   ..XXXXXXXXXX o+@&*&@=#o--$   ",
"   ..XXXXXXXXXX o+@&*&@=#o-$    ",
"   ..XXXXXXXXXX o+*;;;*=#o-$    ",
"   ..XXXX...... o&;;;;;>#o-$    ",
"   ..XXXX...... o&;;;;;>#o-     ",
"   ..XXXX...... o&;;;;;>#o-$    ",
"   ..XXXXXXXXXX o+*;;;*=#o-$    ",
"   ..XXXXXXXXXX o+@&*&@=#o-$    ",
"   ..XXXXXXXXXX o+@&*&@=#o--$   ",
"   ..XXXXXXXXXX o+*;;;*=#o--$   ",
"   ..XXXXXXX... o&;;;;;>#o--$   ",
"   ..XXXXXXX... o&;;;;;>#o-:-$  ",
"   ..XXXXXXX... o&;;;;;>#o---$  ",
"   ..XXXXXXXXXX o+*;;;*=#o-:-$  ",
"   ..XXXXXXXXXX o@=>>>=,#o----$ ",
"   ..XXXXXXXXXX oooooooooo$$$$% ",
"   ..XXXXXXXXXX                 ",
"   ..XXXXXXXXXXXXXXXXXXXXXX..   ",
"   ..XXXXXXXXXXXXXXXXXXXXXX..   ",
"   ..XXXXXXXXXXXXXXXXXXXXXX..   "};
