/* XPM */
static char * credit_1_xpm[] = {
"216 27 7 1",
" 	c #000000000000",
".	c #000041030000",
"X	c #000049240000",
"o	c #000059650000",
"O	c #000069A60000",
"+	c #00008E380000",
"@	c #0000FFFF0000",
"      ....                                .                                   ....                .                                   ....                           .                               .                  ",
"     .XXXX.                              .X.                                 .XXXX.              .X.                                 .XXXX.                         .X.                             .X.                 ",
"    .XooooX. ......  ......  ......  ....XoX.        ......  ......         .XooooX. ......  ....XoX.......  ...... .  .  .         .XooooX. ......  ......  ..   ..XoX....  ......  ......  .......XoX. .   ......     ",
"   .XoOOOOoX.XXXXXX..XXXXXX..XXXXXX..XXXXoOoX.      .XXXXXX..XXXXXX.       .XoOOOOoX.XXXXXX..XXXXoOoXXXXXXX..XXXXXX.X..X..X.       .XoOOOOoX.XXXXXX..XXXXXX..XX. .XXoOoXXXX..XXXXXX..XXXXXX..XXXXXXXoOoX.X. .XXXXXX.    ",
"  .XoO++++OoXooooooXXooooooXXooooooXXooooO+OoX.    .XooooooXXooooooX.     .XoO++++OoXooooooXXooooO+OoooooooXXooooooXoXXoXXoX.     .XoO++++OoXooooooXXooooooXXooX.XooO+OooooXXooooooXXooooooXXoooooooO+OoXoX.XooooooX.   ",
" .XoO+@@@@+OoOOOOOOooOOOOOOooOOOOOOooOOOO+@+OoX.  .XoOOOOOOooOOOOOOoX.   .XoO+@@@@+OoOOOOOOooOOOO+@+OOOOOOOooOOOOOOoOooOooOoX.   .XoO+@@@@+OoOOOOOOooOOOOOOooOOoXoOO+@+OOOOooOOOOOOooOOOOOOooOOOOOOO+@+OoOoXoOOOOOOoX.  ",
" .XoO+@++@+OO++++++OO++++++OO++++++OO+++++@+OoX. .XoO++++++OO++++++OoX.  .XoO+@++@+OO++++++OO+++++@+O++++++OO++++++O+OO+OO+OoX.  .XoO+@++@+OO++++++OO++++++OO++OoO+O+@+++++OO++++++OO++++++OO++++++O+@+OO+OoO++++++OoX. ",
" .XoO+@++@+O+@@@@@@++@@@@@@++@@@@@@++@@@@@@+OoX..XoO+@@@@@@++@@@@@@+OoX. .XoO+@++@+O+@@@@@@++@@@@@@++@@@@@@++@@@@@@+@++@++@+OoX. .XoO+@++@+O+@@@@@@++@@@@@@++@@+O+@++@@@@@@++@@@@@@++@@@@@@++@@@@@@++@+++@+O+@@@@@@+OoX.",
".XoO+@@@@@@+O+++++@++@+++++O+@++++@++@++++@+OoX..XoO+@++++@++@++++@+OoX..XoO+@@@@@@++@++++@++@++++@++@++++@++@++++@+@++@++@+OoX..XoO+@@@@@@++@++++@+O+++++@++@@+O+@++@++++@++@++++@++@++++@++@++++@++@@@@@@++@+++++OoX. ",
".XoO+@@+++@++@@@@@@++@@@@@@++@@@@@@++@@+O+@+OoX..XoO+@@+O+@++@@+O+@+OoX..XoO+@@+++@++@@+O+@++@@+O+@++@@+OO+O+@@@@@@+@@+@@+@+OoX..XoO+@@+++@++@@+OO+O+@@@@@@++@@+++@++@@+O+@++@@+OO+O+@@+O+@++@@+O+@++@@+++@++@@@@@@+OoX.",
".XoO+@@+++@++@@+++@+O++++@@++@@++++O+@@+++@+OoX..XoO+@@+++@++@@+O+@+OoX..XoO+@@+O+@++@@+O+@++@@+++@++@@+OoOO+@@+++++@@+@@+@+OoX..XoO+@@+++@++@@+OoOO+@@+++@++@@@@@@++@@+++@++@@+OoOO+@@+++@++@@+++@++@@+O+@+O++++@@+OoX.",
".XoO+@@@@@@++@@@@@@++@@@@@@++@@@@@@++@@@@@@+OoX..XoO+@@@@@@++@@+O+@+OoX..XoO+@@+O+@++@@+O+@++@@@@@@++@@+OooO+@@@@@@+@@@@@@@+OoX..XoO+@@@@@@++@@+OooO+@@@@@@+O+++++@++@@@@@@++@@+OooO+@@@@@@++@@@@@@++@@+O+@++@@@@@@+OoX.",
" .XoO++++++OO++++++OO++++++OO++++++OO++++++OoX....XoO++++++OO++OoO+OoX...XooO++OoO+OO++OoO+OO++++++OO++OoXXoO++++++O+++++++OoX.  .XoO++++++OO++OoXXoO++++++O+@@@@@@+O++++++OO++OoXXoO++++++OO++++++OO++OoO+OO++++++OoX. ",
"  .XoOOOOOOooOOOOOOooOOOOOOooOOOOOOooOOOOOOoXXXXXXXXoOOOOOOooOOoooOoXXXXXoOooOOoXoOooOOoXoOooOOOOOOooOOoX..XoOOOOOOoOOOOOOOoX.    .XoOOOOOOooOOoX..XoOOOOOOoO++++++OoOOOOOOooOOoX..XoOOOOOOooOOOOOOooOOoXoOooOOOOOOoX.  ",
" .XoO++++++OoooooooXXooooooXXooooooXXooooO+OoooooooXXooooooXXooOOooXXooooO+OoooX.XoXXooX.XoXXooooooXXooX.  .XooooooXoooooooX.      .XooooooXXooX.  .XooooooXoOOOOOOoXooooooXXooX.  .XooooooXXooooooXXooX.XoXXooooooX.   ",
".XoO+@@@@@@+OOOOOOOooOOOOOOooOOOOOOooOOOO+@+OOOOOOOooOOOOOOoXoO++OoXoOOOO+@+OoX. .X..XX. .X..XXXXXX..XX.    .XXXXXX.XXXXXXX.        .XXXXXX..XX.    .XXXXXX.XooooooX.XXXXXX..XX.    .XXXXXX..XXXXXX..XX. .X..XXXXXX.    ",
".XoO+@++++@+O++++++OO++++++OO++++++OO+++++@+O++++++OO++++++OoO+@@+OoO+++++@+OoX.. .  ..   .  ......  ..      ...... .......          ......  ..      ...... .XXXXXX. ......  ..      ......  ......  ..   .  ......     ",
".XoO+@++++@++@@@@@@++@@@@@@++@@@@@@++@@@@@@++@@@@@@++@@@@@@+OoO++OoO+@@@@@@+OoXXX.                                                                           ......                                                     ",
".XoO+@@@@@@+O+++++@++@++++@+O+++++@++@++++@++@++++@++@++++@+OO+@+OoO+@++++@+OoXooX.                                                                                                                                     ",
".XoO+@@++++O+@@@@@@++@@+OO+O+@@@@@@++@@+O+@++@@+OO+O+@@+O+@+OO+@@+OO+@@+O+@+OooOOoX.                                                                                                                                    ",
".XoO+@@+OOOO+@@+++@++@@+OoOO+@@+++@++@@+++@++@@+OoOO+@@+++@+OO+@@+OO+@@+++@+OoO++OoX.                                                                                                                                   ",
".XoO+@@+OooO+@@@@@@++@@+OooO+@@@@@@++@@@@@@++@@+OooO+@@@@@@+OO+@@+OO+@@@@@@+OO+@@+OoX.                                                                                                                                  ",
" .XoO++OoXXoO++++++OO++OoXXoO++++++OO++++++OO++OoXXoO++++++OooO++OooO++++++OooO++OoX.                                                                                                                                   ",
"  .XoOOoX..XoOOOOOOooOOoX..XoOOOOOOooOOOOOOooOOoX..XoOOOOOOoXXoOOoXXoOOOOOOoXXoOOoX.                                                                                                                                    ",
"   .XooX.  .XooooooXXooX.  .XooooooXXooooooXXooX.  .XooooooX..XooX..XooooooX..XooX.                                                                                                                                     ",
"    .XX.    .XXXXXX..XX.    .XXXXXX..XXXXXX..XX.    .XXXXXX.  .XX.  .XXXXXX.  .XX.                                                                                                                                      ",
"     ..      ......  ..      ......  ......  ..      ......    ..    ......    ..                                                                                                                                       "};
