/* XPM */
static char * credit_4_xpm[] = {
"200 18 7 1",
" 	c #000000000000",
".	c #000041030000",
"X	c #000049240000",
"o	c #000059650000",
"O	c #000069A60000",
"+	c #00008E380000",
"@	c #0000FFFF0000",
"     ......  .    .                                            .                               ....                                  ......    .                                                        ",
"    .XXXXXX..X.  .X.                                          .X.                             .XXXX.                                .XXXXXX.  .X.                                                       ",
"   .XooooooXXoX..XoX.        ......  ...... .......  ......  .XoX.   ......  ......          .XooooX.......  ...... .......        .XooooooX..XoX.   ......  ...... .  .  .  ......  ......  ......     ",
"  .XoOOOOOOooOoXXoOoX.      .XXXXXX..XXXXXX.XXXXXXX..XXXXXX..XoOoX. .XXXXXX..XXXXXX.        .XoOOOOoXXXXXXX..XXXXXX.XXXXXXX.      .XoOOOOOOoXXoOoX. .XXXXXX..XXXXXX.X..X..X..XXXXXX..XXXXXX..XXXXXX.    ",
" .XoO++++++OO+OooO+OoX.    .XooooooXXooooooXoooooooXXooooooXXoO+OoX.XooooooXXooooooX.      .XoO++++OoooooooXXooooooXoooooooX.    .XoO++++++OooO+OoX.XooooooXXooooooXoXXoXXoXXooooooXXooooooXXooooooX.   ",
".XoO+@@@@@@++@+OO+@+OoX.  .XoOOOOOOooOOOOOOoOOOOOOOooOOOOOOooO+@+OoXoOOOOOOooOOOOOOoX.    .XoO+@@@@+OOOOOOOooOOOOOOoOOOOOOOoX.  .XoO+@@@@@@+OO+@+OoXoOOOOOOooOOOOOOoOooOooOooOOOOOOooOOOOOOooOOOOOOoX.  ",
".XoO+@+++++O+@+OO+@+OoX. .XoO++++++OO++++++O+++++++OO++++++OoO+@+OooO++++++OO++++++OoX.  .XoO++@+++OO++++++OO++++++O+++++++OoX. .XoO+@++++@+O++@++OoO++++++OO++++++O+OO+OO+OO++++++OO++++++OO++++++OoX. ",
".XoO+@+++++O+@++++@+OoX..XoO+@@@@@@++@@@@@@+@@@@@@@++@@@@@@+OO+@+OoO+@@@@@@++@@@@@@+OoX..XoO+@@@@@+O+@@@@@@++@@@@@@+@@@@@@@+OoX..XoO+@+++++O+@@@@@+O+@@@@@@++@@@@@@+@++@++@++@@@@@@++@@@@@@++@@@@@@+OoX.",
".XoO+@@@@@@+O+@@@@+OoX. .XoO+@+++++OO+++++@+@++@++@++@++++@+OO+@+OoO+@++++@++@+++++OoX.  .XoO++@++OO+@++++@++@++++@+@++@++@+OoX..XoO+@@@@@@+O++@++OoO+++++@++@++++@+@++@++@+O+++++@++@++++@++@+++++OoX. ",
".XoO+@@++++O+@@+++@+OoX..XoO+@@@@@@++@@@@@@+@@+@@+@++@@+O+@+OO+@@+OO+@@@@@@++@@@@@@+OoX.  .XoO+@@+OO+@@+OO+O+@@+O+@+@@+@@+@+OoX. .XoO++++@@+OO+@@+OO+@@@@@@++@@+OO++@@+@@+@++@@@@@@++@@+OO+O+@@@@@@+OoX.",
".XoO+@@+OOOO+@@+O+@+OoX. .XoO++++@@++@@+++@+@@+@@+@++@@+++@+OO+@@+OO+@@++++OO++++@@+OoX.  .XoO+@@+OO+@@+OoOO+@@+++@+@@+@@+@+OoX..XoO+@+++@@+OO+@@+OO+@@+++@++@@+OoO+@@+@@+@++@@+++@++@@+OoOoO++++@@+OoX.",
".XoO+@@+OooO+@@+O+@+OoX..XoO+@@@@@@++@@@@@@+@@+@@+@++@@@@@@+OO+@@+OO+@@@@@@++@@@@@@+OoX.  .XoO+@@+OO+@@+OooO+@@@@@@+@@+@@+@+OoX..XoO+@@@@@@+OO+@@+OO+@@@@@@++@@+OoO+@@@@@@@++@@@@@@++@@+OooO+@@@@@@+OoX.",
" .XoO++OoXXoO++OoO+OoX.  .XoO++++++OO++++++O++O++O+O+@+++++OooO++OooO++++++OO++++++OoX.    .XoO++OooO++OoXXoO++++++O++O++O+OoX.  .XoO++++++OooO++OooO++++++OO++OoXoO+++++++OO++++++OO++OoXXoO++++++OoX. ",
"  .XoOOoX..XoOOoXoOoX.    .XoOOOOOOooOOOOOOoOOoOOoOoO+OOOOOoXXoOOoXXoOOOOOOooOOOOOOoX.      .XoOOoXXoOOoX..XoOOOOOOoOOoOOoOoX.    .XoOOOOOOoXXoOOoXXoOOOOOOooOOoX.XoOOOOOOOooOOOOOOooOOoX..XoOOOOOOoX.  ",
"   .XooX.  .XooX.XoX.      .XooooooXXooooooXooXooXoXoOoooooX..XooX..XooooooXXooooooX.        .XooX..XooX.  .XooooooXooXooXoX.      .XooooooX..XooX..XooooooXXooX. .XoooooooXXooooooXXooX.  .XooooooX.   ",
"    .XX.    .XX. .X.        .XXXXXX..XXXXXX.XX.XX.X.XoXXXXX.  .XX.  .XXXXXX..XXXXXX.          .XX.  .XX.    .XXXXXX.XX.XX.X.        .XXXXXX.  .XX.  .XXXXXX..XX.   .XXXXXXX..XXXXXX..XX.    .XXXXXX.    ",
"     ..      ..   .          ......  ...... .. .. . .X.....    ..    ......  ......            ..    ..      ...... .. .. .          ......    ..    ......  ..     .......  ......  ..      ......     ",
"                                                     .                                                                                                                                                  "};
