/* XPM */
static char * x_xpm[] = {
"10 130 2 1",
" 	c None",
".	c #FFFFFFFFFFFF",
"   .....  ",
"  ....... ",
" ...   ...",
" ..     ..",
" ..     ..",
" ..     ..",
" ..     ..",
" ..     ..",
" ..     ..",
" ..     ..",
" ...   ...",
"  ....... ",
"   .....  ",
"    ...   ",
"   ....   ",
"     ..   ",
"     ..   ",
"     ..   ",
"     ..   ",
"     ..   ",
"     ..   ",
"     ..   ",
"     ..   ",
"     ..   ",
"     ..   ",
"     ..   ",
"    ....  ",
"   ...... ",
"  ...  ...",
"  ..    ..",
"  ..    ..",
"  ...  ...",
"   .  ... ",
"     ...  ",
"    ...   ",
"   ...    ",
"  ...     ",
" .........",
" .........",
" ........ ",
" .........",
"       .. ",
"      ..  ",
"     ..   ",
"    ..    ",
"   ...... ",
"   .......",
"        ..",
"        ..",
"        ..",
" .........",
" ........ ",
"      ..  ",
"     ...  ",
"    ...   ",
"   ... .  ",
"  ... ..  ",
" ...  ..  ",
"...   ..  ",
"..    ..  ",
"..    ..  ",
"..........",
" .........",
"      ..  ",
"      ..  ",
"  ....... ",
"  ....... ",
"  ..      ",
"  ..      ",
"  ..      ",
"  ......  ",
"  ....... ",
"       .. ",
"       .. ",
"       .. ",
"       .. ",
" ........ ",
" .......  ",
"    ..    ",
"   ...    ",
"   ..     ",
"  ...     ",
"  ..  .   ",
" ... ...  ",
" ..   ... ",
"...    ...",
"..      ..",
"...     ..",
" ..    ...",
" ........ ",
"  ......  ",
" .........",
" .........",
"       ...",
"       ...",
"      ... ",
"      ... ",
"     ...  ",
"     ...  ",
"    ...   ",
"    ...   ",
"   ...    ",
"   ...    ",
"  ...     ",
"   ....   ",
"  ......  ",
" ...  ... ",
" ..    .. ",
" ...  ... ",
"  ......  ",
" ........ ",
"...    ...",
"..      ..",
"..      ..",
"...    ...",
" ........ ",
"  ......  ",
"  ......  ",
" ........ ",
"...    .. ",
"..     ...",
"..      ..",
"...    ...",
" ...   .. ",
"  ... ... ",
"   .  ..  ",
"     ...  ",
"     ..   ",
"    ...   ",
"    ..    "};
