/* XPM */
static char * docking_to_ship_xpm[] = {
"135 27 8 1",
" 	c None",
".	c #000000",
"+	c #00FF00",
"@	c #004200",
"#	c #004A00",
"$	c #005A00",
"%	c #006B00",
"&	c #008C00",
".....@@@@@@@.......................@.........@.............................@.............................@..........@..................",
"....@#######@.....................@#@.......@#@...........................@#@...........................@#@........@#@.................",
"...@#$$$$$$$#@...................@#$#@.....@#$#@.........................@#$#@.........................@#$#@......@#$#@................",
"..@#$%%%%%%%$#@.................@#$%$#@...@#$%$#@.......................@#$%$#@.......................@#$%$#@....@#$%$#@...............",
".@#$%&&&&&&&%$#@.@@@@@.....@@@@@#$%&%$#@.@#$%&%$#@.@@@@.....@@@@@@@....@#$%&%$#@...@@@@@.........@@@@@#$%&%$#@@@@#$%&%$#@@@@@@.........",
"@#$%&+++++++&%$#@#####@...@#####$%&+&%$#@#$%&+&%$#@####@...@#######@..@#$%&+&%$#@.@#####@.......@#####$%&+&%$####$%&+&%$######@........",
"@#$%&+&&&&&&+&%$#$$$$$#@.@#$$$$$$%&+&%$##$#$%&%$$##$$$$#@.@#$$$$$$$#@.@#$%&+&%$#@@#$$$$$#@.....@#$$$$$$%&+&%$$$$##$%&%$$$$$$$$#@.......",
"@#$%&+&%%%%%&+&%$%%%%%$#@#$%%%%%$%&+&%$#$%$#$%$$%$$%%%%$#@#$%%%%%%%$#@@#$%&+&%$#@#$%%%%%$#@...@#$%%%%%%%&+&%%%%%$##$%$$%%%%%%%$#@......",
"@#$%&+&%$$$%&+&%%&&&&&%$#$%&&&&&%%&+&%$$%&%$%&%%&%%&&&&%$#$%&&&&&&&%$##$%&&+&&%$#$%&&&&&%$#@.@#$%&&&&&&%&+&&&&&&%$$%&%%&&&&&&&%$#@.....",
"@#$%&+&%$#$%&+&%&+++++&%$%&+++++&%&+&%$%&+&%&+&&+&&++++&%$%&+++++++&%$$%&+++++&%$%&+++++&%$#@#$%&++++++&&+++++++&%%&+&&+++++++&%$#@....",
"@#$%&+&%$#$%&+&&+&&&&&+&%&+&&&&&+&&+&%%&+&%&++&&+&+&&&&+&%&+&&&&&&+&%$#$%&&+&&%$%&+&&&&&+&%$#$%&+&&&&&&%&+&&&&&&+&&++&&+&&&&&&+&%$#@...",
"@#$%&+&%$#$%&+&+&%%%%%&+&+&%%%%%&+&+&%&+&%$%&+&&++&%%%%&+&+&%%%%%&+&%$##$%&+&%$%&+&%%%%%&+&%$%&+&%%%%%%%&+&%%%%%&+&&+&&+&%%%%%&+&%$#@..",
"@#$%&+&%$#$%&+&+&%$$$%&+&+&%$$$$%&&+&&+&%$$%&+&&+&%$$$%&+&+&%$$$%&+&%$##$%&+&%$%&+&%$$$%&+&%$$%&+&&&&&%%&+&%$$$%&+&&+&&+&%$$$%&+&%$#@..",
"@#$%&+&%$#$%&+&+&%$#$%&+&+&%$###$%&++++&%$$%&+&&+&%$#$%&+&+&%$#$%&+&%$##$%&+&%$%&+&%$#$%&+&%$#$%&+++++&%&+&%$#$%&+&&+&&+&%$#$%&+&%$#@..",
"@#$%&+&%$$$%&+&+&%$$$%&+&+&%$$$$%&&+&&&+&%$%&+&&+&%$#$%&+&+&%$$$%&+&%$##$%&+&%$%&+&%$$$%&+&%$##$%&&&&&+&&+&%$#$%&+&&+&&+&%$$$%&+&%$#@..",
"@#$%&+&%%%%%&+&+&%%%%%&+&+&%%%%%&+&+&%%&+&%%&+&&+&%$#$%&+&+&%%%%%&+&%$##$%&+&%%%&+&%%%%%&+&%$##$%%%%%%&+&+&%$#$%&+&&+&&+&%%%%%&+&%$#@..",
"@#$%&+&&&&&&+&%&+&&&&&+&%&+&&&&&+&&+&%$%&+&%&+&&+&%$#$%&+&&+&&&&&&+&%$##$%&+&&&&%&+&&&&&+&%$##$%&&&&&&+&&+&%$#$%&+&&+&&+&&&&&&+&%&%$#@.",
"@#$%&+++++++&%$%&+++++&%$%&+++++&%&+&%$$%&+&+++&+&%$#$%&+&%&+++++++&%$#@#$%&++++&%&+++++&%$##$%&++++++&%&+&%$#$%&+&+++&+++++++&%&+&%$#@",
".@#$%&&&&&&&%$#$%&&&&&%$#$%&&&&&%$%&%$##$%&%&&&%&%$#@#$%&%$%&&&&&&+&%$#@@#$%&&&&%$%&&&&&%$#@@#$%&&&&&&%$%&%$#@#$%&%&&&&+&&&&&&%$%&%$#@.",
"..@#$%%%%%%%$#@#$%%%%%$#@#$%%%%%$#$%$#@@#$%$%%%$%$#@.@#$%$$%%%%%%&+&%$#@.@#$%%%%$#$%%%%%$#@..@#$%%%%%%$#$%$#@.@#$%$%%%&+&%%%%%$#$%$#@..",
"...@#$$$$$$$#@.@#$$$$$#@.@#$$$$$#@#$#@..@#$#$$$#$#@...@#$$%&&&&&&+&%$#@...@#$$$$#@#$$$$$#@....@#$$$$$$#@#$#@...@#$#$$%&+&%$$$$#@#$#@...",
"....@#######@...@#####@...@#####@.@#@....@#@###@#@....@#$%&++++++&%$#@.....@####@.@#####@......@######@.@#@.....@#@#$%&+&%$###@.@#@....",
".....@@@@@@@.....@@@@@.....@@@@@...@......@.@@@.@......@#$%&&&&&&%$#@.......@@@@...@@@@@........@@@@@@...@.......@.@#$%&%$#@@@...@.....",
"........................................................@#$%%%%%%$#@................................................@#$%$#@............",
".........................................................@#$$$$$$#@..................................................@#$#@.............",
"..........................................................@######@....................................................@#@..............",
"...........................................................@@@@@@......................................................@..............."};
