/* XPM */
static char * laser_cb_xpm[] = {
"15 60 2 1",
" 	c None",
".	c #FFFF59650C30",
"               ",
"               ",
"               ",
"               ",
"               ",
" ....     .... ",
"...............",
"...............",
"...............",
"    .......    ",
"               ",
"               ",
"               ",
"               ",
"               ",
"      ...      ",
"      ....     ",
"      ....     ",
"      ....     ",
"      ....     ",
"     ....      ",
"     ....      ",
"     ....      ",
"     ....      ",
"     ....      ",
"     .....     ",
"      ....     ",
"      ....     ",
"      ....     ",
"      ...      ",
"               ",
"  .            ",
" ...           ",
"  .....        ",
"  ......       ",
"   ......      ",
"    ......     ",
"      .....    ",
"       ....    ",
"        ....   ",
"        ....   ",
"         ....  ",
"          .... ",
"            .  ",
"               ",
"               ",
"            .  ",
"           ... ",
"         ....  ",
"        .....  ",
"      ......   ",
"     ......    ",
"    .....      ",
"    ....       ",
"   ....        ",
"   ....        ",
"  ....         ",
" ....          ",
"  .            ",
"               "};
