/* XPM */
static char * ntitle_xpm[] = {
"80 28 3 1",
".	c None",
"a 	c #34D3AAAAFFFF",
"X	c #FFFFFFFF8207",
"aaaaa.a...a...aaaaa.....aaaa..aaaaa.............................................",
"a...a..a.a........a.....a...a.a...a.............................................",
"a...a..a.a........a.....a...a.a...a.............................................",
"a...a...a.........a.....a...a.a...a.............................................",
"aaaaa...a.........a.aaa.a...a.a...a.............................................",
"a....a..a.........a.a...a...a.a...a.............................................",
"a....a..a.........a.aaa.a...a.a...a.............................................",
"a....a..a.........a...a.a...a.a...a.............................................",
"aaaaaa..a......aaaa.aaa.a...a.aaaaa.............................................",
"................................................................................",
"................................................................................",
"X.......X..X............X...........X.....X.......X.....................X.......",
"XX......X...............X...........X.....X.......X.....................X.......",
"X.X.....X...............X...........X.....X.......X.....................X.......",
"X..X....X...............X...........X.....X.......X.....................X.......",
"X...X...X..X....XXXXXXX.XXXXXXX...XXXXX...X.......X...XXXXXXX.X...X...X.X.....X.",
"X....X..X.XX...X......X.X......X....X.....X.......X..X......X.X...X...X.X....X..",
"X.....X.X..X..X.......X.X.......X...X.....XXXXXXXXX.X.......X.X...X...X.X...X...",
"X......XX..X..X.......X.X.......X...X.....X.......X.X.......X.X...X...X.X..X....",
"X.......X..X..X.......X.X.......X...X.....X.......X.X.......X.X...X...X.XXXX....",
"X.......X..X..X.......X.X.......X...X.....X.......X.X.......X.X...X...X.X...X...",
"X.......X..X..X.......X.X.......X...X.....X.......X.X.......X.X...X...X.X....X..",
"X.......X..X...X......X.X.......X...X.....X.......X..X.....XX..X.X.X.X..X.....X.",
"X.......X.XXX...XXXXXXX.X.......X....XXXX.X.......X...XXXXX.X...X...X...X......X",
"......................X.........................................................",
"......................X.........................................................",
".....................X..........................................................",
"...............XXXXXX..........................................................."};
