/* XPM */
static char * paused_xpm[] = {
"72 23 9 1",
" 	c None",
".	c #3CF33CF30C30",
"X	c #6DB66DB63CF3",
"o	c #CF3CCF3C6DB6",
"O	c #FFFFFFFF6DB6",
"+	c #CF3CCF3C3CF3",
"@	c #0C300C300C30",
"#	c #9E799E793CF3",
"$	c #186118611861",
"   .X.   X  .                                                           ",
" XoOOO+@ O@#Oo@                                               .         ",
" #XXOOO# OOOOOO.                                              OX        ",
"    .OOo#O.#OOOO.                                 .$          OOo.      ",
"    .OOOXO  .OOOo@                                oo          OOOOX     ",
"    .OOO O   .OOO.    @X$       .    .@      .X@  .o    $.    @#OOOo.   ",
"   @#OOO O    OOOX  .#OOOoX#  @#O#@ XOo.    XOOO#Xo.   XOO.     .OOOOXX.",
"  .+XOOO O$  @oOOX  X#oOOOOX  #OOOX@OOO+  @+OOOOOO#  .+OOOO.   XoO+OOOO.",
"@#OX.OOO Oo++ooOOX  @X $#OO.  @+OO  XOO.  .OO.XX+o@  XOOXOOo@  OO+ .oOO.",
".OOOoOOO O @@ +OOX   X  XOO.   +OO  XOO.  .OO. @O.   XOO..OOX  OO+  XOO.",
" $+OOOOO O    +OOX  @o#.XOO.   +OO  XOO.  .OO. #OX   XOO.$+X   OO+  XOO.",
"   +OOOO O#oo+oOOX  ##$#OOO.   +OO  XOO.  .OOO#OOOo$ XOO#o.    OO+  XOO.",
"   $OOOO O$  $oOOX XOX  XOO.   +OO  XOO.  @#OOOXoOO. XOO+@     OO+  XOO.",
"    #OOO O    +OOX oO.  XOO.   +OO  XOO.    .OX .OO. XOO.      OO+  XOO.",
"    .OOO O.   +OOX OOX  XOO.   +OO  XOO.    X#  .OO. XOO.      OO+  XOO.",
"  .#OOOO OOO#.+OOX OOo@.OOO.   +OO .oOO.   $oXX$.OO. XOOX  $. @OOo. XOO.",
" XOOOOOO OOOOOOO#  OOO+O#OO+.  #OO+o#OOoX  #OOOOoOO. #OOOo#+@ XOOOOOoOO.",
"#OO+oOOO OOOOOOX   XOOo@.OO#   XOO#@$OOO. .OOOOOO+.  #oOOO#    $XOOOOX@ ",
"#.  .OOO O$X+O.     ##   ##     #X   Xo@  #X..XoX      .o.        #+$   ",
"    .OOO O   @                                                          ",
"    .OOO O                                                              ",
"    .OOO+O                                                              ",
"    @.....                                                              "};
