/* XPM */
static char * map_xpm[] = {
"226 66 4 1",
" 	c None",
".	c #A289A289A289",
"X	c #FFFFFFFFFFFF",
"o	c #00000000FFFF",
"                                                                                                                                                                                                 .................................",
"                                                                                                                                                                                                ..................................",
"                                                                                                                                                                                                ..                              ..",
"                                                                                                                                                                                                ..                              ..",
"                                                                                                                                                                                                ..                              ..",
"                                                                                                                                                                                                ..                              ..",
"                                                                                                                                                                                                ..             X                ..",
"                                                                                                                                                                                                ..     XXX         X            ..",
"                                                                                                                                                                                                ..      X X X XX  XX  XXXooo    ..",
"                                                                                                                                                                                                ..      XX  XX X X X X X oo     ..",
"                                                                                                                                                                                                ..      X X X  X X X  X  oo     ..",
"                                                                                                                                                                                                ..     XXX  X  X  XX X X oo     ..",
"                                                                                                                                                                                                ..                    X  oo     ..",
"                                                                                                                                                                                                ..                       oo     ..",
"                                                                                                                                                                                                ..                       oo     ..",
"                                                                                                                                                                                                ..                       oo     ..",
"                                                                                 ........................................................                                ................................................oo.......",
"                                                                                ..........................................................                              .................................................oo.......",
"                                                                                ..                                                      ..                              ..                                               oo     ..",
"                                                                                ..                                                      ..                              ..                                               oo     ..",
"                                                                                ..                                                      ..                              ..                                               oo     ..",
"                                                                                ..                                                      ..                              ..                                               oo     ..",
"                                                                                ..                                                      ..                              ..                            X                  oo     ..",
"                                                                                ..             XXX                         XX           ..                              ..            XXX XXX       X          X         oo     ..",
"                                                                                ..    oooo    X     X X XX  XX   X  X XX X   X          ..                              ..   oooo      XX XX   X   XX X  X  X  X         oo     ..",
"                                                                                ..     oo     X XXX X X X X X X XXX XX X X  X           ..                              ..    oo       X X X  XXX X X X X    X X        oooo    ..",
"                                                                                ..     oo     X   X X X X X X X X   X  X X X            ..                              ..    oo       X X X  X   X X X X   XX X                ..",
"                                                                                ..     oo      XXX   XX X X X X  X  X   X  XXX          ..                              ..    oo      XX   XX  X   XX X  X  XX X                ..",
"                                                                                ..     oo                               X               ..                              ..    oo                                                ..",
"                                                                                ..     oo                              X                ..                              ..    oo                                                ..",
"                                                                                ..     oo                                               ..                              ..    oo                                                ..",
"                                                                                ..     oo                                               ..                              ..    oo                                                ..",
" ......................................................................................oo.....................................................................................oo..................................................",
".......................................................................................oo.....................................................................................oo..................................................",
"..                                                                                     oo                                                                                     oo                                                ..",
"..                                                                                     oo                                                                                     oo                                                ..",
"..                                                                                     oo                                                                                     oo                                                ..",
"..                                                                                     oo                                                                                     oo                                                ..",
"..                                 XX  XX    X  X                                      oo                                                                                     oo                                                ..",
"..                                  X  X X X X  X                                      oo                                                                                     oo                                                ..",
"..                 oooo             XXXX X X X  X                                      oo                                     oooo                                            oo                                                ..",
"..                  oo              X  X X X X  X                                     oooo                                     oo                                            oooo                                               ..",
"..                  oo             XX  XX XX X  X                                                                              oo                                                                                               ..",
"..                  oo                                                                                                         oo                                                                                               ..",
"..                  oo                                                                                                         oo                                                                                               ..",
"..                  oo                                                                                                         oo                                                                                               ..",
"..                  oo                                                                                                         oo                                                                                               ..",
"..                  oo                                                                                                         oo                                                                                               ..",
"....................oo.........................................................................................................oo.................................................................................................",
" ...................oo.........................................................................................................oo................................................................................................ ",
"        ..          oo          ..                                                                                      ..     oo                                                                                       ..        ",
"        ..          oo          ..                                                                                      ..     oo                                                                                       ..        ",
"        ..          oo          ..                                                                                      ..     oo                                                                                       ..        ",
"        ..          oo          ..                                                                                      ..     oo                                                                                       ..        ",
"        ..          oo          ..                                                                                      ..     oo                      X                X                                               ..        ",
"        ..          oo          ..                                                                                      ..     oo         XXXX                                                                          ..        ",
"        ..   XXX   oooo    X    ..                                                                                      ..     oo          X   XX   XXXX XX   X   X  X XX XX   XXX                                      ..        ",
"        ..  X     X X XX  XX    ..                                                                                      ..    oooo         XX  X X X X X X X XXX XXX XX X X X X X                                       ..        ",
"        ..  X XXX X X X X  X    ..                                                                                      ..                 X   X X  X  X X X X   X   X  X X X  X                                        ..        ",
"        ..  X   X X X X X  X    ..                                                                                      ..                XXXX X X X X X X X  X   X  X  X X X X X                                       ..        ",
"        ..   XXX   XX X X XXX   ..                                                                                      ..                          X                          X                                        ..        ",
"        ..                      ..                                                                                      ..                                                                                              ..        ",
"        ..                      ..                                                                                      ..                                                                                              ..        ",
"        ..                      ..                                                                                      ..                                                                                              ..        ",
"        ..........................                                                                                      ..................................................................................................        ",
"         ........................                                                                                       .................................................................................................         "};
