/* XPM */
static char * credit_2_xpm[] = {
"112 18 7 1",
" 	c #000000000000",
".	c #000041030000",
"X	c #000049240000",
"o	c #000059650000",
"O	c #000069A60000",
"+	c #00008E380000",
"@	c #0000FFFF0000",
"      ....                       .                                           ......                             ",
"     .XXXX.                     .X.                                         .XXXXXX.                            ",
"    .XooooX. ..   .            .XoX. ......  ......  ......  ......        .XooooooX..    .  ......  ......     ",
"   .XoOOOOoX.XX. .X.          .XoOoX.XXXXXX..XXXXXX..XXXXXX..XXXXXX.      .XoOOOOOOoXX.  .X..XXXXXX..XXXXXX.    ",
"  .XoO++++OoXooX.XoX.        .XoO+OoXooooooXXooooooXXooooooXXooooooX.    .XoO++++++OooX..XoXXooooooXXooooooX.   ",
" .XoO+@@@@+OoOOoXoOoX.      .XoO+@+OoOOOOOOooOOOOOOooOOOOOOooOOOOOOoX.  .XoO+@@@@@@+OOoXXoOooOOOOOOooOOOOOOoX.  ",
" .XoO+@++@+OO++OoO+OoX.     .XoO+@+OO++++++OO++++++OO++++++OO++++++OoX. .XoO+@++++@+O+OooO+OO++++++OO++++++OoX. ",
" .XoO+@++@+O+@@+O+@+OoX.   .XooO+@+O+@@@@@@++@@@@@@++@@@@@@++@@@@@@+OoX..XoO+@+OO+@++@+OO+@++@@@@@@++@@@@@@+OoX.",
".XoO+@@@@@@++@@+O+@+OoX.  .XoOoO+@@+O+++++@++@+++++O+@++++@++@++++@+OoX..XoO+@@+O+@++@+OO+@++@++++@++@++++@+OoX.",
".XoO+@@+++@++@@+++@+OoX. .XoO+OO+@@++@@@@@@++@@@@@@++@@+O+@++@@+O+@+OoX..XoO+@@+O+@++@@+O+@++@@+O+@++@@+O+@+OoX.",
".XoO+@@+++@++@@@@@@+OoX..XoO+@+++@@++@@+++@+O++++@@++@@+++@++@@+O+@+OoX..XoO+@@+O+@++@@+++@++@@+O+@++@@+O+@+OoX.",
".XoO+@@@@@@+O+++++@+OoX..XoO+@@@@@@++@@@@@@++@@@@@@++@@@@@@++@@+O+@+OoX..XoO+@@+O+@++@@@@@@++@@+O+@++@@+O+@+OoX.",
" .XoO++++++O+@@@@@@+OoX. .XoO++++++OO++++++OO++++++OO++++++OO++OoO+OoX.  .XoO++OoO+OO++++++OO++OoO+OO++OoO+OoX. ",
"  .XoOOOOOOoO++++++OoX.   .XoOOOOOOooOOOOOOooOOOOOOooOOOOOOooOOoXoOoX.    .XoOOoXoOooOOOOOOooOOoXoOooOOoXoOoX.  ",
"   .XooooooXoOOOOOOoX.     .XooooooXXooooooXXooooooXXooooooXXooX.XoX.      .XooX.XoXXooooooXXooX.XoXXooX.XoX.   ",
"    .XXXXXX.XooooooX.       .XXXXXX..XXXXXX..XXXXXX..XXXXXX..XX. .X.        .XX. .X..XXXXXX..XX. .X..XX. .X.    ",
"     ...... .XXXXXX.         ......  ......  ......  ......  ..   .          ..   .  ......  ..   .  ..   .     ",
"             ......                                                                                             "};
