/* XPM */
static char * flr_elev_cyan_xpm[] = {
"32 32 7 1",
" 	c #00007DF77DF7",
".	c #AEBAAEBAAEBA",
"X	c #492449244924",
"o	c #000069A669A6",
"O	c #000051445144",
"+	c #000092489248",
"@	c #B6DAB6DAB6DA",
"                                ",
"                                ",
"  ............................  ",
"  .                          X  ",
"  .                          X  ",
"  .    oooooooooooooooooo    X  ",
"  .     oOOOOOOOOOOOOOOo     X  ",
"  .  o   oOOOOOOOOOOOOo   o  X  ",
"  .  oo   oOOOOOOOOOOo   oo  X  ",
"  .  oOo   oooooooooo   oOo  X  ",
"  .  oOOo              oOOo  X  ",
"  .  oOOOo            oOOOo  X  ",
"  .  oOOOo  oooooooo  oOOOo  X  ",
"  .  oOOOo  oooooooo  oOOOo  X  ",
"  .  oOOOo  oo++++oo  oOOOo  X  ",
"  .  oOOOo  oo+@@+oo  oOOOo  X  ",
"  .  oOOOo  oo+@@+oo  oOOOo  X  ",
"  .  oOOOo  oo++++oo  oOOOo  X  ",
"  .  oOOOo  oooooooo  oOOOo  X  ",
"  .  oOOOo  oooooooo  oOOOo  X  ",
"  .  oOOOo            oOOOo  X  ",
"  .  oOOo              oOOo  X  ",
"  .  oOo   oooooooooo   oOo  X  ",
"  .  oo   oOOOOOOOOOOo   oo  X  ",
"  .  o   oOOOOOOOOOOOOo   o  X  ",
"  .     oOOOOOOOOOOOOOOo     X  ",
"  .    oooooooooooooooooo    X  ",
"  .                          X  ",
"  .                          X  ",
"  .XXXXXXXXXXXXXXXXXXXXXXXXXXX  ",
"                                ",
"                                "};
