/* XPM */
static char * droid_ani_xpm[] = {
"32 320 6 1",
" 	c None",
".	c #DF7DDF7DDF7D",
"X	c #FFFFFFFFFFFF",
"o	c #FFFF3CF36DB6",
"O	c #FFFFFFFF6DB6",
"+	c #0C30FFFF3CF3",
"                                ",
"                                ",
"               ..               ",
"              ....              ",
"              ....              ",
"            XXXXXXXX            ",
"         ooXXXXXXXXXXXX         ",
"        ooXXXXXXXXXXXXXX        ",
"       ooXXXXXXXXXXXXXXXX       ",
"      ooXXXXXXXXXXXXXXXXXX      ",
"     ooXXXXXXXXXXXXXXXXXXXX     ",
"     XXXXXXXXXXXXXXXXXXXXXX     ",
"                                ",
"                                ",
"                                ",
"                                ",
"                                ",
"                                ",
"                                ",
"                                ",
"     XXXXXXXXXXXXXXXXXXXXXX     ",
"     ooXXXXXXXXXXXXXXXXXXXX     ",
"      ooXXXXXXXXXXXXXXXXXX      ",
"       ooXXXXXXXXXXXXXXXX       ",
"        ooXXXXXXXXXXXXXX        ",
"         ooXXXXXXXXXXXX         ",
"            XXXXXXXX            ",
"                                ",
"                                ",
"                                ",
"                                ",
"                                ",
"                                ",
"                                ",
"               ..               ",
"              ....              ",
"              ....              ",
"            XXXXXXXX            ",
"         XXXooXXXXXXXXX         ",
"        XXXoooXXXXXXXXXX        ",
"       XXXXooXXXXXXXXXXXX       ",
"      XXXXoooXXXXXXXXXXXXX      ",
"     XXXXoooXXXXXXXXXXXXXXX     ",
"     XXXXXXXXXXXXXXXXXXXXXX     ",
"                                ",
"                                ",
"                                ",
"                                ",
"                                ",
"                                ",
"                                ",
"                                ",
"     XXXXXXXXXXXXXXXXXXXXXX     ",
"     XXXXXoooXXXXXXXXXXXXXX     ",
"      XXXXXooXXXXXXXXXXXXX      ",
"       XXXXooXXXXXXXXXXXX       ",
"        XXXoooXXXXXXXXXX        ",
"         XXXooXXXXXXXXX         ",
"            XXXXXXXX            ",
"                                ",
"                                ",
"                                ",
"                                ",
"                                ",
"               OO               ",
"                                ",
"               ..               ",
"              ....              ",
"              ....              ",
"            XXXXXXXX            ",
"         XXXXXXooXXXXXX         ",
"        XXXXXXXooXXXXXXX        ",
"       XXXXXXXXooXXXXXXXX       ",
"      XXXXXXXXooooXXXXXXXX      ",
"     XXXXXXXXXooooXXXXXXXXX     ",
"     XXXXXXXXXXXXXXXXXXXXXX     ",
"                                ",
"                                ",
"                                ",
"                                ",
"                                ",
"                                ",
"                                ",
"                                ",
"     XXXXXXXXXXXXXXXXXXXXXX     ",
"     XXXXXXXXXooooXXXXXXXXX     ",
"      XXXXXXXXooooXXXXXXXX      ",
"       XXXXXXXXooXXXXXXXX       ",
"        XXXXXXXooXXXXXXX        ",
"         XXXXXXooXXXXXX         ",
"            XXXXXXXX            ",
"                                ",
"                                ",
"                                ",
"                                ",
"                                ",
"                                ",
"                                ",
"               ..               ",
"              ....              ",
"              ....              ",
"            XXXXXXXX            ",
"         XXXXXXXXXooXXX         ",
"        XXXXXXXXXXoooXXX        ",
"       XXXXXXXXXXXXooXXXX       ",
"      XXXXXXXXXXXXXooXXXXX      ",
"     XXXXXXXXXXXXXXoooXXXXX     ",
"     XXXXXXXXXXXXXXXXXXXXXX     ",
"                                ",
"                                ",
"                                ",
"                                ",
"                                ",
"                                ",
"                                ",
"                                ",
"     XXXXXXXXXXXXXXXXXXXXXX     ",
"     XXXXXXXXXXXXXXXoooXXXX     ",
"      XXXXXXXXXXXXXoooXXXX      ",
"       XXXXXXXXXXXXooXXXX       ",
"        XXXXXXXXXXoooXXX        ",
"         XXXXXXXXXooXXX         ",
"            XXXXXXXX            ",
"                                ",
"                                ",
"                                ",
"                                ",
"                                ",
"                                ",
"                                ",
"               ..               ",
"              ....              ",
"              ....              ",
"            XXXXXXXX            ",
"         XXXXXXXXXXXXoo         ",
"        XXXXXXXXXXXXXXoo        ",
"       XXXXXXXXXXXXXXXXoo       ",
"      XXXXXXXXXXXXXXXXXXoo      ",
"     XXXXXXXXXXXXXXXXXXXXoo     ",
"     XXXXXXXXXXXXXXXXXXXXXX     ",
"                                ",
"                                ",
"                                ",
"                                ",
"                                ",
"                                ",
"                                ",
"                                ",
"     XXXXXXXXXXXXXXXXXXXXXX     ",
"     XXXXXXXXXXXXXXXXXXXXoo     ",
"      XXXXXXXXXXXXXXXXXXoo      ",
"       XXXXXXXXXXXXXXXXoo       ",
"        XXXXXXXXXXXXXXoo        ",
"         XXXXXXXXXXXXoo         ",
"            XXXXXXXX            ",
"                                ",
"                                ",
"                                ",
"                                ",
"                                ",
"                                ",
"                                ",
"                                ",
"                                ",
"                                ",
"            XXXXXXXX            ",
"         ooXXXXXXXXXXXX         ",
"        ooXXXXXXXXXXXXXX        ",
"       ooXXXXXXXXXXXXXXXX       ",
"      ooXXXXXXXXXXXXXXXXXX      ",
"     ooXXXXXXXXXXXXXXXXXXXX     ",
"     XXXXXXXXXXXXXXXXXXXXXX     ",
"                                ",
"                                ",
"                                ",
"                                ",
"                                ",
"                                ",
"                                ",
"                                ",
"     XXXXXXXXXXXXXXXXXXXXXX     ",
"     ooXXXXXXXXXXXXXXXXXXXX     ",
"      ooXXXXXXXXXXXXXXXXXX      ",
"       ooXXXXXXXXXXXXXXXX       ",
"        ooXXXXXXXXXXXXXX        ",
"         ooXXXXXXXXXXXX         ",
"            XXXXXXXX            ",
"              ....              ",
"              ....              ",
"               ..               ",
"                                ",
"                                ",
"                                ",
"                                ",
"                                ",
"                                ",
"                                ",
"            XXXXXXXX            ",
"         XXXooXXXXXXXXX         ",
"        XXXoooXXXXXXXXXX        ",
"       XXXXooXXXXXXXXXXXX       ",
"      XXXXoooXXXXXXXXXXXXX      ",
"     XXXXoooXXXXXXXXXXXXXXX     ",
"     XXXXXXXXXXXXXXXXXXXXXX     ",
"                                ",
"                                ",
"                                ",
"                                ",
"                                ",
"                                ",
"                                ",
"                                ",
"     XXXXXXXXXXXXXXXXXXXXXX     ",
"     XXXXXoooXXXXXXXXXXXXXX     ",
"      XXXXXooXXXXXXXXXXXXX      ",
"       XXXXooXXXXXXXXXXXX       ",
"        XXXoooXXXXXXXXXX        ",
"         XXXooXXXXXXXXX         ",
"            XXXXXXXX            ",
"              ....              ",
"              ....              ",
"               ..               ",
"                                ",
"                                ",
"                                ",
"                                ",
"                                ",
"                                ",
"                                ",
"            XXXXXXXX            ",
"         XXXXXXooXXXXXX         ",
"        XXXXXXXooXXXXXXX        ",
"       XXXXXXXXooXXXXXXXX       ",
"      XXXXXXXXooooXXXXXXXX      ",
"     XXXXXXXXXooooXXXXXXXXX     ",
"     XXXXXXXXXXXXXXXXXXXXXX     ",
"                                ",
"                                ",
"                                ",
"                                ",
"                                ",
"                                ",
"                                ",
"                                ",
"     XXXXXXXXXXXXXXXXXXXXXX     ",
"     XXXXXXXXXooooXXXXXXXXX     ",
"      XXXXXXXXooooXXXXXXXX      ",
"       XXXXXXXXooXXXXXXXX       ",
"        XXXXXXXooXXXXXXX        ",
"         XXXXXXooXXXXXX         ",
"            XXXXXXXX            ",
"              ....              ",
"              ....              ",
"               ..               ",
"                                ",
"               ++               ",
"                                ",
"                                ",
"                                ",
"                                ",
"                                ",
"            XXXXXXXX            ",
"         XXXXXXXXXooXXX         ",
"        XXXXXXXXXXoooXXX        ",
"       XXXXXXXXXXXXooXXXX       ",
"      XXXXXXXXXXXXXooXXXXX      ",
"     XXXXXXXXXXXXXXoooXXXXX     ",
"     XXXXXXXXXXXXXXXXXXXXXX     ",
"                                ",
"                                ",
"                                ",
"                                ",
"                                ",
"                                ",
"                                ",
"                                ",
"     XXXXXXXXXXXXXXXXXXXXXX     ",
"     XXXXXXXXXXXXXXXoooXXXX     ",
"      XXXXXXXXXXXXXoooXXXX      ",
"       XXXXXXXXXXXXooXXXX       ",
"        XXXXXXXXXXoooXXX        ",
"         XXXXXXXXXooXXX         ",
"            XXXXXXXX            ",
"              ....              ",
"              ....              ",
"               ..               ",
"                                ",
"                                ",
"                                ",
"                                ",
"                                ",
"                                ",
"                                ",
"            XXXXXXXX            ",
"         XXXXXXXXXXXXoo         ",
"        XXXXXXXXXXXXXXoo        ",
"       XXXXXXXXXXXXXXXXoo       ",
"      XXXXXXXXXXXXXXXXXXoo      ",
"     XXXXXXXXXXXXXXXXXXXXoo     ",
"     XXXXXXXXXXXXXXXXXXXXXX     ",
"                                ",
"                                ",
"                                ",
"                                ",
"                                ",
"                                ",
"                                ",
"                                ",
"     XXXXXXXXXXXXXXXXXXXXXX     ",
"     XXXXXXXXXXXXXXXXXXXXoo     ",
"      XXXXXXXXXXXXXXXXXXoo      ",
"       XXXXXXXXXXXXXXXXoo       ",
"        XXXXXXXXXXXXXXoo        ",
"         XXXXXXXXXXXXoo         ",
"            XXXXXXXX            ",
"              ....              ",
"              ....              ",
"               ..               ",
"                                ",
"                                "};
