/* XPM */
static char * credit_5_xpm[] = {
"160 28 7 1",
" 	c #000000000000",
".	c #000041030000",
"X	c #000049240000",
"o	c #000059650000",
"O	c #000069A60000",
"+	c #00008E380000",
"@	c #0000FFFF0000",
"      ....                                                             .               .     .                       .                         .                ",
"     .XXXX.                                            ..             .X.             .X.   .X.                     .X.                       .X.               ",
"    .XooooX.         ......  ......  ......  ......   .XX.   ......  .XoX.           .XoX. .XoX....  ......  .......XoX. .   ......          .XoX.   ......     ",
"   .XoOOOOoX.       .XXXXXX..XXXXXX..XXXXXX..XXXXXX. .XooX. .XXXXXX..XoOoX.         .XoOoX.XoOoXXXX..XXXXXX..XXXXXXXoOoX.X. .XXXXXX.        .XoOoX. .XXXXXX.    ",
"  .XoO++++OoX.     .XooooooXXooooooXXooooooXXooooooX.XoOOoX.XooooooXXoO+OoX.       .XoO+OoXoO+OooooXXooooooXXoooooooO+OoXoX.XooooooX.      .XoO+OoX.XooooooX.   ",
" .XoO+@@@@+OoX.   .XoOOOOOOooOOOOOOooOOOOOOooOOOOOOoXoO++OoXoOOOOOOooO+@+OoX.     .XoO+@+OoO+@+OOOOooOOOOOOooOOOOOOO+@+OoOoXoOOOOOOoX.    .XoO+@+OoXoOOOOOOoX.  ",
" .XoO+@++@+OoX.  .XoO++++++OO++++++OO++++++OO++++++OoO+@@+OoO++++++OoO+@+OoX.    .XoO++@++OO+@+++++OO++++++OO++++++O+@+OO+OoO++++++OoX.  .XoO++@++OoO++++++OoX. ",
" .XoO+@++@+OoX. .XoO+@@@@@@++@@@@@@++@@@@@@++@@@@@@+OoO++OoO+@@@@@@+OO+@+OoX.   .XoO+@@@@@+O+@@@@@@++@@@@@@++@@@@@@++@+++@+O+@@@@@@+OoX..XoO+@@@@@+O+@@@@@@+OoX.",
".XoO+@@@@@@+OoX..XoO+@+++++O+@++++@++@++++@++@++++@+OO+@+OooO+++++@+OO+@+OoX.    .XoO++@++OO+@++++@+O+++++@++@++++@++@@@@@@++@+++++OoX.  .XoO++@++OO+@++++@+OoX.",
".XoO+@@+++@+OoX..XoO+@@@@@@++@@+O+@++@@@@@@++@@+OO+OoO+@@+OO+@@@@@@+OO+@@+OoX.    .XoO+@@+OO+@@+O+@++@@@@@@++@@+O+@++@@+++@++@@@@@@+OoX.  .XoO+@@+OO+@@+O+@+OoX.",
".XoO+@@+O+@+OoX. .XoO++++@@++@@+++@++@@++++O+@@+++@+OO+@@+OO+@@+++@+OO+@@+OoX.    .XoO+@@+OO+@@+O+@++@@+++@++@@+O+@++@@+O+@+O++++@@+OoX.  .XoO+@@+OO+@@+++@+OoX.",
".XoO+@@+O+@+OoX..XoO+@@@@@@++@@@@@@++@@@@@@++@@@@@@+OO+@@+OO+@@@@@@+OO+@@+OoX. .. .XoO+@@+OO+@@+O+@++@@@@@@++@@+O+@++@@+O+@++@@@@@@+OoX.  .XoO+@@+OO+@@@@@@+OoX.",
" .XoO++OoO+OoX...XooO++++++O+@+++++OO++++++OO++++++OooO++OooO++++++OooO++OoX. .XX. .XoO++OooO++OoO+OO++++++OO++OoO+OO++OoO+OO++++++OoX.    .XoO++OooO++++++OoX. ",
"  .XoOOOOOOoXXXXXoOooOOOOOOoO+OOOOOooOOOOOOooOOOOOOoXXoOOoXXoOOOOOOoXXoOOoX. .XooX. .XoOOoOooOOoXoOooOOOOOOooOOOooOooOOOooOooOOOOOOoX.      .XoOOoXXoOOOOOOoX.  ",
"  .XoO++++OoXooooO+OoooooooXoOoOOooXXooooooXXooooooX..XooX.XoO++++OoXooooooX.XoOOoX.XooooO+OoooooooXXooooooXXoO+OooXXoO+OooXXooooooX.        .XooX..XooooooX.   ",
" .XoO+@@@@+OoOOOO+@+OOOOOOOoXoO++OoXoOOOOOOooOOOOOOoX..XX.XoO+@@@@+OoOOOOOOoXoO++OoXoOOOO+@+OOOOOOOooOOOOOOooO+@+OoXoO+@+OoX.XXXXXX.          .XX.  .XXXXXX.    ",
" .XoO+@++@+OO+++++@+O++++++OoO+@@+OoO++++++OO++++++OoX....XoO+@++@+OO++++++OoO+@@+OoO+++++@+O++++++OO++++++OO++@++OoO++@++OoX......            ..    ......     ",
" .XoO+@++@+O+@@@@@@++@@@@@@+OoO++OoO+@@@@@@++@@@@@@+OoX. .XoO+@++@+O+@@@@@@+OoO++OoO+@@@@@@++@@@@@@++@@@@@@++@@@@@+O+@@@@@+OoX.                                 ",
".XoO+@@@@@@++@++++@++@++++@+OO+@+OooO+++++@++@++++@+OoX..XoO+@@@@@@++@++++@+OO+@+OoO+@++++@++@++++@++@++++@+O++@++OoO++@++OoX.                                  ",
".XoO+@@+++@++@@+O+@++@@+OO+OoO+@@+OO+@@@@@@++@@+O+@+OoX..XoO+@@+++@++@@+OO+OoO+@@+OO+@@+O+@++@++++@++@@@@@@+OO+@@+OooO+@@+OoX.                                  ",
".XoO+@@+O+@++@@+++@++@@+OoOooO+@@+OO+@@+++@++@@+O+@+OoX..XoO+@@+++@++@@+OoOooO+@@+OO+@@+++@++@@@@@@++@@++++OoO+@@+OooO+@@+OoX.                                  ",
".XoO+@@+O+@++@@@@@@++@@+OooXoO+@@+OO+@@@@@@++@@+O+@+OoX..XoO+@@@@@@++@@+OooXoO+@@+OO+@@@@@@+O+++++@++@@@@@@+OO+@@+OooO+@@+OoX.                                  ",
" .XoO++OoO+OO++++++OO++OoXX.XoO++OooO++++++OO++OoO+OoX.  .XoO++++++OO++OoXX.XoO++OooO++++++O+@@@@@@+O++++++OooO++OoXXoO++OoX.                                   ",
"  .XoOOoXoOooOOOOOOooOOoX.. .XoOOoXXoOOOOOOooOOoXoOoX.    .XoOOOOOOooOOoX.. .XoOOoXXoOOOOOOoO++++++OoOOOOOOoXXoOOoX..XoOOoX.                                    ",
"   .XooX.XoXXooooooXXooX.    .XooX..XooooooXXooX.XoX.      .XooooooXXooX.    .XooX..XooooooXoOOOOOOoXooooooX..XooX.  .XooX.                                     ",
"    .XX. .X..XXXXXX..XX.      .XX.  .XXXXXX..XX. .X.        .XXXXXX..XX.      .XX.  .XXXXXX.XooooooX.XXXXXX.  .XX.    .XX.                                      ",
"     ..   .  ......  ..        ..    ......  ..   .          ......  ..        ..    ...... .XXXXXX. ......    ..      ..                                       ",
"                                                                                             ......                                                             "};
