/* XPM */
static char * flr_tl_wall_cyan_xpm[] = {
"32 32 3 1",
" 	c #00007DF77DF7",
".	c #000069A669A6",
"X	c #000051445144",
"                                ",
"                                ",
"                                ",
"    ............................",
"   .............................",
"   ..XXXXXXXXXXXXXXXXXXXXXXXXXXX",
"   ..XXXXXXXXXXXXXXXXXXXXXXXXXXX",
"   ..XXXXXXXXXXXXXXXXXXXXXXXXXXX",
"   ..XXXXXXXXXXXXXXXXXXXXXXXXXXX",
"   ..XXXXXXXXXXXXXXXXXXXXXXXXXXX",
"   ..XXXXXXXXXXXXXXXXXXXXXXXXXXX",
"   ..XXXXXXXXXXXXXXXXXXXXXXXXXXX",
"   ..XXXXXXXXXXXXXXXXXXXXXXXXXXX",
"   ..XXXXXXXXXXXXXXXXXXXXXXXXXXX",
"   ..XXXXXXXXXXXXXXXXXXXXXXXXXXX",
"   ..XXXXXXXXXXXXXXXXXXXXXXXXXXX",
"   ..XXXXXXXXXXXXXXXXXXXXXXXXXXX",
"   ..XXXXXXXXXXXXXXXXXXXXXXXXXXX",
"   ..XXXXXXXXXXXXXXXXXXXXXXXXXXX",
"   ..XXXXXXXXXXXXXXXXXXXXXXXXXXX",
"   ..XXXXXXXXXXXXXXXXXXXXXXXXXXX",
"   ..XXXXXXXXXXXXXXXXXXXXXXXXXXX",
"   ..XXXXXXXXXXXXXXXXXXXXXXXXXXX",
"   ..XXXXXXXXXXXXXXXXXXXXXXXXXXX",
"   ..XXXXXXXXXXXXXXXXXXXXXXXXXXX",
"   ..XXXXXXXXXXXXXXXXXXXXXXXXXXX",
"   ..XXXXXXXXXXXXXXXXXXXXXXXXXXX",
"   ..XXXXXXXXXXXXXXXXXXXXXXX....",
"   ..XXXXXXXXXXXXXXXXXXXXXX.....",
"   ..XXXXXXXXXXXXXXXXXXXXXX..   ",
"   ..XXXXXXXXXXXXXXXXXXXXXX..   ",
"   ..XXXXXXXXXXXXXXXXXXXXXX..   "};
