/* XPM */
static char * laser_uv_xpm[] = {
"15 60 2 1",
" 	c None",
".	c #0000FFFF0000",
"               ",
"               ",
"               ",
"               ",
"               ",
"  . . . . . .  ",
"...............",
" ............. ",
"...............",
"   . . . . .   ",
"               ",
"               ",
"               ",
"               ",
"               ",
"      . .      ",
"      ...      ",
"     ....      ",
"      ....     ",
"     ....      ",
"      ....     ",
"     ....      ",
"      ....     ",
"     ....      ",
"      ....     ",
"     ....      ",
"      ....     ",
"     ....      ",
"      ...      ",
"      . .      ",
"               ",
"  ..           ",
" . ...         ",
" .....         ",
"  ......       ",
"  ......       ",
"    ......     ",
"    ......     ",
"      ......   ",
"      ......   ",
"        .....  ",
"        ... .  ",
"          ..   ",
"               ",
"               ",
"               ",
"               ",
"          ..   ",
"        ... .  ",
"        .....  ",
"      ......   ",
"      ......   ",
"    ......     ",
"    ......     ",
"  ......       ",
"  ......       ",
" .....         ",
" . ...         ",
"  ..           ",
"               "};
