/* XPM */
static char * trans_terminated_xpm[] = {
"117 42 8 1",
" 	c None",
".	c #000000",
"+	c #00FF00",
"@	c #004200",
"#	c #004A00",
"$	c #005A00",
"%	c #006B00",
"&	c #008C00",
".....@@@@@@@@@....................................................@.......................@..........................",
"....@#########@..................................................@#@.....................@#@.........................",
"...@#$$$$$$$$$#@................................................@#$#@...................@#$#@........................",
"..@#$%%%%%%%%%$#@..............................................@#$%$#@.................@#$%$#@.......................",
".@#$%&&&&&&&&&%$#@@@@@.....@@@@@@@.@..@@@@.....@@@@@@..@@@@.@@@#$%&%$#@@@@@@@....@@@@@@#$%&%$#@@@@@@...@..@@@@.......",
"@#$%&+++++++++&%$#####@...@#######@#@@####@...@######@@####@###$%&+&%$#######@..@######$%&+&%$######@.@#@@####@......",
".@#$%&&&&+&&&&%$##$$$$#@.@#$$$$$$$#$##$$$$#@.@#$$$$$$##$$$$#$$$#$%&%$##$$$$$$#@@#$$$$$$#$%&%$##$$$$$#@#$##$$$$#@.....",
"..@#$%%%&+&%%%$%$$%%%%$#@#$%%%%%%%$%$$%%%%$#@#$%%%%%%$$%%%%$%%%$#$%$##$%%%%%%$##$%%%%%%$#$%$##$%%%%%$#$%$$%%%%$#@....",
"...@#$$%&+&%$$%&%%&&&&%$#$%&&&&&&&%&%%&&&&%$#$%&&&&&&%%&&&&%&&&%$%&%$$%&&&&&&%$$%&&&&&&%$%&%$$%&&&&&%$%&%%&&&&%$#@...",
"....@#$%&+&%$%&+&&++++&%$%&+++++++&+&&++++&%$%&++++++&&++++&+++&%&+&%%&++++++&%%&++++++&%&+&%%&+++++&%&+&&++++&%$#@..",
"....@#$%&+&%$%&+&+&&&&+&%&+&&&&&&+&+&+&&&&+&%&+&&&&&&%&+&&&+&&&+&++&%&+&&&&&&%%&+&&&&&&%&++&%&+&&&&&+&&+&+&&&&+&%$#@.",
"....@#$%&+&%$%&++&%%%%&+&+&%%%%%&+&++&%%%%&+&+&%%%%%%%&+&%&+&%&+&&+&&+&%%%%%%%&+&%%%%%%$%&+&&+&%%%%%&+&++&%%%%&+&%$#@",
"....@#$%&+&%$%&+&%$$$$%&&+&%$$$%&+&+&%$$$%&+&&+&&&&&%%&+&%&+&%&+&&+&%&+&&&&&%$%&+&&&&&%$%&+&&+&%$$$%&+&+&%$$$%&+&%$#@",
"....@#$%&+&%$%&+&%$###$%&+&%$#$%&+&+&%$#$%&+&%&+++++&%&+&%&+&%&+&&+&%%&+++++&%$%&+++++&%%&+&&+&%$#$%&+&+&%$#$%&+&%$#@",
"....@#$%&+&%$%&+&%$#@#$%&+&%$$$%&+&+&%$#$%&+&%%&&&&&+&&+&%&+&%&+&&+&%$%&&&&&+&%$%&&&&&+&%&+&&+&%$$$%&+&+&%$#$%&+&%$#@",
"....@#$%&+&%$%&+&%$#@#$%&+&%%%%%&+&+&%$#$%&+&%%%%%%%&+&+&%&+&%&+&&+&%$%%%%%%&+&%%%%%%%&+&&+&&+&%%%%%&+&+&%$#$%&+&%$#@",
"....@#$%&+&%$%&+&%$#@@#$%&+&&&&&++&+&%$#$%&+&%&&&&&&+&&+&%&+&%&+&&+&%%&&&&&&+&%%&&&&&&+&%&+&%&+&&&&&+&&+&%$#$%&+&%$#@",
"....@#$%&+&%$%&+&%$#@.@#$%&+++++&+&+&%$#$%&+&&++++++&%&+&%&+&%&+&+++&&++++++&%%&++++++&%&+++&%&+++++&%&+&%$#$%&+&%$#@",
".....@#$%&%$#$%&%$#@...@#$%&&&&&%&%&%$#@#$%&%%&&&&&&%$%&%$%&%$%&%&&&%%&&&&&&%$$%&&&&&&%$%&&&%$%&&&&&%$%&%$#@#$%&%$#@.",
"......@#$%$#@#$%$#@@....@#$%%%%%$%$%$#@.@#$%$$%%%%%%$#$%$#$%$#$%$%%%$$%%%%%%$##$%%%%%%$#$%%%$#$%%%%%$#$%$#@.@#$%$#@..",
".......@#$#####$####@....@#$$$$$#$#$#@...@#$##$$$$$$#@#$#@#$#@#$#$$$##$$$$$$##@#$$$$$$#@#$$$#@#$$$$$###$#@...@#$#@...",
"........@##$$$$$$$$$#@....@#####@#@#@.....@#@@######$#@#@.@#@.@#@###@@#######$#@######@.@###@.@######$##@.....@#@....",
"........@#$%%%%%%%%%$#@....@@@@@.@.@.......@..@@@@#$%$#@...@...@.@@@..@@@@@#$%$#@@@@@@...@@@...@@@@#$%$#@......@.....",
".......@#$%&&&&&&&&&%$#@@@@@...@..@@@@...@@@@.@@@#$%&%$#@.@@@@.....@@@@@@@#$%&%$#@...@@@@@.....@@@#$%&%$#@...........",
"......@#$%&+++++++++&%$#####@.@#@@####@.@####@###$%&+&%$#@####@...@#######$%&+&%$#@.@#####@...@###$%&+&%$#@..........",
".......@#$%&&&&+&&&&%$#$$$$$#@#$##$$$$#@#$$$$#$$$#$%&%$$##$$$$#@.@#$$$$$$$$%&+&%$#@@#$$$$$#@.@#$$$$%&+&%$#@..........",
"........@#$%%%&+&%%%$#$%%%%%$#$%$$%%%%$#$%%%%$%%%$#$%$$%$$%%%%$#@#$%%%%%%%$%&+&%$#@#$%%%%%$#@#$%%%%%&+&%$#@..........",
".........@#$$%&+&%$$#$%&&&&&%$%&%%&&&&%$%&&&&%&&&%$%&%%&%%&&&&%$#$%&&&&&&&%&&+&&%$#$%&&&&&%$#$%&&&&&&+&%$#@..........",
"..........@#$%&+&%$#$%&+++++&%&+&&++++&%&++++&+++&%&+&&+&&++++&%$%&+++++++&+++++&%$%&+++++&%$%&+++++++&%$#@..........",
"..........@#$%&+&%$$%&+&&&&&+&&+&+&&&&+&&+&&&+&&&+&++&&+&+&&&&+&%&+&&&&&&+&&&+&&%$%&+&&&&&+&%&+&&&&&&+&%$#@..........",
"..........@#$%&+&%$%&+&%%%%%&+&++&%%%%&+&+&%&+&%&+&&+&&++&%%%%&+&+&%%%%%&+&%&+&%$%&+&%%%%%&+&+&%%%%%&+&%$#@..........",
"..........@#$%&+&%$%&+&&&&&&&+&+&%$$$$%&&+&%&+&%&+&&+&&+&%$$$%&+&+&%$$$%&+&%&+&%$%&+&&&&&&&+&+&%$$$%&+&%$#@..........",
"..........@#$%&+&%$%&+++++++++&+&%$###$%&+&%&+&%&+&&+&&+&%$#$%&+&+&%$#$%&+&%&+&%$%&+++++++++&+&%$#$%&+&%$#@..........",
"..........@#$%&+&%$%&+&&&&&&&&&+&%$#@#$%&+&%&+&%&+&&+&&+&%$#$%&+&+&%$$$%&+&%&+&%$%&+&&&&&&&&&+&%$$$%&+&%$#@..........",
"..........@#$%&+&%$%&+&%%%%%%%&+&%$#@#$%&+&%&+&%&+&&+&&+&%$#$%&+&+&%%%%%&+&%&+&%%%&+&%%%%%%%&+&%%%%%&+&%$#@..........",
"..........@#$%&+&%$$%&+&&&&&&&&+&%$#@#$%&+&%&+&%&+&&+&&+&%$#$%&+&&+&&&&&++&%&+&&&&%&+&&&&&&&%&+&&&&&&+&%$#@..........",
"..........@#$%&+&%$#$%&+++++++&+&%$#@#$%&+&%&+&%&+&+++&+&%$#$%&+&%&+++++&+&%%&++++&%&+++++++&%&+++++++&%$#@..........",
"...........@#$%&%$#@#$%&&&&&&&%&%$#@.@#$%&%$%&%$%&%&&&%&%$#@#$%&%$%&&&&&%&%$$%&&&&%$%&&&&&&&%$%&&&&&&&%$#@...........",
"............@#$%$#@.@#$%%%%%%%$%$#@...@#$%$#$%$#$%$%%%$%$#@.@#$%$#$%%%%%$%$##$%%%%$#$%%%%%%%$#$%%%%%%%$#@............",
".............@#$#@...@#$$$$$$$#$#@.....@#$#@#$#@#$#$$$#$#@...@#$#@#$$$$$#$#@@#$$$$#@#$$$$$$$#@#$$$$$$$#@.............",
"..............@#@.....@#######@#@.......@#@.@#@.@#@###@#@.....@#@.@#####@#@..@####@.@#######@.@#######@..............",
"...............@.......@@@@@@@.@.........@...@...@.@@@.@.......@...@@@@@.@....@@@@...@@@@@@@...@@@@@@@..............."};
