/* XPM */
static char * chair_xpm[] = {
"32 32 18 1",
" 	c #00007DF77DF7",
".	c #8E388E388E38",
"X	c #A699A699A699",
"o	c #861786178617",
"O	c #0C303CF3CF3C",
"+	c #9E796DB66DB6",
"@	c #596559655965",
"#	c #618561856185",
"$	c #CF3CCF3C6DB6",
"%	c #79E779E779E7",
"&	c #71C671C671C6",
"*	c #514451445144",
"=	c #69A669A669A6",
"-	c #492449244924",
";	c #410341034103",
":	c #9E790C30CF3C",
">	c #38E338E338E3",
",	c #30C230C230C2",
"                                ",
"                                ",
"                                ",
"                                ",
"                                ",
"    .XXXXXXXXXXXXXXXXXXXXXX     ",
"    .oooooooooooooooooooooX     ",
"    .oOOOOOOOOOOOOOOOOOOooX     ",
"    .ooooooooooooooo+++++oX     ",
"    @##############o++$$+oX     ",
"    #%%%%%%%%%%%%##o++$$+oX     ",
"    @&&&&&&&&&&&&@#o+++++oX     ",
"    *============*#o+++++oX     ",
"    -@@@@@@@@@@@@-#oooooooX     ",
"    ;************;#oo:::ooX     ",
"    >------------>#oo:::ooX     ",
"    ,;;;;;;;;;;;;,#oo:::ooX     ",
"    ;************;#oo:::ooX     ",
"    ;************;#oooooooX     ",
"    *############*#o+++++oX     ",
"    *============*#o+++++oX     ",
"    #%%%%%%%%%%%%##o++$$+oX     ",
"    @##############o++$$+oX     ",
"    .ooooooooooooooo+++++oX     ",
"    .oOOOOOOOOOOOOOOOOOOooX     ",
"    .oooooooooooooooooooooX     ",
"    .XXXXXXXXXXXXXXXXXXXXXX     ",
"                                ",
"                                ",
"                                ",
"                                ",
"                                "};
