/* XPM */
static char * credit_3_xpm[] = {
"222 66 7 1",
" 	c #000000000000",
".	c #00003CF30000",
"X	c #000055550000",
"o	c #00006DB60000",
"O	c #000086170000",
"+	c #00009E790000",
"@	c #0000FFFF0000",
"     ..........          .....   .....                          .....                      .....             .....                                                                           .....                            ",
"    .XXXXXXXXXX.        .XXXXX. .XXXXX.                        .XXXXX.                    .XXXXX.           .XXXXX.                                                                         .XXXXX.                           ",
"   .XooooooooooX.      .XoooooX.XoooooX.                      .XoooooX.                  .XoooooX.         .XoooooX.                                                                       .XoooooX.                          ",
"  .XoOOOOOOOOOOoX.    .XoOOOOOoXoOOOOOoX.                    .XoOOOOOoX.                .XoOOOOOoX.       .XoOOOOOoX.                                                                     .XoOOOOOoX.                         ",
" .XoO++++++++++OoX.  .XoO+++++OoO+++++OoX.                  .XoO+++++OoX.              .XoO+++++OoX.     .XoO+++++OoX.                                                                   .XoO+++++OoX.                        ",
".XoO+@@@@@@@@@@+OoX..XoO+@@@@@+O+@@@@@+OoX.                .XoO+@@@@@+OoX.            .XoO+@@@@@+OoX.   .XoO+@@@@@+OoX.                                                                 .XoO+@@@@@+OoX.                       ",
".XoO+@@@@@@@@@@+OoX..XoO+@@@@@+O+@@@@@+OoX............. ....XoO+@@@@@+OoX.........    .XoO+@@@@@+OoX.....XoO+@@@@@+OoX.........       ................     .....       .......       ....XoO+@@@@@+OoX. ......                ",
".XoO+@@@@@@@@@@@+OoX.XoO+@@@@@+O+@@@@@+OoX.XXXXXXXXXXXX.XXXXXoO+@@@@@+OoXXXXXXXXXX.   .XoO+@@@@@+OoXXXXXXXoO+@@@@@+OoXXXXXXXXXX.     .XXXXXXXXXXXXXXXX.   .XXXXX.     .XXXXXXX.     .XXXXXoO+@@@@@+OoX..XXXXXX.               ",
".XoO+@@@@@@@@@@@+OoX.XoO+@@@@@+O+@@@@@+OoXXooooooooooooXooooooO+@@@@@+OoooooooooooX. .XooO+@@@@@+OoooooooooO+@@@@@+OoooooooooooX.   .XooooooooooooooooX. .XoooooX.   .XoooooooX.   .XooooooO+@@@@@+OoX.XooooooX.              ",
".XoO+@@@@@+@@@@@@+OoXXoO+@@@@@+O+@@@@@+OoXoOOOOOOOOOOOOoOOOOOoO+@@@@@+OOOOOOOOOOOOoX.XoOOO+@@@@@+OOOOOOOOOoO+@@@@@+OOOOOOOOOOOOoX. .XoOOOOOOOOOOOOOOOOoX.XoOOOOOoX. .XoOOOOOOOoX. .XoOOOOOoO+@@@@@+OoXXoOOOOOOoX.             ",
".XoO+@@@@@+@@@@@@+OoXXoO+@@@@@+OO+++++OoXoO++++++++++++O+++++OO+@@@@@+++++++++++++OoXoO++++@@@@@++++++++++OO+@@@@@+++++++++++++OoX.XoO++++++++++++++++OoXoO+++++OoX.XoO+++++++OoX.XoO+++++OO+@@@@@+OoXoO++++++OoX.            ",
".XoO+@@@@@++@@@@@@+OoXoO+@@@@@+OO+++++OooO+@@@@@@@@@@@@+@@@@@+O+@@@@@+@@@@@@@@@@@@+OoO+@@@@@@@@@@@@@@@@@@@+O+@@@@@+@@@@@@@@@@@@+OoXoO+@@@@@@@@@@@@@@@@+OoO+@@@@@+OoXoO+@@@@@@@+OoXoO+@@@@@+O+@@@@@+OooO+@@@@@@+OoX.           ",
".XoO+@@@@@++@@@@@@+OoXoO+@@@@@+O+@@@@@+OO+@@@@@@@@@@@@@@@@@@@+O+@@@@@@@@@@@@@@@@@@@+OO+@@@@@@@@@@@@@@@@@@@+O+@@@@@@@@@@@@@@@@@@@+OoO+@@@@@@@@@@@@@@@@@@+OO+@@@@@+OoXoO+@@@@@@@+OoXoO+@@@@@+O+@@@@@+OoO+@@@@@@+OoX.            ",
".XoO+@@@@@+O+@@@@@@+OooO+@@@@@+O+@@@@@+O+@@@@@@@@@@@@@@@@@@@@+O+@@@@@@@@@@@@@@@@@@@@+O+@@@@@@@@@@@@@@@@@@@+O+@@@@@@@@@@@@@@@@@@@@+O+@@@@@@@@@@@@@@@@@@@@+O+@@@@@+OoXoO+@@@@@@@+OoXoO+@@@@@+O+@@@@@+OO+@@@@@@+OoX.             ",
".XoO+@@@@@+O+@@@@@@+OooO+@@@@@+O+@@@@@+O+@@@@@@@@@@@@@@@@@@@@+O+@@@@@@@@@@@@@@@@@@@@+O+@@@@@@@@@@@@@@@@@@@+O+@@@@@@@@@@@@@@@@@@@@+O+@@@@@@@@@@@@@@@@@@@@+OO+@@@@@+OoO+@@@@@@@@@+OoO+@@@@@+OO+@@@@@+O+@@@@@@+OoX.              ",
".XoO+@@@@@+OO+@@@@@@+OoO+@@@@@+O+@@@@@+O+@@@@@@++++++++@@@@@@+O+@@@@@@++++++++@@@@@@+OO++++@@@@@++++++++++OO+@@@@@@++++++++@@@@@@+O+@@@@@@++++++++@@@@@@+OO+@@@@@+OoO+@@@@@@@@@+OoO+@@@@@+OO+@@@@@++@@@@@@+OoX.               ",
".XoO+@@@@@+OO+@@@@@@+OoO+@@@@@+O+@@@@@+O+@@@@@+OOOOOOOO+@@@@@+O+@@@@@+OOOOOOOO+@@@@@+OoOOO+@@@@@+OOOOOOOOOoO+@@@@@+OOOOOOOO+@@@@@+O+@@@@@+OOOOOOOO+@@@@@+OO+@@@@@+OoO+@@@@@@@@@+OoO+@@@@@+OO+@@@@@+@@@@@@+OoX.                ",
".XoO+@@@@@+OoO+@@@@@@+OO+@@@@@+O+@@@@@+O+@@@@@+OooooooO+@@@@@+O+@@@@@+OooooooO+@@@@@+OoooO+@@@@@+OoooooooooO+@@@@@+OooooooO+@@@@@+OO+++++++++++++++@@@@@+OoO+@@@@@+O+@@@@@+@@@@@+O+@@@@@+OoO+@@@@@@@@@@@+OoX.                 ",
".XoO+@@@@@+OoO+@@@@@@+OO+@@@@@+O+@@@@@+O+@@@@@+OoXXXXoO+@@@@@+O+@@@@@+OoXXXXoO+@@@@@+OoXoO+@@@@@+OoXXXXXXXoO+@@@@@+OoXXXXoO+@@@@@+OoO+@@@@@@@@@@@@@@@@@@+OoO+@@@@@+O+@@@@@+@@@@@+O+@@@@@+OoO+@@@@@@@@@@+OoX.                  ",
".XoO+@@@@@+OooO+@@@@@@+O+@@@@@+O+@@@@@+O+@@@@@+OoX..XoO+@@@@@+O+@@@@@+OoX..XoO+@@@@@+OoXoO+@@@@@+OoX.XXXXXoO+@@@@@+OoX..XoO+@@@@@+OO+@@@@@@@@@@@@@@@@@@@+OoO+@@@@@+O+@@@@@+@@@@@+O+@@@@@+OoO+@@@@@@@@@@+OoX.                  ",
".XoO+@@@@@+OooO+@@@@@@+O+@@@@@+O+@@@@@+O+@@@@@+OoX..XoO+@@@@@+O+@@@@@+OoX..XoO+@@@@@+OoXoO+@@@@@+OoXXooooooO+@@@@@+OoX..XoO+@@@@@+O+@@@@@@@@@@@@@@@@@@@@+OooO+@@@@@+@@@@@+O+@@@@@+@@@@@+OooO+@@@@@@@@@@@+OoX.                 ",
".XoO+@@@@@+OoXoO+@@@@@@++@@@@@+O+@@@@@+O+@@@@@+OoXXXXoO+@@@@@+O+@@@@@+OoX..XoO+@@@@@+OoXoO+@@@@@+OoXoOOOOOoO+@@@@@+OoX..XoO+@@@@@+O+@@@@@@@@@@@@@@@@@@@@+OooO+@@@@@+@@@@@+O+@@@@@+@@@@@+OooO+@@@@@+@@@@@@+OoX.                ",
".XoO+@@@@@+OoXoO+@@@@@@++@@@@@+O+@@@@@+O+@@@@@+OooooooO+@@@@@+O+@@@@@+OoX..XoO+@@@@@+OoXoO+@@@@@+OooO+++++OO+@@@@@+OoX..XoO+@@@@@+O+@@@@@@++++++++@@@@@@+OooO+@@@@@+@@@@@+O+@@@@@+@@@@@+OooO+@@@@@++@@@@@@+OoX.               ",
".XoO+@@@@@+OoXXoO+@@@@@@+@@@@@+O+@@@@@+O+@@@@@+OOOOOOOO+@@@@@+O+@@@@@+OoX..XoO+@@@@@+OoXoO+@@@@@+OOO+@@@@@+O+@@@@@+OoX..XoO+@@@@@+O+@@@@@+OOOOOOOO+@@@@@+OoXoO+@@@@@@@@@+OoO+@@@@@@@@@+OoXoO+@@@@@+O+@@@@@@+OoX.              ",
".XoO+@@@@@+OoXXoO+@@@@@@+@@@@@+O+@@@@@+O+@@@@@@++++++++@@@@@@+O+@@@@@+OoX..XoO+@@@@@+OoXoO+@@@@@@+++@@@@@@+O+@@@@@+OoX..XoO+@@@@@+O+@@@@@@++++++++@@@@@@+OoXoO+@@@@@@@@@+OoO+@@@@@@@@@+OoXoO+@@@@@+OO+@@@@@@+OoX.             ",
".XoO+@@@@@+OoX.XoO+@@@@@@@@@@@+O+@@@@@+O+@@@@@@@@@@@@@@@@@@@@+O+@@@@@+OoX..XoO+@@@@@+OoXoO+@@@@@@@@@@@@@@@+O+@@@@@+OoX..XoO+@@@@@+O+@@@@@@@@@@@@@@@@@@@@+OoXoO+@@@@@@@@@+OoO+@@@@@@@@@+OoXoO+@@@@@+OoO+@@@@@@+OoX.            ",
".XoO+@@@@@+OoX.XoO+@@@@@@@@@@@+O+@@@@@+O+@@@@@@@@@@@@@@@@@@@@+O+@@@@@+OoX..XoO+@@@@@+OoXoO+@@@@@@@@@@@@@@@+O+@@@@@+OoX..XoO+@@@@@+O+@@@@@@@@@@@@@@@@@@@@+OoXXoO+@@@@@@@+OoXoO+@@@@@@@+OoXXoO+@@@@@+OooO+@@@@@@+OoX.           ",
".XoO+@@@@@+OoX..XoO+@@@@@@@@@@+O+@@@@@+OO+@@@@@@@@@@@@@@@@@@@+O+@@@@@+OoX..XoO+@@@@@+OoXXoO+@@@@@@@@@@@@@+OO+@@@@@+OoX..XoO+@@@@@+OO+@@@@@@@@@@@@@@@@@@@+OoXXoO+@@@@@@@+OoXoO+@@@@@@@+OoXXoO+@@@@@+OoXoO+@@@@@@+OoX.          ",
".XoO+@@@@@+OoX..XoO+@@@@@@@@@@+O+@@@@@+OoO+@@@@@@@@@@@@+@@@@@+O+@@@@@+OoX..XoO+@@@@@+OoX.XoO+@@@@@@@@@@@+OoO+@@@@@+OoX..XoO+@@@@@+OoO+@@@@@@@@@@@@+@@@@@+OoXXoO+@@@@@@@+OoXoO+@@@@@@@+OoXXoO+@@@@@+OoXXoO+@@@@@@+OoX.         ",
" .XoO+++++OoX.  .XoO++++++++++OoO+++++OoO+++++++++++++++@@@@@+OO+++++OoX.  .XoO+++++OoX. .XoO+++++++++++OoXoO+++++OoX.  .XoO+++++OoXoO++++++++++++O+++++OoX..XoO+++++++OoX.XoO+++++++OoX..XoO+++++OoX..XoO++++++OoX.          ",
"  .XoOOOOOoX.    .XoOOOOOOOOOOoXoOOOOOoO+@@@@@+++++++++@@@@@@+OoOOOOOoX.    .XoOOOOOoX.   .XoOOOOOOOOOOOoX.XoOOOOOoX.    .XoOOOOOoX.XoOOOOOOOOOOOOoOOOOOoX.  .XoOOOOOOOoX. .XoOOOOOOOoX.  .XoOOOOOoX.  .XoOOOOOOoX.           ",
"   .XoooooX.      .XooooooooooX.XooooooO+@@@@@@@@@@@@@@@@@@@@+OooooooX.      .XoooooX.     .XoooooooooooX. .XoooooX.      .XoooooX. .XooooooooooooXoooooX.    .XoooooooX.   .XoooooooX.    .XoooooX.    .XooooooX.            ",
"    .XXXXX.        .XXXXXXXXXX. .XXXXXoO+@@@@@@@@@@@@@@@@@@@@+OoXXXXX.        .XXXXX.       .XXXXXXXXXXX.   .XXXXX.        .XXXXX.   .XXXXXXXXXXXX.XXXXX.      .XXXXXXX.     .XXXXXXX.      .XXXXX.      .XXXXXX.             ",
"     .....          ..........   .....XoO+@@@@@@@@@@@@@@@@@@+OoX.....          .....         ...........     .....          .....     ............ .....        .......       .......        .....        ......              ",
"                                      .XoO+@@@@@@@@@@@@@@@@+OoX.                                                                                                                                                              ",
"                                       .XoO++++++++++++++++OoX.                                                                                                                                                               ",
"                                        .XoOOOOOOOOOOOOOOOOoX.                                                                                                                                                                ",
"      ..    ......    ..               . .XooooooooooooooooX......                      .                                           ......                                    ..        .           ......  ......    ..      ",
"     .XX.  .XXXXXX.  .XX.             .X. .XXXXXXXXXXXXXXXX.XXXXXX.                    .X.                                         .XXXXXX.                                  .XX.      .X.         .XXXXXX..XXXXXX.  .XX.     ",
"    .XooX..XooooooX..XooX.           .XoX..XooooooXXooooooXXooooooX.                  .XoX. ......  ......  ......  ......        .XooooooX..    .  ......  ......          .XooX.    .XoX. .......XooooooXXooooooX..XooX.    ",
"   .XoOOoXXoOOOOOOoXXoOOoX.         .XoOoXXoOOOOOOooOOOOOOooOOOOOOoX.                .XoOoX.XXXXXX..XXXXXX..XXXXXX..XXXXXX.      .XoOOOOOOoXX.  .X..XXXXXX..XXXXXX.        .XoOOoX.  .XoOoX.XXXXXXXoOOOOOOooOOOOOOoXXoOOoX.   ",
"  .XoO++OooO++++++OooO++OoX.       .XoO+OooO++++++OO++++++OO++++++OoX.              .XoO+OoXooooooXXooooooXXooooooXXooooooX.    .XoO++++++OooX..XoXXooooooXXooooooX.      .XoO++OoX..XoO+OoXoooooooO++++++OO++++++OooO++OoX.  ",
" .XoO+@@+OO+@@@@@@+OO+@@+OoX.     .XoO+@+OO+@@@@@@++@@@@@@++@@@@@@+OoX.            .XoO+@+OoOOOOOOooOOOOOOooOOOOOOooOOOOOOoX.  .XoO+@@@@@@+OOoXXoOooOOOOOOooOOOOOOoX.    .XoO+@@+OoXXoO+@+OoOOOOOOO+@@@@@@++@@@@@@+OO+@@+OoX. ",
".XoO+@++OoO+@++++@+OoO++@+OoX.    .XoO+@+OO+@++++@++@++++@+O+++++@+OoX..           .XoO+@+OO++++++OO++++++OO++++++OO++++++OoX. .XoO+@++++@+O+OooO+OO++++++OO++++++OoX.  .XoO+@++OoX.XoO+@+OO++++++O+@++++@++@+++@@+OoO++@+OoX.",
".XoO+@+OooO+@+OOO+OoXoO+@+OoX.    .XoO+@+OO+@++++@++@++++@+OOOOO+@+OoXXX.         .XooO+@+O+@@@@@@++@@@@@@++@@@@@@++@@@@@@+OoX..XoO+@+OO+@++@+OO+@++@@@@@@++@@@@@@+OoX. .XoO+@+OoX.XooO+@+O+@@@@@@++@+OO+@++@+OO+@+OooO+@+OoX.",
".XoO+@+OooO+@@+OoOoXXoO+@+OoX.   .XoO+@@+OO+@@@@@@++@@@@@@+OooO+@@+OoXooX.       .XoOoO+@@+O+++++@++@+++++O+@++++@++@++++@+OoX..XoO+@@+O+@++@+OO+@++@++++@++@++++@+OoX. .XoO+@+OoXXoOoO+@@++@+++++O+@@+O+@++@+OO+@+OooO+@+OoX.",
".XoO+@+OooO+@@+OO+OoXoO+@+OoX.   .XoO+@@+OoO++++@@+O++++@@+OooO+@@+OooOOoX.     .XoO+OO+@@++@@@@@@++@@@@@@++@@+O+@++@@+O+@+OoX..XoO+@@+O+@++@@+O+@++@@+O+@++@@+O+@+OoX. .XoO+@+OoXoO+OO+@@++@@@@@@++@@+O+@++@+OO+@+OooO+@+OoX.",
".XoO+@++OoO+@@+++@+OoO++@+OoX.   .XoO+@@+OooOOO+@@+OOOO+@@+OooO+@@+OoO++OoX.   .XoO+@+++@@++@@+++@+O++++@@++@@+++@++@@+O+@+OoX..XoO+@@+O+@++@@+++@++@@+O+@++@@+O+@+OoX. .XoO+@++OoO+@+++@@+O++++@@++@@+O+@++@++++@+OoO++@+OoX.",
" .XoO+@@+OO+@@@@@@+OO+@@+OoX.    .XoO+@@+OoXooO+@@+OooO+@@+OooO+@@+OO+@@+OoX.  .XoO+@@@@@@++@@@@@@++@@@@@@++@@@@@@++@@+O+@+OoX..XoO+@@+O+@++@@@@@@++@@+O+@++@@+O+@+OoX.  .XoO+@@+OO+@@@@@@++@@@@@@++@@+O+@++@@@@@@+OO+@@+OoX. ",
"  .XoO++OooO++++++OooO++OoX.      .XoO++OoXXXXoO++OoXXoO++OoXXoO++OooO+@+OoX.   .XoO++++++OO++++++OO++++++OO++++++OO++OoO+OoX.  .XoO++OoO+OO++++++OO++OoO+OO++OoO+OoX.   .XXoO++OooO++++++OO++++++OO++OoO+OO++++++OooO++OoX.  ",
"   .XoOOoXXoOOOOOOoXXoOOoX..       .XoOOoXXoX.XoOOoX..XoOOoX..XoOOoXXoO+OoX.  ....XoOOOOOOooOOOOOOooOOOOOOooOOOOOOooOOoXoOoX. ....XoOOoXoOooOOOOOOooOOoXoOooOOoXoOoX.   .XoXXoOOoXXoOOOOOOooOOOOOOooOOoXoOooOOOOOOoXXoOOoX.   ",
"    .XooX..XooooooXX.XooX..X.       .XooXXoOoXXXooXX.X.XooXX..XXooXX.XoOoX.X..XXXXXXoooooooOooooooXXooooooXXooooooXXooXXXoXX..XXXXXXooXoOoXXooooooXXooXXXoXXooX.XoXX.  .XoOoXXooX..XooooooXXooooooXXooXXXoXXooooooXX.XooX.    ",
"   .XoXXoXXoXoXXoXXoXoXXoXXoX.      .XooooO+OoooooooXoXXoXXoXXooooooXXooX.XoXXooooooXXooooO+OoooooooXXooooooXXXXXX..XXooooooXXooooooXXoO+OoXXXXXXX..XXooooooXXoX.XXoX..XoO+OoXXXX.XXXXXoOOoXXXooooooXXooooooXXooooooX.XX.     ",
"  .XoOooOooOoOooOooOoOooOooOoX.    .XoOOOO+@+OOOOOOOoOooOooOooOOOOOOooOoXXoOooOOOOOOooOOOO+@+OOOOOOOooOOOOOOoX.... .XoOOOOOOooOOOOOOooO+@+OoX..... .XoOOOOOOooOoXXoOoXXoO+@+OoXooXooXXoO++OoXoOOOOOOooOOOOOOooOOOOOOoX..      ",
" .XoO+OO+OO+O+OO+OO+O+OO+OO+OoX....XoO+++++@+O++++++O+OO+OO+OO++++++OO+OooO+OO++++++OO+++++@+O++++++OO++++++OoX....XoO++++++OO++++++OO++@++OoX. ...XoO++++++OO+OooO+OooO+@+OoooOOoOOooO+@@+OoO++++++OO++++++OO++++++OoX.      ",
".XoO+@++@++@+@++@++@+@++@++@+OoXXXXoO+@@@@@@++@@@@@@+@++@++@++@@@@@@++@+OO+@++@@@@@@++@@@@@@++@@@@@@++@@@@@@+OoXXXXoO+@@@@@@++@@@@@@++@@@@@+OoX.XXXoO+@@@@@@++@+OO+@+OO+@+OooOO++O++OooO++OoO+@@@@@@++@@@@@@++@@@@@@+OoX.     ",
".XoO+@++@++@+@++@++@+@++@++@+OoXooXoO+@++++@++@++++@+@++@++@++@++++@++@+OO+@++@++++@++@++++@++@++++@++@++++@+OoXooXoO+@++++@++@++++@+O++@++OoX.XooXXoO+++++@++@+OO+@+O+@+OooO++@@+@@+OO+@+OoO+@+++++O+@++++@++@++++@+OoX.     ",
".XoO+@@+@@+@+@@+@@+@+@@+@@+@+OooOOooO+@@+O+@++@@+O+@+@@+@@+@++@@+O+@++@@+O+@++@@+O+@++@@+O+@++@@@@@@++@@+OO+OoXoOOooO+@@+O+@++@@@@@@+OO+@@+OoXXoOOooO+@@@@@@++@@+O+@++@+OooO+@@+@@++OoO+@@+OO+@@@@@@++@@+O+@++@@+O+@+OoX.     ",
".XoO+@@+@@+@+@@+@@+@+@@+@@+@+OoO++OoO+@@+++@++@@+++@+@@+@@+@++@@+O+@++@@+++@++@@+O+@++@@+++@++@@++++O+@@+OoOoXoO++OoO+@@+O+@++@@++++OoO+@@+OoXoO++OoO+@@+++@++@@+++@+@+OoXXoO++O++OOooO+@@+OoO++++@@++@@+O+@++@@+++@+OoX.     ",
".XoO+@@@@@@@+@@@@@@@+@@@@@@@+OO+@@+OO+@@@@@@++@@@@@@+@@@@@@@++@@+O+@++@@@@@@++@@+O+@++@@@@@@++@@@@@@++@@+OooXoO+@@+OO+@@+O+@++@@@@@@+OO+@@+OooO+@@+OO+@@@@@@++@@@@@@++OoX..XoOOoOOooXoO++@+OO+@@@@@@++@@+O+@++@@@@@@+OoX.     ",
" .XoO+++++++O+++++++O+++++++OooO++OooO++++++OO++++++O+++++++OO++OoO+OO++++++OO++OoO+OO++++++OO++++++OO++OoXX.XoO++OooO++OoO+OO++++++OooO++OoXXoO++OooO++++++OO++++++OOoX.  .XooXooXXoO+@@@+OoO++++++OO++OoO+OO++++++OoX.      ",
"  .XoOOOOOOOoOOOOOOOoOOOOOOOoXXoOOoXXoOOOOOOooOOOOOOoOOOOOOOooOOoXoOooOOOOOOooOOoXoOooOOOOOOooOOOOOOooOOoX.. .XoOOoXXoOOoXoOooOOOOOOoXXoOOoX..XoOOoXXoOOOOOOooOOOOOOooX.    .XX.XX..XoO+++OoXoOOOOOOooOOoXoOooOOOOOOoX.       ",
"   .XoooooooXoooooooXoooooooX..XooX..XooooooXXooooooXoooooooXXooX.XoXXooooooXXooX.XoXXooooooXXooooooXXooX.    .XooX..XooX.XoXXooooooX..XooX.  .XooX..XooooooXXooooooXX.      .. ..  .XoOOOoX.XooooooXXooX.XoXXooooooX.        ",
"    .XXXXXXX.XXXXXXX.XXXXXXX.  .XX.  .XXXXXX..XXXXXX.XXXXXXX..XX. .X..XXXXXX..XX. .X..XXXXXX..XXXXXX..XX.      .XX.  .XX. .X..XXXXXX.  .XX.    .XX.  .XXXXXX..XXXXXX..               .XoooX. .XXXXXX..XX. .X..XXXXXX.         ",
"     ....... ....... .......    ..    ......  ...... .......  ..   .  ......  ..   .  ......  ......  ..        ..    ..   .  ......    ..      ..    ......  ......                  .XXX.   ......  ..   .  ......          ",
"                                                                                                                                                                                       ...                                    "};
