/* XPM */
static char * co_xpm[] = {
"143 22 9 1",
" 	c None",
".	c #3CF33CF30C30",
"X	c #9E799E793CF3",
"o	c #186118611861",
"O	c #6DB66DB63CF3",
"+	c #CF3CCF3C3CF3",
"@	c #FFFFFFFF6DB6",
"#	c #0C300C300C30",
"$	c #CF3CCF3C6DB6",
"        .Xo                                                                                              O+X.                                  ",
"     o O@@@+O.o                                                                    #                   .+@@@@$O     #.                         ",
"   .X.X@@@@@@$#                                                                   O.                  O@@@@@@@@X#  o$O                         ",
"  O@.X@O$X$@@.                                                              o+.  o@.                o$@+OX.X@@@@$# $$                          ",
" .@O$@@.+  ..       #       #            #        #    #        #       #    $O  +@.               O@$@+OO  oX@@@X @@o   #       #      #   #  ",
" $@#@@@.+          .@O     X$# #+O #    .@O      O@.  .@O     oX$#     #$$O..X. O@@$++           .$@O+@+OO    +@@@o@@+  o$X    oX$#    X@. O@# ",
"O@O @@@.+        .X@@@$Oo O@@X#$@@O$  .X@@@$O#  O@@@.#@@@O   O@@@$    O@@@@@@O  @@@@@@           X@$#+@+O@O# .$@@@.+@@..@@@O  O@@@$   O@@+X@@+ ",
"+@O @@@.+       .@@X$@@@O X@@$$O@@@.  @@$@@@@@. O@@$  $@@#  O@@X@@X  .@@X+@$+   O@@.             @@O +@+OXO++O#X@@O#@@$$X@@+ O@@X@@X  O@@@O$@$#",
"@@. @@@.+       .@@. O@@O  @@$# +@@   @@O#O@@$   @@+  +@@   O@@.X@@O .@@. #$.   O@@.             @@. +@+OO     O@@O @@X# @@+ O@@.X@@O  +@@ #O  ",
"@@. @@$.+       .@@. .@@O  @@+  +@@   @@O  @@+   @@+  +@@   O@@.#@O  .@@. O$o   O@@.             @@. +@+OO.XXO#O@@o @@O  @@+ O@@.#@O   +@@     ",
"@@X @@O.+       .@@. .@@O  @@+  +@@   @@O  @@+   @@+  +@@   O@@O$O   .@@+O@@@O  O@@.             @@O +@+O$X.oO$$@$  @@O  @@+ O@@O$O    +@@     ",
"@@@.@$#.+       .@@. .@@O  @@+  +@@   @@O  @@+   @@+  +@@   O@@$o    o@@@@+@@@  O@@.             @@+ +@.OX    .@@.  @@O  @@+ O@@$o     +@@     ",
"$@@+@. .+       .@@. .@@O  @@+  +@@   @@O  @@+   @@+  +@@   O@@.      #X@O O@@  O@@.             @@@.@O OO    X@X   @@O  @@+ O@@.      +@@     ",
"O@@@X  .+    #$#.@@. .@@O  @@+  +@@   @@O  @@+   @@+  +@@   O@@.       OX  O@@  O@@.             $@@@X  OO   O@X   #@@O  @@+ O@@.      +@@     ",
"#$@@@Xo.+   .$X O@@X#.@@O  @@+  +@@   @@X O@@+   @@+ .@@@   O@@.  .#  o$.. O@@  X@@.             O@@@$. OO #X@+#   .@@+o @@+ O@@.  .#  $@@#    ",
" .@@@@@$$OO$@X# +@@@@+@@O .@@@o X@@X. @@@X$@@+   +@@+@$@@X. X@@@XXX#  +@@@@$@@  @@@@OO            $@@@@X++X@@O     X@@@@X@@+ X@@@XXX# .@@@$X.  ",
"  O@@@@@@@@@X#   .X@@@+.  O@@@. O@@+# X@@O @@+   O@@X#O@@$# X@@@@O   O@@@@@@+.  o+@@$#            .$@@@@@@@$.       .X@@@$O# X@@@@O    .$@@X   ",
"   #X$@@@@$.       .@O     .+#   XO   #+.  @@+    XO   XX     O$.    XX..O$O      O$#               X@@@@+O           .$X      O$.      #XX    ",
"       .o                                  @@$                                                        o.                                       ",
"                                          .@$@.                                                                                                ",
"                                          X+#.O                                                                                                ",
"                                          o                                                                                                    "};
