/* XPM */
static char * get_ready_2_xpm[] = {
"140 29 10 1",
" 	c #000000000000",
".	c #0C300C300C30",
"X	c #00003CF30000",
"o	c #000055550000",
"O	c #00006DB60000",
"+	c #000086170000",
"@	c #00009E790000",
"#	c #0000CF3C0000",
"$	c #0000E79D0000",
"%	c #0000FFFF0000",
"       .XoooX.                                                 .XooX.                                                .XoX.             .XoX.",
"     .XO+@@@+OX.                                             .XO+@@+OX.                                              XO@OX             XO@OX",
"   .XO+#$%%%$#+OX.                   .XoX.                  .o+#$%%$#+o.                                             o@%@o             o@%@o",
"  .o+#$%$#@#$%$#+o.                  XO@OX                  X+$%$##$%$+X                                             o@%@o             o@%@o",
"  X+$%$#+OoO+#$%#O.                  o@%@o                 .O#%$@OO@$%#O.                                            o@%@o             o@%@o",
" .O#%$@OX. .XO@#@o.                  o@%@o                 X+$$@o..o@$$+X                                            o@%@o             o@%@o",
" X+$$@o.     .oOo.       .XooooX.    o@%#+ooX.             o@%#O.  .O#%@o     .XooooX.        .XooooX.        .XooX. o@%@o.XoX.   .XoX.o@%@o",
".O#%#O.       ...      .XO+@@@@+OX.  o@%$#@@OX             o@%@o   .O#%@o   .XO+@@@@+OX.    .XO+@@@@+OX.    .XO+@@+o.o@%@oXO@OX   XO@OXo@%@o",
"X+$$+X                .o+#$%%%%$#+o. o@%%%%%@o             o@%@o  .o@$$+X  .o+#$%%%%$#+o.  .o+#$%%%%$#+o.  .o+#$%%$+Xo@%@oo@%@o   o@%@oo@%@o",
"o@%#O.  .XoooooooooX. X+$%$#@@#$%$+X o@%$#@@OX             o@%@o.XO@$$@o.  X+$%$#@@#$%$+X  X+$%$#@@#$%$+X  X+$%$#@#+oo@%@oo@%@o   o@%@oo@%@o",
"o@%@o   XO@@@@@@@@@OX.O#%$@OooO@$%#O.o@%#+ooX.             o@%@oXO#$%$+X  .O#%$@OooO@$%#O..O#%$@OooO@$%#O..O#%$@OoOoXo@%@oo@%@o   o@%@oo@%@o",
"o@%@o   o@%%%%%%%%%@oX+$$@o. .o@$%$+Xo@%@o                 o@%@oo@%%%$@o. X+$$@o. .o@$%$+XX+$$@o.  .o@$$+XX+$$@o. ...o@%@oo@%@o   o@%@oo@%@o",
"o@%@o   XO@@@@@@#$%@oo@%#O..XO+#$$#OXo@%@o                 o@%@oXO@@#$$+X o@%#O..XO+#$$#OXo@%#O.    .O#%@oo@%#O.     o@%@oo@%@o   o@%@oo@%@o",
"o@%#O.  .XoooooO@$%@oo@%@o.o+#$$#+OX.o@%@o                 o@%@o.Xoo+#%#O.o@%@o.o+#$$#+OX.o@%@o      o@%@oo@%@o      o@%@oo@%@o   o@%@oo@%@o",
"X+$$+X         X+$$+Xo@%@oX+$$#+OX.  o@%@o                 o@%@o    X+$$+Xo@%@oX+$$#+OX.  o@%@o      o@%@oo@%@o      o@%@oo@%@o   o@%@oo@%@o",
".O#%#O.       .O#%#O.o@%@oXO@+OX.    o@%@o                 o@%@o    .O#%@oo@%@oXO@+OX.    o@%@o      o@%@oo@%@o      o@%@oo@%@o   o@%@oo@%@o",
" X+$$@o.     .o@$$+X o@%#OXXoX..XoX. o@%#O.                o@%@o     o@%@oo@%#OXXoX..XoX. o@%#O.     o@%@oo@%#O.    .O#%@oo@%@o   o@%@oXO@OX",
" .O#%$@OX. .XO@$%#O. X+$$@o.  .o+@OX X+$$@o.               o@%@o     o@%@oX+$$@o.  .o+@OX X+$$@o.    o@%@oX+$$@o.  .o@$$+Xo@%#O. .O#%@o.XoX.",
"  X+$%$#+OoO+#$%$+X  .O#%$@OooO@$%@o .O#%$@OX.             o@%@o     o@%@o.O#%$@OooO@$%@o .O#%$@OooX.o@%@o.O#%$@OooO@$%#O.X+$$@OoO@$$+X.XoX.",
"  .o+#$%$#@#$%$#+o.   X+$%$#@@#$%$+X  X+$%$#OX             o@%@o     o@%@o X+$%$#@@#$%$+X  X+$%$#@@OXo@%@o X+$%$#@@#$%$+X .O#%$#@#$%#O.XO@OX",
"   .XO+#$%%%$#+OX.    .o+#$%%%%$#+o.  .o+#$%@o             o@%@o     o@%@o .o+#$%%%%$#+o.  .o+#$%%%@oo@%@o .o+#$%%%%$#+o.  XO#$%%%$#OX o@%@o",
"     .XO+@@@+OX.       .XO+@@@@+OX.    .XO+@OX             XO@OX     XO@OX  .XO+@@@@+OX.    .XO+@@@OXXO@OX  .XO+@@@@+OX.   .XO@$%$@OX. XO@OX",
"       .XoooX.           .XooooX.        .XoX.             .XoX.     .XoX.    .XooooX.        .XoooX..XoX.    .XooooX.       .O#%#O.   .XoX.",
"                                                                                                                              o@%@o         ",
"                                                                                                                              o@%@o         ",
"                                                                                                                              o@%@o         ",
"                                                                                                                              o@%@o         ",
"                                                                                                                              XO@OX         ",
"                                                                                                                              .XoX.         "};
